%TF.GenerationSoftware,KiCad,Pcbnew,(5.1.12)-1*%
%TF.CreationDate,2021-12-29T23:54:55+01:00*%
%TF.ProjectId,STM32_Devkit,53544d33-325f-4446-9576-6b69742e6b69,rev?*%
%TF.SameCoordinates,Original*%
%TF.FileFunction,Soldermask,Top*%
%TF.FilePolarity,Negative*%
%FSLAX46Y46*%
G04 Gerber Fmt 4.6, Leading zero omitted, Abs format (unit mm)*
G04 Created by KiCad (PCBNEW (5.1.12)-1) date 2021-12-29 23:54:55*
%MOMM*%
%LPD*%
G01*
G04 APERTURE LIST*
%ADD10R,0.550000X0.850000*%
%ADD11R,0.450000X1.300000*%
%ADD12O,1.450000X2.000000*%
%ADD13O,1.150000X1.800000*%
%ADD14O,0.800000X0.800000*%
%ADD15O,1.700000X1.700000*%
%ADD16R,1.700000X1.700000*%
%ADD17R,0.900000X0.800000*%
%ADD18R,2.000000X2.400000*%
G04 APERTURE END LIST*
D10*
%TO.C,D2*%
X190740000Y-116800000D03*
X190740000Y-115040000D03*
X189680000Y-115040000D03*
X189680000Y-116800000D03*
%TD*%
%TO.C,C1*%
G36*
G01*
X194475000Y-107300000D02*
X194475000Y-106800000D01*
G75*
G02*
X194700000Y-106575000I225000J0D01*
G01*
X195150000Y-106575000D01*
G75*
G02*
X195375000Y-106800000I0J-225000D01*
G01*
X195375000Y-107300000D01*
G75*
G02*
X195150000Y-107525000I-225000J0D01*
G01*
X194700000Y-107525000D01*
G75*
G02*
X194475000Y-107300000I0J225000D01*
G01*
G37*
G36*
G01*
X192925000Y-107300000D02*
X192925000Y-106800000D01*
G75*
G02*
X193150000Y-106575000I225000J0D01*
G01*
X193600000Y-106575000D01*
G75*
G02*
X193825000Y-106800000I0J-225000D01*
G01*
X193825000Y-107300000D01*
G75*
G02*
X193600000Y-107525000I-225000J0D01*
G01*
X193150000Y-107525000D01*
G75*
G02*
X192925000Y-107300000I0J225000D01*
G01*
G37*
%TD*%
%TO.C,C2*%
G36*
G01*
X195375000Y-114800000D02*
X195375000Y-115300000D01*
G75*
G02*
X195150000Y-115525000I-225000J0D01*
G01*
X194700000Y-115525000D01*
G75*
G02*
X194475000Y-115300000I0J225000D01*
G01*
X194475000Y-114800000D01*
G75*
G02*
X194700000Y-114575000I225000J0D01*
G01*
X195150000Y-114575000D01*
G75*
G02*
X195375000Y-114800000I0J-225000D01*
G01*
G37*
G36*
G01*
X193825000Y-114800000D02*
X193825000Y-115300000D01*
G75*
G02*
X193600000Y-115525000I-225000J0D01*
G01*
X193150000Y-115525000D01*
G75*
G02*
X192925000Y-115300000I0J225000D01*
G01*
X192925000Y-114800000D01*
G75*
G02*
X193150000Y-114575000I225000J0D01*
G01*
X193600000Y-114575000D01*
G75*
G02*
X193825000Y-114800000I0J-225000D01*
G01*
G37*
%TD*%
%TO.C,C3*%
G36*
G01*
X174050000Y-134375000D02*
X173550000Y-134375000D01*
G75*
G02*
X173325000Y-134150000I0J225000D01*
G01*
X173325000Y-133700000D01*
G75*
G02*
X173550000Y-133475000I225000J0D01*
G01*
X174050000Y-133475000D01*
G75*
G02*
X174275000Y-133700000I0J-225000D01*
G01*
X174275000Y-134150000D01*
G75*
G02*
X174050000Y-134375000I-225000J0D01*
G01*
G37*
G36*
G01*
X174050000Y-132825000D02*
X173550000Y-132825000D01*
G75*
G02*
X173325000Y-132600000I0J225000D01*
G01*
X173325000Y-132150000D01*
G75*
G02*
X173550000Y-131925000I225000J0D01*
G01*
X174050000Y-131925000D01*
G75*
G02*
X174275000Y-132150000I0J-225000D01*
G01*
X174275000Y-132600000D01*
G75*
G02*
X174050000Y-132825000I-225000J0D01*
G01*
G37*
%TD*%
%TO.C,C4*%
G36*
G01*
X178630000Y-132940000D02*
X178970000Y-132940000D01*
G75*
G02*
X179110000Y-133080000I0J-140000D01*
G01*
X179110000Y-133360000D01*
G75*
G02*
X178970000Y-133500000I-140000J0D01*
G01*
X178630000Y-133500000D01*
G75*
G02*
X178490000Y-133360000I0J140000D01*
G01*
X178490000Y-133080000D01*
G75*
G02*
X178630000Y-132940000I140000J0D01*
G01*
G37*
G36*
G01*
X178630000Y-133900000D02*
X178970000Y-133900000D01*
G75*
G02*
X179110000Y-134040000I0J-140000D01*
G01*
X179110000Y-134320000D01*
G75*
G02*
X178970000Y-134460000I-140000J0D01*
G01*
X178630000Y-134460000D01*
G75*
G02*
X178490000Y-134320000I0J140000D01*
G01*
X178490000Y-134040000D01*
G75*
G02*
X178630000Y-133900000I140000J0D01*
G01*
G37*
%TD*%
%TO.C,C5*%
G36*
G01*
X179200000Y-119620000D02*
X179200000Y-119280000D01*
G75*
G02*
X179340000Y-119140000I140000J0D01*
G01*
X179620000Y-119140000D01*
G75*
G02*
X179760000Y-119280000I0J-140000D01*
G01*
X179760000Y-119620000D01*
G75*
G02*
X179620000Y-119760000I-140000J0D01*
G01*
X179340000Y-119760000D01*
G75*
G02*
X179200000Y-119620000I0J140000D01*
G01*
G37*
G36*
G01*
X178240000Y-119620000D02*
X178240000Y-119280000D01*
G75*
G02*
X178380000Y-119140000I140000J0D01*
G01*
X178660000Y-119140000D01*
G75*
G02*
X178800000Y-119280000I0J-140000D01*
G01*
X178800000Y-119620000D01*
G75*
G02*
X178660000Y-119760000I-140000J0D01*
G01*
X178380000Y-119760000D01*
G75*
G02*
X178240000Y-119620000I0J140000D01*
G01*
G37*
%TD*%
%TO.C,C6*%
G36*
G01*
X176630000Y-130340000D02*
X176970000Y-130340000D01*
G75*
G02*
X177110000Y-130480000I0J-140000D01*
G01*
X177110000Y-130760000D01*
G75*
G02*
X176970000Y-130900000I-140000J0D01*
G01*
X176630000Y-130900000D01*
G75*
G02*
X176490000Y-130760000I0J140000D01*
G01*
X176490000Y-130480000D01*
G75*
G02*
X176630000Y-130340000I140000J0D01*
G01*
G37*
G36*
G01*
X176630000Y-131300000D02*
X176970000Y-131300000D01*
G75*
G02*
X177110000Y-131440000I0J-140000D01*
G01*
X177110000Y-131720000D01*
G75*
G02*
X176970000Y-131860000I-140000J0D01*
G01*
X176630000Y-131860000D01*
G75*
G02*
X176490000Y-131720000I0J140000D01*
G01*
X176490000Y-131440000D01*
G75*
G02*
X176630000Y-131300000I140000J0D01*
G01*
G37*
%TD*%
%TO.C,C7*%
G36*
G01*
X190480000Y-123050000D02*
X190820000Y-123050000D01*
G75*
G02*
X190960000Y-123190000I0J-140000D01*
G01*
X190960000Y-123470000D01*
G75*
G02*
X190820000Y-123610000I-140000J0D01*
G01*
X190480000Y-123610000D01*
G75*
G02*
X190340000Y-123470000I0J140000D01*
G01*
X190340000Y-123190000D01*
G75*
G02*
X190480000Y-123050000I140000J0D01*
G01*
G37*
G36*
G01*
X190480000Y-122090000D02*
X190820000Y-122090000D01*
G75*
G02*
X190960000Y-122230000I0J-140000D01*
G01*
X190960000Y-122510000D01*
G75*
G02*
X190820000Y-122650000I-140000J0D01*
G01*
X190480000Y-122650000D01*
G75*
G02*
X190340000Y-122510000I0J140000D01*
G01*
X190340000Y-122230000D01*
G75*
G02*
X190480000Y-122090000I140000J0D01*
G01*
G37*
%TD*%
%TO.C,C8*%
G36*
G01*
X185460000Y-133530000D02*
X185460000Y-133870000D01*
G75*
G02*
X185320000Y-134010000I-140000J0D01*
G01*
X185040000Y-134010000D01*
G75*
G02*
X184900000Y-133870000I0J140000D01*
G01*
X184900000Y-133530000D01*
G75*
G02*
X185040000Y-133390000I140000J0D01*
G01*
X185320000Y-133390000D01*
G75*
G02*
X185460000Y-133530000I0J-140000D01*
G01*
G37*
G36*
G01*
X184500000Y-133530000D02*
X184500000Y-133870000D01*
G75*
G02*
X184360000Y-134010000I-140000J0D01*
G01*
X184080000Y-134010000D01*
G75*
G02*
X183940000Y-133870000I0J140000D01*
G01*
X183940000Y-133530000D01*
G75*
G02*
X184080000Y-133390000I140000J0D01*
G01*
X184360000Y-133390000D01*
G75*
G02*
X184500000Y-133530000I0J-140000D01*
G01*
G37*
%TD*%
%TO.C,C9*%
G36*
G01*
X184500000Y-134830000D02*
X184500000Y-135170000D01*
G75*
G02*
X184360000Y-135310000I-140000J0D01*
G01*
X184080000Y-135310000D01*
G75*
G02*
X183940000Y-135170000I0J140000D01*
G01*
X183940000Y-134830000D01*
G75*
G02*
X184080000Y-134690000I140000J0D01*
G01*
X184360000Y-134690000D01*
G75*
G02*
X184500000Y-134830000I0J-140000D01*
G01*
G37*
G36*
G01*
X185460000Y-134830000D02*
X185460000Y-135170000D01*
G75*
G02*
X185320000Y-135310000I-140000J0D01*
G01*
X185040000Y-135310000D01*
G75*
G02*
X184900000Y-135170000I0J140000D01*
G01*
X184900000Y-134830000D01*
G75*
G02*
X185040000Y-134690000I140000J0D01*
G01*
X185320000Y-134690000D01*
G75*
G02*
X185460000Y-134830000I0J-140000D01*
G01*
G37*
%TD*%
%TO.C,C10*%
G36*
G01*
X179070000Y-140560000D02*
X178730000Y-140560000D01*
G75*
G02*
X178590000Y-140420000I0J140000D01*
G01*
X178590000Y-140140000D01*
G75*
G02*
X178730000Y-140000000I140000J0D01*
G01*
X179070000Y-140000000D01*
G75*
G02*
X179210000Y-140140000I0J-140000D01*
G01*
X179210000Y-140420000D01*
G75*
G02*
X179070000Y-140560000I-140000J0D01*
G01*
G37*
G36*
G01*
X179070000Y-139600000D02*
X178730000Y-139600000D01*
G75*
G02*
X178590000Y-139460000I0J140000D01*
G01*
X178590000Y-139180000D01*
G75*
G02*
X178730000Y-139040000I140000J0D01*
G01*
X179070000Y-139040000D01*
G75*
G02*
X179210000Y-139180000I0J-140000D01*
G01*
X179210000Y-139460000D01*
G75*
G02*
X179070000Y-139600000I-140000J0D01*
G01*
G37*
%TD*%
%TO.C,C11*%
G36*
G01*
X186730000Y-140100000D02*
X187070000Y-140100000D01*
G75*
G02*
X187210000Y-140240000I0J-140000D01*
G01*
X187210000Y-140520000D01*
G75*
G02*
X187070000Y-140660000I-140000J0D01*
G01*
X186730000Y-140660000D01*
G75*
G02*
X186590000Y-140520000I0J140000D01*
G01*
X186590000Y-140240000D01*
G75*
G02*
X186730000Y-140100000I140000J0D01*
G01*
G37*
G36*
G01*
X186730000Y-139140000D02*
X187070000Y-139140000D01*
G75*
G02*
X187210000Y-139280000I0J-140000D01*
G01*
X187210000Y-139560000D01*
G75*
G02*
X187070000Y-139700000I-140000J0D01*
G01*
X186730000Y-139700000D01*
G75*
G02*
X186590000Y-139560000I0J140000D01*
G01*
X186590000Y-139280000D01*
G75*
G02*
X186730000Y-139140000I140000J0D01*
G01*
G37*
%TD*%
%TO.C,D1*%
G36*
G01*
X197906250Y-110237500D02*
X197393750Y-110237500D01*
G75*
G02*
X197175000Y-110018750I0J218750D01*
G01*
X197175000Y-109581250D01*
G75*
G02*
X197393750Y-109362500I218750J0D01*
G01*
X197906250Y-109362500D01*
G75*
G02*
X198125000Y-109581250I0J-218750D01*
G01*
X198125000Y-110018750D01*
G75*
G02*
X197906250Y-110237500I-218750J0D01*
G01*
G37*
G36*
G01*
X197906250Y-108662500D02*
X197393750Y-108662500D01*
G75*
G02*
X197175000Y-108443750I0J218750D01*
G01*
X197175000Y-108006250D01*
G75*
G02*
X197393750Y-107787500I218750J0D01*
G01*
X197906250Y-107787500D01*
G75*
G02*
X198125000Y-108006250I0J-218750D01*
G01*
X198125000Y-108443750D01*
G75*
G02*
X197906250Y-108662500I-218750J0D01*
G01*
G37*
%TD*%
%TO.C,FB1*%
G36*
G01*
X189918750Y-109600000D02*
X190681250Y-109600000D01*
G75*
G02*
X190900000Y-109818750I0J-218750D01*
G01*
X190900000Y-110256250D01*
G75*
G02*
X190681250Y-110475000I-218750J0D01*
G01*
X189918750Y-110475000D01*
G75*
G02*
X189700000Y-110256250I0J218750D01*
G01*
X189700000Y-109818750D01*
G75*
G02*
X189918750Y-109600000I218750J0D01*
G01*
G37*
G36*
G01*
X189918750Y-111725000D02*
X190681250Y-111725000D01*
G75*
G02*
X190900000Y-111943750I0J-218750D01*
G01*
X190900000Y-112381250D01*
G75*
G02*
X190681250Y-112600000I-218750J0D01*
G01*
X189918750Y-112600000D01*
G75*
G02*
X189700000Y-112381250I0J218750D01*
G01*
X189700000Y-111943750D01*
G75*
G02*
X189918750Y-111725000I218750J0D01*
G01*
G37*
%TD*%
D11*
%TO.C,J1*%
X184300000Y-110650000D03*
X183650000Y-110650000D03*
X183000000Y-110650000D03*
X182350000Y-110650000D03*
X181700000Y-110650000D03*
D12*
X186725000Y-110600000D03*
X179275000Y-110600000D03*
D13*
X186875000Y-106800000D03*
X179125000Y-106800000D03*
D14*
X185500000Y-109550000D03*
X180500000Y-109550000D03*
%TD*%
D15*
%TO.C,J2*%
X163750000Y-145060000D03*
X163750000Y-142520000D03*
X163750000Y-139980000D03*
X163750000Y-137440000D03*
X163750000Y-134900000D03*
X163750000Y-132360000D03*
X163750000Y-129820000D03*
X163750000Y-127280000D03*
X163750000Y-124740000D03*
X163750000Y-122200000D03*
X163750000Y-119660000D03*
X163750000Y-117120000D03*
X163750000Y-114580000D03*
X163750000Y-112040000D03*
D16*
X163750000Y-109500000D03*
%TD*%
%TO.C,J3*%
X202250000Y-109500000D03*
D15*
X202250000Y-112040000D03*
X202250000Y-114580000D03*
X202250000Y-117120000D03*
X202250000Y-119660000D03*
X202250000Y-122200000D03*
X202250000Y-124740000D03*
X202250000Y-127280000D03*
X202250000Y-129820000D03*
X202250000Y-132360000D03*
X202250000Y-134900000D03*
X202250000Y-137440000D03*
X202250000Y-139980000D03*
X202250000Y-142520000D03*
X202250000Y-145060000D03*
%TD*%
D16*
%TO.C,JP1*%
X170600000Y-109400000D03*
D15*
X173140000Y-109400000D03*
%TD*%
%TO.C,L1*%
G36*
G01*
X186672500Y-135180000D02*
X186327500Y-135180000D01*
G75*
G02*
X186180000Y-135032500I0J147500D01*
G01*
X186180000Y-134737500D01*
G75*
G02*
X186327500Y-134590000I147500J0D01*
G01*
X186672500Y-134590000D01*
G75*
G02*
X186820000Y-134737500I0J-147500D01*
G01*
X186820000Y-135032500D01*
G75*
G02*
X186672500Y-135180000I-147500J0D01*
G01*
G37*
G36*
G01*
X186672500Y-134210000D02*
X186327500Y-134210000D01*
G75*
G02*
X186180000Y-134062500I0J147500D01*
G01*
X186180000Y-133767500D01*
G75*
G02*
X186327500Y-133620000I147500J0D01*
G01*
X186672500Y-133620000D01*
G75*
G02*
X186820000Y-133767500I0J-147500D01*
G01*
X186820000Y-134062500D01*
G75*
G02*
X186672500Y-134210000I-147500J0D01*
G01*
G37*
%TD*%
%TO.C,R1*%
G36*
G01*
X197375000Y-111575000D02*
X197925000Y-111575000D01*
G75*
G02*
X198125000Y-111775000I0J-200000D01*
G01*
X198125000Y-112175000D01*
G75*
G02*
X197925000Y-112375000I-200000J0D01*
G01*
X197375000Y-112375000D01*
G75*
G02*
X197175000Y-112175000I0J200000D01*
G01*
X197175000Y-111775000D01*
G75*
G02*
X197375000Y-111575000I200000J0D01*
G01*
G37*
G36*
G01*
X197375000Y-113225000D02*
X197925000Y-113225000D01*
G75*
G02*
X198125000Y-113425000I0J-200000D01*
G01*
X198125000Y-113825000D01*
G75*
G02*
X197925000Y-114025000I-200000J0D01*
G01*
X197375000Y-114025000D01*
G75*
G02*
X197175000Y-113825000I0J200000D01*
G01*
X197175000Y-113425000D01*
G75*
G02*
X197375000Y-113225000I200000J0D01*
G01*
G37*
%TD*%
%TO.C,R2*%
G36*
G01*
X191425000Y-119125000D02*
X191425000Y-119675000D01*
G75*
G02*
X191225000Y-119875000I-200000J0D01*
G01*
X190825000Y-119875000D01*
G75*
G02*
X190625000Y-119675000I0J200000D01*
G01*
X190625000Y-119125000D01*
G75*
G02*
X190825000Y-118925000I200000J0D01*
G01*
X191225000Y-118925000D01*
G75*
G02*
X191425000Y-119125000I0J-200000D01*
G01*
G37*
G36*
G01*
X189775000Y-119125000D02*
X189775000Y-119675000D01*
G75*
G02*
X189575000Y-119875000I-200000J0D01*
G01*
X189175000Y-119875000D01*
G75*
G02*
X188975000Y-119675000I0J200000D01*
G01*
X188975000Y-119125000D01*
G75*
G02*
X189175000Y-118925000I200000J0D01*
G01*
X189575000Y-118925000D01*
G75*
G02*
X189775000Y-119125000I0J-200000D01*
G01*
G37*
%TD*%
%TO.C,R3*%
G36*
G01*
X186925000Y-118500000D02*
X187475000Y-118500000D01*
G75*
G02*
X187675000Y-118700000I0J-200000D01*
G01*
X187675000Y-119100000D01*
G75*
G02*
X187475000Y-119300000I-200000J0D01*
G01*
X186925000Y-119300000D01*
G75*
G02*
X186725000Y-119100000I0J200000D01*
G01*
X186725000Y-118700000D01*
G75*
G02*
X186925000Y-118500000I200000J0D01*
G01*
G37*
G36*
G01*
X186925000Y-116850000D02*
X187475000Y-116850000D01*
G75*
G02*
X187675000Y-117050000I0J-200000D01*
G01*
X187675000Y-117450000D01*
G75*
G02*
X187475000Y-117650000I-200000J0D01*
G01*
X186925000Y-117650000D01*
G75*
G02*
X186725000Y-117450000I0J200000D01*
G01*
X186725000Y-117050000D01*
G75*
G02*
X186925000Y-116850000I200000J0D01*
G01*
G37*
%TD*%
%TO.C,R4*%
G36*
G01*
X188200000Y-114725000D02*
X188200000Y-115275000D01*
G75*
G02*
X188000000Y-115475000I-200000J0D01*
G01*
X187600000Y-115475000D01*
G75*
G02*
X187400000Y-115275000I0J200000D01*
G01*
X187400000Y-114725000D01*
G75*
G02*
X187600000Y-114525000I200000J0D01*
G01*
X188000000Y-114525000D01*
G75*
G02*
X188200000Y-114725000I0J-200000D01*
G01*
G37*
G36*
G01*
X186550000Y-114725000D02*
X186550000Y-115275000D01*
G75*
G02*
X186350000Y-115475000I-200000J0D01*
G01*
X185950000Y-115475000D01*
G75*
G02*
X185750000Y-115275000I0J200000D01*
G01*
X185750000Y-114725000D01*
G75*
G02*
X185950000Y-114525000I200000J0D01*
G01*
X186350000Y-114525000D01*
G75*
G02*
X186550000Y-114725000I0J-200000D01*
G01*
G37*
%TD*%
%TO.C,R5*%
G36*
G01*
X169775000Y-128725000D02*
X169775000Y-129275000D01*
G75*
G02*
X169575000Y-129475000I-200000J0D01*
G01*
X169175000Y-129475000D01*
G75*
G02*
X168975000Y-129275000I0J200000D01*
G01*
X168975000Y-128725000D01*
G75*
G02*
X169175000Y-128525000I200000J0D01*
G01*
X169575000Y-128525000D01*
G75*
G02*
X169775000Y-128725000I0J-200000D01*
G01*
G37*
G36*
G01*
X171425000Y-128725000D02*
X171425000Y-129275000D01*
G75*
G02*
X171225000Y-129475000I-200000J0D01*
G01*
X170825000Y-129475000D01*
G75*
G02*
X170625000Y-129275000I0J200000D01*
G01*
X170625000Y-128725000D01*
G75*
G02*
X170825000Y-128525000I200000J0D01*
G01*
X171225000Y-128525000D01*
G75*
G02*
X171425000Y-128725000I0J-200000D01*
G01*
G37*
%TD*%
%TO.C,R6*%
G36*
G01*
X181520000Y-114485000D02*
X181520000Y-114115000D01*
G75*
G02*
X181655000Y-113980000I135000J0D01*
G01*
X181925000Y-113980000D01*
G75*
G02*
X182060000Y-114115000I0J-135000D01*
G01*
X182060000Y-114485000D01*
G75*
G02*
X181925000Y-114620000I-135000J0D01*
G01*
X181655000Y-114620000D01*
G75*
G02*
X181520000Y-114485000I0J135000D01*
G01*
G37*
G36*
G01*
X182540000Y-114485000D02*
X182540000Y-114115000D01*
G75*
G02*
X182675000Y-113980000I135000J0D01*
G01*
X182945000Y-113980000D01*
G75*
G02*
X183080000Y-114115000I0J-135000D01*
G01*
X183080000Y-114485000D01*
G75*
G02*
X182945000Y-114620000I-135000J0D01*
G01*
X182675000Y-114620000D01*
G75*
G02*
X182540000Y-114485000I0J135000D01*
G01*
G37*
%TD*%
D17*
%TO.C,U1*%
X194900000Y-112000000D03*
X194900000Y-110100000D03*
X192900000Y-111050000D03*
%TD*%
%TO.C,U2*%
G36*
G01*
X180225000Y-132450000D02*
X180075000Y-132450000D01*
G75*
G02*
X180000000Y-132375000I0J75000D01*
G01*
X180000000Y-131050000D01*
G75*
G02*
X180075000Y-130975000I75000J0D01*
G01*
X180225000Y-130975000D01*
G75*
G02*
X180300000Y-131050000I0J-75000D01*
G01*
X180300000Y-132375000D01*
G75*
G02*
X180225000Y-132450000I-75000J0D01*
G01*
G37*
G36*
G01*
X180725000Y-132450000D02*
X180575000Y-132450000D01*
G75*
G02*
X180500000Y-132375000I0J75000D01*
G01*
X180500000Y-131050000D01*
G75*
G02*
X180575000Y-130975000I75000J0D01*
G01*
X180725000Y-130975000D01*
G75*
G02*
X180800000Y-131050000I0J-75000D01*
G01*
X180800000Y-132375000D01*
G75*
G02*
X180725000Y-132450000I-75000J0D01*
G01*
G37*
G36*
G01*
X181225000Y-132450000D02*
X181075000Y-132450000D01*
G75*
G02*
X181000000Y-132375000I0J75000D01*
G01*
X181000000Y-131050000D01*
G75*
G02*
X181075000Y-130975000I75000J0D01*
G01*
X181225000Y-130975000D01*
G75*
G02*
X181300000Y-131050000I0J-75000D01*
G01*
X181300000Y-132375000D01*
G75*
G02*
X181225000Y-132450000I-75000J0D01*
G01*
G37*
G36*
G01*
X181725000Y-132450000D02*
X181575000Y-132450000D01*
G75*
G02*
X181500000Y-132375000I0J75000D01*
G01*
X181500000Y-131050000D01*
G75*
G02*
X181575000Y-130975000I75000J0D01*
G01*
X181725000Y-130975000D01*
G75*
G02*
X181800000Y-131050000I0J-75000D01*
G01*
X181800000Y-132375000D01*
G75*
G02*
X181725000Y-132450000I-75000J0D01*
G01*
G37*
G36*
G01*
X182225000Y-132450000D02*
X182075000Y-132450000D01*
G75*
G02*
X182000000Y-132375000I0J75000D01*
G01*
X182000000Y-131050000D01*
G75*
G02*
X182075000Y-130975000I75000J0D01*
G01*
X182225000Y-130975000D01*
G75*
G02*
X182300000Y-131050000I0J-75000D01*
G01*
X182300000Y-132375000D01*
G75*
G02*
X182225000Y-132450000I-75000J0D01*
G01*
G37*
G36*
G01*
X182725000Y-132450000D02*
X182575000Y-132450000D01*
G75*
G02*
X182500000Y-132375000I0J75000D01*
G01*
X182500000Y-131050000D01*
G75*
G02*
X182575000Y-130975000I75000J0D01*
G01*
X182725000Y-130975000D01*
G75*
G02*
X182800000Y-131050000I0J-75000D01*
G01*
X182800000Y-132375000D01*
G75*
G02*
X182725000Y-132450000I-75000J0D01*
G01*
G37*
G36*
G01*
X183225000Y-132450000D02*
X183075000Y-132450000D01*
G75*
G02*
X183000000Y-132375000I0J75000D01*
G01*
X183000000Y-131050000D01*
G75*
G02*
X183075000Y-130975000I75000J0D01*
G01*
X183225000Y-130975000D01*
G75*
G02*
X183300000Y-131050000I0J-75000D01*
G01*
X183300000Y-132375000D01*
G75*
G02*
X183225000Y-132450000I-75000J0D01*
G01*
G37*
G36*
G01*
X183725000Y-132450000D02*
X183575000Y-132450000D01*
G75*
G02*
X183500000Y-132375000I0J75000D01*
G01*
X183500000Y-131050000D01*
G75*
G02*
X183575000Y-130975000I75000J0D01*
G01*
X183725000Y-130975000D01*
G75*
G02*
X183800000Y-131050000I0J-75000D01*
G01*
X183800000Y-132375000D01*
G75*
G02*
X183725000Y-132450000I-75000J0D01*
G01*
G37*
G36*
G01*
X184225000Y-132450000D02*
X184075000Y-132450000D01*
G75*
G02*
X184000000Y-132375000I0J75000D01*
G01*
X184000000Y-131050000D01*
G75*
G02*
X184075000Y-130975000I75000J0D01*
G01*
X184225000Y-130975000D01*
G75*
G02*
X184300000Y-131050000I0J-75000D01*
G01*
X184300000Y-132375000D01*
G75*
G02*
X184225000Y-132450000I-75000J0D01*
G01*
G37*
G36*
G01*
X184725000Y-132450000D02*
X184575000Y-132450000D01*
G75*
G02*
X184500000Y-132375000I0J75000D01*
G01*
X184500000Y-131050000D01*
G75*
G02*
X184575000Y-130975000I75000J0D01*
G01*
X184725000Y-130975000D01*
G75*
G02*
X184800000Y-131050000I0J-75000D01*
G01*
X184800000Y-132375000D01*
G75*
G02*
X184725000Y-132450000I-75000J0D01*
G01*
G37*
G36*
G01*
X185225000Y-132450000D02*
X185075000Y-132450000D01*
G75*
G02*
X185000000Y-132375000I0J75000D01*
G01*
X185000000Y-131050000D01*
G75*
G02*
X185075000Y-130975000I75000J0D01*
G01*
X185225000Y-130975000D01*
G75*
G02*
X185300000Y-131050000I0J-75000D01*
G01*
X185300000Y-132375000D01*
G75*
G02*
X185225000Y-132450000I-75000J0D01*
G01*
G37*
G36*
G01*
X185725000Y-132450000D02*
X185575000Y-132450000D01*
G75*
G02*
X185500000Y-132375000I0J75000D01*
G01*
X185500000Y-131050000D01*
G75*
G02*
X185575000Y-130975000I75000J0D01*
G01*
X185725000Y-130975000D01*
G75*
G02*
X185800000Y-131050000I0J-75000D01*
G01*
X185800000Y-132375000D01*
G75*
G02*
X185725000Y-132450000I-75000J0D01*
G01*
G37*
G36*
G01*
X187725000Y-130450000D02*
X186400000Y-130450000D01*
G75*
G02*
X186325000Y-130375000I0J75000D01*
G01*
X186325000Y-130225000D01*
G75*
G02*
X186400000Y-130150000I75000J0D01*
G01*
X187725000Y-130150000D01*
G75*
G02*
X187800000Y-130225000I0J-75000D01*
G01*
X187800000Y-130375000D01*
G75*
G02*
X187725000Y-130450000I-75000J0D01*
G01*
G37*
G36*
G01*
X187725000Y-129950000D02*
X186400000Y-129950000D01*
G75*
G02*
X186325000Y-129875000I0J75000D01*
G01*
X186325000Y-129725000D01*
G75*
G02*
X186400000Y-129650000I75000J0D01*
G01*
X187725000Y-129650000D01*
G75*
G02*
X187800000Y-129725000I0J-75000D01*
G01*
X187800000Y-129875000D01*
G75*
G02*
X187725000Y-129950000I-75000J0D01*
G01*
G37*
G36*
G01*
X187725000Y-129450000D02*
X186400000Y-129450000D01*
G75*
G02*
X186325000Y-129375000I0J75000D01*
G01*
X186325000Y-129225000D01*
G75*
G02*
X186400000Y-129150000I75000J0D01*
G01*
X187725000Y-129150000D01*
G75*
G02*
X187800000Y-129225000I0J-75000D01*
G01*
X187800000Y-129375000D01*
G75*
G02*
X187725000Y-129450000I-75000J0D01*
G01*
G37*
G36*
G01*
X187725000Y-128950000D02*
X186400000Y-128950000D01*
G75*
G02*
X186325000Y-128875000I0J75000D01*
G01*
X186325000Y-128725000D01*
G75*
G02*
X186400000Y-128650000I75000J0D01*
G01*
X187725000Y-128650000D01*
G75*
G02*
X187800000Y-128725000I0J-75000D01*
G01*
X187800000Y-128875000D01*
G75*
G02*
X187725000Y-128950000I-75000J0D01*
G01*
G37*
G36*
G01*
X187725000Y-128450000D02*
X186400000Y-128450000D01*
G75*
G02*
X186325000Y-128375000I0J75000D01*
G01*
X186325000Y-128225000D01*
G75*
G02*
X186400000Y-128150000I75000J0D01*
G01*
X187725000Y-128150000D01*
G75*
G02*
X187800000Y-128225000I0J-75000D01*
G01*
X187800000Y-128375000D01*
G75*
G02*
X187725000Y-128450000I-75000J0D01*
G01*
G37*
G36*
G01*
X187725000Y-127950000D02*
X186400000Y-127950000D01*
G75*
G02*
X186325000Y-127875000I0J75000D01*
G01*
X186325000Y-127725000D01*
G75*
G02*
X186400000Y-127650000I75000J0D01*
G01*
X187725000Y-127650000D01*
G75*
G02*
X187800000Y-127725000I0J-75000D01*
G01*
X187800000Y-127875000D01*
G75*
G02*
X187725000Y-127950000I-75000J0D01*
G01*
G37*
G36*
G01*
X187725000Y-127450000D02*
X186400000Y-127450000D01*
G75*
G02*
X186325000Y-127375000I0J75000D01*
G01*
X186325000Y-127225000D01*
G75*
G02*
X186400000Y-127150000I75000J0D01*
G01*
X187725000Y-127150000D01*
G75*
G02*
X187800000Y-127225000I0J-75000D01*
G01*
X187800000Y-127375000D01*
G75*
G02*
X187725000Y-127450000I-75000J0D01*
G01*
G37*
G36*
G01*
X187725000Y-126950000D02*
X186400000Y-126950000D01*
G75*
G02*
X186325000Y-126875000I0J75000D01*
G01*
X186325000Y-126725000D01*
G75*
G02*
X186400000Y-126650000I75000J0D01*
G01*
X187725000Y-126650000D01*
G75*
G02*
X187800000Y-126725000I0J-75000D01*
G01*
X187800000Y-126875000D01*
G75*
G02*
X187725000Y-126950000I-75000J0D01*
G01*
G37*
G36*
G01*
X187725000Y-126450000D02*
X186400000Y-126450000D01*
G75*
G02*
X186325000Y-126375000I0J75000D01*
G01*
X186325000Y-126225000D01*
G75*
G02*
X186400000Y-126150000I75000J0D01*
G01*
X187725000Y-126150000D01*
G75*
G02*
X187800000Y-126225000I0J-75000D01*
G01*
X187800000Y-126375000D01*
G75*
G02*
X187725000Y-126450000I-75000J0D01*
G01*
G37*
G36*
G01*
X187725000Y-125950000D02*
X186400000Y-125950000D01*
G75*
G02*
X186325000Y-125875000I0J75000D01*
G01*
X186325000Y-125725000D01*
G75*
G02*
X186400000Y-125650000I75000J0D01*
G01*
X187725000Y-125650000D01*
G75*
G02*
X187800000Y-125725000I0J-75000D01*
G01*
X187800000Y-125875000D01*
G75*
G02*
X187725000Y-125950000I-75000J0D01*
G01*
G37*
G36*
G01*
X187725000Y-125450000D02*
X186400000Y-125450000D01*
G75*
G02*
X186325000Y-125375000I0J75000D01*
G01*
X186325000Y-125225000D01*
G75*
G02*
X186400000Y-125150000I75000J0D01*
G01*
X187725000Y-125150000D01*
G75*
G02*
X187800000Y-125225000I0J-75000D01*
G01*
X187800000Y-125375000D01*
G75*
G02*
X187725000Y-125450000I-75000J0D01*
G01*
G37*
G36*
G01*
X187725000Y-124950000D02*
X186400000Y-124950000D01*
G75*
G02*
X186325000Y-124875000I0J75000D01*
G01*
X186325000Y-124725000D01*
G75*
G02*
X186400000Y-124650000I75000J0D01*
G01*
X187725000Y-124650000D01*
G75*
G02*
X187800000Y-124725000I0J-75000D01*
G01*
X187800000Y-124875000D01*
G75*
G02*
X187725000Y-124950000I-75000J0D01*
G01*
G37*
G36*
G01*
X185725000Y-124125000D02*
X185575000Y-124125000D01*
G75*
G02*
X185500000Y-124050000I0J75000D01*
G01*
X185500000Y-122725000D01*
G75*
G02*
X185575000Y-122650000I75000J0D01*
G01*
X185725000Y-122650000D01*
G75*
G02*
X185800000Y-122725000I0J-75000D01*
G01*
X185800000Y-124050000D01*
G75*
G02*
X185725000Y-124125000I-75000J0D01*
G01*
G37*
G36*
G01*
X185225000Y-124125000D02*
X185075000Y-124125000D01*
G75*
G02*
X185000000Y-124050000I0J75000D01*
G01*
X185000000Y-122725000D01*
G75*
G02*
X185075000Y-122650000I75000J0D01*
G01*
X185225000Y-122650000D01*
G75*
G02*
X185300000Y-122725000I0J-75000D01*
G01*
X185300000Y-124050000D01*
G75*
G02*
X185225000Y-124125000I-75000J0D01*
G01*
G37*
G36*
G01*
X184725000Y-124125000D02*
X184575000Y-124125000D01*
G75*
G02*
X184500000Y-124050000I0J75000D01*
G01*
X184500000Y-122725000D01*
G75*
G02*
X184575000Y-122650000I75000J0D01*
G01*
X184725000Y-122650000D01*
G75*
G02*
X184800000Y-122725000I0J-75000D01*
G01*
X184800000Y-124050000D01*
G75*
G02*
X184725000Y-124125000I-75000J0D01*
G01*
G37*
G36*
G01*
X184225000Y-124125000D02*
X184075000Y-124125000D01*
G75*
G02*
X184000000Y-124050000I0J75000D01*
G01*
X184000000Y-122725000D01*
G75*
G02*
X184075000Y-122650000I75000J0D01*
G01*
X184225000Y-122650000D01*
G75*
G02*
X184300000Y-122725000I0J-75000D01*
G01*
X184300000Y-124050000D01*
G75*
G02*
X184225000Y-124125000I-75000J0D01*
G01*
G37*
G36*
G01*
X183725000Y-124125000D02*
X183575000Y-124125000D01*
G75*
G02*
X183500000Y-124050000I0J75000D01*
G01*
X183500000Y-122725000D01*
G75*
G02*
X183575000Y-122650000I75000J0D01*
G01*
X183725000Y-122650000D01*
G75*
G02*
X183800000Y-122725000I0J-75000D01*
G01*
X183800000Y-124050000D01*
G75*
G02*
X183725000Y-124125000I-75000J0D01*
G01*
G37*
G36*
G01*
X183225000Y-124125000D02*
X183075000Y-124125000D01*
G75*
G02*
X183000000Y-124050000I0J75000D01*
G01*
X183000000Y-122725000D01*
G75*
G02*
X183075000Y-122650000I75000J0D01*
G01*
X183225000Y-122650000D01*
G75*
G02*
X183300000Y-122725000I0J-75000D01*
G01*
X183300000Y-124050000D01*
G75*
G02*
X183225000Y-124125000I-75000J0D01*
G01*
G37*
G36*
G01*
X182725000Y-124125000D02*
X182575000Y-124125000D01*
G75*
G02*
X182500000Y-124050000I0J75000D01*
G01*
X182500000Y-122725000D01*
G75*
G02*
X182575000Y-122650000I75000J0D01*
G01*
X182725000Y-122650000D01*
G75*
G02*
X182800000Y-122725000I0J-75000D01*
G01*
X182800000Y-124050000D01*
G75*
G02*
X182725000Y-124125000I-75000J0D01*
G01*
G37*
G36*
G01*
X182225000Y-124125000D02*
X182075000Y-124125000D01*
G75*
G02*
X182000000Y-124050000I0J75000D01*
G01*
X182000000Y-122725000D01*
G75*
G02*
X182075000Y-122650000I75000J0D01*
G01*
X182225000Y-122650000D01*
G75*
G02*
X182300000Y-122725000I0J-75000D01*
G01*
X182300000Y-124050000D01*
G75*
G02*
X182225000Y-124125000I-75000J0D01*
G01*
G37*
G36*
G01*
X181725000Y-124125000D02*
X181575000Y-124125000D01*
G75*
G02*
X181500000Y-124050000I0J75000D01*
G01*
X181500000Y-122725000D01*
G75*
G02*
X181575000Y-122650000I75000J0D01*
G01*
X181725000Y-122650000D01*
G75*
G02*
X181800000Y-122725000I0J-75000D01*
G01*
X181800000Y-124050000D01*
G75*
G02*
X181725000Y-124125000I-75000J0D01*
G01*
G37*
G36*
G01*
X181225000Y-124125000D02*
X181075000Y-124125000D01*
G75*
G02*
X181000000Y-124050000I0J75000D01*
G01*
X181000000Y-122725000D01*
G75*
G02*
X181075000Y-122650000I75000J0D01*
G01*
X181225000Y-122650000D01*
G75*
G02*
X181300000Y-122725000I0J-75000D01*
G01*
X181300000Y-124050000D01*
G75*
G02*
X181225000Y-124125000I-75000J0D01*
G01*
G37*
G36*
G01*
X180725000Y-124125000D02*
X180575000Y-124125000D01*
G75*
G02*
X180500000Y-124050000I0J75000D01*
G01*
X180500000Y-122725000D01*
G75*
G02*
X180575000Y-122650000I75000J0D01*
G01*
X180725000Y-122650000D01*
G75*
G02*
X180800000Y-122725000I0J-75000D01*
G01*
X180800000Y-124050000D01*
G75*
G02*
X180725000Y-124125000I-75000J0D01*
G01*
G37*
G36*
G01*
X180225000Y-124125000D02*
X180075000Y-124125000D01*
G75*
G02*
X180000000Y-124050000I0J75000D01*
G01*
X180000000Y-122725000D01*
G75*
G02*
X180075000Y-122650000I75000J0D01*
G01*
X180225000Y-122650000D01*
G75*
G02*
X180300000Y-122725000I0J-75000D01*
G01*
X180300000Y-124050000D01*
G75*
G02*
X180225000Y-124125000I-75000J0D01*
G01*
G37*
G36*
G01*
X179400000Y-124950000D02*
X178075000Y-124950000D01*
G75*
G02*
X178000000Y-124875000I0J75000D01*
G01*
X178000000Y-124725000D01*
G75*
G02*
X178075000Y-124650000I75000J0D01*
G01*
X179400000Y-124650000D01*
G75*
G02*
X179475000Y-124725000I0J-75000D01*
G01*
X179475000Y-124875000D01*
G75*
G02*
X179400000Y-124950000I-75000J0D01*
G01*
G37*
G36*
G01*
X179400000Y-125450000D02*
X178075000Y-125450000D01*
G75*
G02*
X178000000Y-125375000I0J75000D01*
G01*
X178000000Y-125225000D01*
G75*
G02*
X178075000Y-125150000I75000J0D01*
G01*
X179400000Y-125150000D01*
G75*
G02*
X179475000Y-125225000I0J-75000D01*
G01*
X179475000Y-125375000D01*
G75*
G02*
X179400000Y-125450000I-75000J0D01*
G01*
G37*
G36*
G01*
X179400000Y-125950000D02*
X178075000Y-125950000D01*
G75*
G02*
X178000000Y-125875000I0J75000D01*
G01*
X178000000Y-125725000D01*
G75*
G02*
X178075000Y-125650000I75000J0D01*
G01*
X179400000Y-125650000D01*
G75*
G02*
X179475000Y-125725000I0J-75000D01*
G01*
X179475000Y-125875000D01*
G75*
G02*
X179400000Y-125950000I-75000J0D01*
G01*
G37*
G36*
G01*
X179400000Y-126450000D02*
X178075000Y-126450000D01*
G75*
G02*
X178000000Y-126375000I0J75000D01*
G01*
X178000000Y-126225000D01*
G75*
G02*
X178075000Y-126150000I75000J0D01*
G01*
X179400000Y-126150000D01*
G75*
G02*
X179475000Y-126225000I0J-75000D01*
G01*
X179475000Y-126375000D01*
G75*
G02*
X179400000Y-126450000I-75000J0D01*
G01*
G37*
G36*
G01*
X179400000Y-126950000D02*
X178075000Y-126950000D01*
G75*
G02*
X178000000Y-126875000I0J75000D01*
G01*
X178000000Y-126725000D01*
G75*
G02*
X178075000Y-126650000I75000J0D01*
G01*
X179400000Y-126650000D01*
G75*
G02*
X179475000Y-126725000I0J-75000D01*
G01*
X179475000Y-126875000D01*
G75*
G02*
X179400000Y-126950000I-75000J0D01*
G01*
G37*
G36*
G01*
X179400000Y-127450000D02*
X178075000Y-127450000D01*
G75*
G02*
X178000000Y-127375000I0J75000D01*
G01*
X178000000Y-127225000D01*
G75*
G02*
X178075000Y-127150000I75000J0D01*
G01*
X179400000Y-127150000D01*
G75*
G02*
X179475000Y-127225000I0J-75000D01*
G01*
X179475000Y-127375000D01*
G75*
G02*
X179400000Y-127450000I-75000J0D01*
G01*
G37*
G36*
G01*
X179400000Y-127950000D02*
X178075000Y-127950000D01*
G75*
G02*
X178000000Y-127875000I0J75000D01*
G01*
X178000000Y-127725000D01*
G75*
G02*
X178075000Y-127650000I75000J0D01*
G01*
X179400000Y-127650000D01*
G75*
G02*
X179475000Y-127725000I0J-75000D01*
G01*
X179475000Y-127875000D01*
G75*
G02*
X179400000Y-127950000I-75000J0D01*
G01*
G37*
G36*
G01*
X179400000Y-128450000D02*
X178075000Y-128450000D01*
G75*
G02*
X178000000Y-128375000I0J75000D01*
G01*
X178000000Y-128225000D01*
G75*
G02*
X178075000Y-128150000I75000J0D01*
G01*
X179400000Y-128150000D01*
G75*
G02*
X179475000Y-128225000I0J-75000D01*
G01*
X179475000Y-128375000D01*
G75*
G02*
X179400000Y-128450000I-75000J0D01*
G01*
G37*
G36*
G01*
X179400000Y-128950000D02*
X178075000Y-128950000D01*
G75*
G02*
X178000000Y-128875000I0J75000D01*
G01*
X178000000Y-128725000D01*
G75*
G02*
X178075000Y-128650000I75000J0D01*
G01*
X179400000Y-128650000D01*
G75*
G02*
X179475000Y-128725000I0J-75000D01*
G01*
X179475000Y-128875000D01*
G75*
G02*
X179400000Y-128950000I-75000J0D01*
G01*
G37*
G36*
G01*
X179400000Y-129450000D02*
X178075000Y-129450000D01*
G75*
G02*
X178000000Y-129375000I0J75000D01*
G01*
X178000000Y-129225000D01*
G75*
G02*
X178075000Y-129150000I75000J0D01*
G01*
X179400000Y-129150000D01*
G75*
G02*
X179475000Y-129225000I0J-75000D01*
G01*
X179475000Y-129375000D01*
G75*
G02*
X179400000Y-129450000I-75000J0D01*
G01*
G37*
G36*
G01*
X179400000Y-129950000D02*
X178075000Y-129950000D01*
G75*
G02*
X178000000Y-129875000I0J75000D01*
G01*
X178000000Y-129725000D01*
G75*
G02*
X178075000Y-129650000I75000J0D01*
G01*
X179400000Y-129650000D01*
G75*
G02*
X179475000Y-129725000I0J-75000D01*
G01*
X179475000Y-129875000D01*
G75*
G02*
X179400000Y-129950000I-75000J0D01*
G01*
G37*
G36*
G01*
X179400000Y-130450000D02*
X178075000Y-130450000D01*
G75*
G02*
X178000000Y-130375000I0J75000D01*
G01*
X178000000Y-130225000D01*
G75*
G02*
X178075000Y-130150000I75000J0D01*
G01*
X179400000Y-130150000D01*
G75*
G02*
X179475000Y-130225000I0J-75000D01*
G01*
X179475000Y-130375000D01*
G75*
G02*
X179400000Y-130450000I-75000J0D01*
G01*
G37*
%TD*%
D18*
%TO.C,Y1*%
X181050000Y-139800000D03*
X184750000Y-139800000D03*
%TD*%
M02*
