%TF.GenerationSoftware,KiCad,Pcbnew,(5.1.12)-1*%
%TF.CreationDate,2021-12-29T23:54:55+01:00*%
%TF.ProjectId,STM32_Devkit,53544d33-325f-4446-9576-6b69742e6b69,rev?*%
%TF.SameCoordinates,Original*%
%TF.FileFunction,Copper,L2,Bot*%
%TF.FilePolarity,Positive*%
%FSLAX46Y46*%
G04 Gerber Fmt 4.6, Leading zero omitted, Abs format (unit mm)*
G04 Created by KiCad (PCBNEW (5.1.12)-1) date 2021-12-29 23:54:55*
%MOMM*%
%LPD*%
G01*
G04 APERTURE LIST*
%TA.AperFunction,ComponentPad*%
%ADD10O,1.450000X2.000000*%
%TD*%
%TA.AperFunction,ComponentPad*%
%ADD11O,1.150000X1.800000*%
%TD*%
%TA.AperFunction,ComponentPad*%
%ADD12O,1.700000X1.700000*%
%TD*%
%TA.AperFunction,ComponentPad*%
%ADD13R,1.700000X1.700000*%
%TD*%
%TA.AperFunction,ViaPad*%
%ADD14C,0.800000*%
%TD*%
%TA.AperFunction,Conductor*%
%ADD15C,0.254000*%
%TD*%
%TA.AperFunction,Conductor*%
%ADD16C,0.100000*%
%TD*%
G04 APERTURE END LIST*
D10*
%TO.P,J1,6*%
%TO.N,Net-(J1-Pad6)*%
X186725000Y-110600000D03*
X179275000Y-110600000D03*
D11*
X186875000Y-106800000D03*
X179125000Y-106800000D03*
%TD*%
D12*
%TO.P,J2,15*%
%TO.N,PC15*%
X163750000Y-145060000D03*
%TO.P,J2,14*%
%TO.N,PC14*%
X163750000Y-142520000D03*
%TO.P,J2,13*%
%TO.N,PC13*%
X163750000Y-139980000D03*
%TO.P,J2,12*%
%TO.N,PB9*%
X163750000Y-137440000D03*
%TO.P,J2,11*%
%TO.N,PB8*%
X163750000Y-134900000D03*
%TO.P,J2,10*%
%TO.N,PB7*%
X163750000Y-132360000D03*
%TO.P,J2,9*%
%TO.N,PB6*%
X163750000Y-129820000D03*
%TO.P,J2,8*%
%TO.N,PB5*%
X163750000Y-127280000D03*
%TO.P,J2,7*%
%TO.N,PB4*%
X163750000Y-124740000D03*
%TO.P,J2,6*%
%TO.N,SWO*%
X163750000Y-122200000D03*
%TO.P,J2,5*%
%TO.N,PA15*%
X163750000Y-119660000D03*
%TO.P,J2,4*%
%TO.N,SWCLK*%
X163750000Y-117120000D03*
%TO.P,J2,3*%
%TO.N,SWDIO*%
X163750000Y-114580000D03*
%TO.P,J2,2*%
%TO.N,GND*%
X163750000Y-112040000D03*
D13*
%TO.P,J2,1*%
%TO.N,+3V3*%
X163750000Y-109500000D03*
%TD*%
%TO.P,J3,1*%
%TO.N,+3V3*%
X202250000Y-109500000D03*
D12*
%TO.P,J3,2*%
%TO.N,GND*%
X202250000Y-112040000D03*
%TO.P,J3,3*%
%TO.N,PB15*%
X202250000Y-114580000D03*
%TO.P,J3,4*%
%TO.N,PB14*%
X202250000Y-117120000D03*
%TO.P,J3,5*%
%TO.N,PB11*%
X202250000Y-119660000D03*
%TO.P,J3,6*%
%TO.N,PB10*%
X202250000Y-122200000D03*
%TO.P,J3,7*%
%TO.N,PB2*%
X202250000Y-124740000D03*
%TO.P,J3,8*%
%TO.N,PB1*%
X202250000Y-127280000D03*
%TO.P,J3,9*%
%TO.N,PB0*%
X202250000Y-129820000D03*
%TO.P,J3,10*%
%TO.N,PA5*%
X202250000Y-132360000D03*
%TO.P,J3,11*%
%TO.N,PA4*%
X202250000Y-134900000D03*
%TO.P,J3,12*%
%TO.N,PA3*%
X202250000Y-137440000D03*
%TO.P,J3,13*%
%TO.N,PA0*%
X202250000Y-139980000D03*
%TO.P,J3,14*%
%TO.N,GND*%
X202250000Y-142520000D03*
%TO.P,J3,15*%
X202250000Y-145060000D03*
%TD*%
D13*
%TO.P,JP1,1*%
%TO.N,+3V3*%
X170600000Y-109400000D03*
D12*
%TO.P,JP1,2*%
%TO.N,/BOOT0*%
X173140000Y-109400000D03*
%TD*%
D14*
%TO.N,GND*%
X195700000Y-122500000D03*
X181350000Y-117650000D03*
X183400000Y-133150000D03*
X187650000Y-140400000D03*
X178900000Y-138600000D03*
X178050000Y-134150000D03*
X176800000Y-132300000D03*
X168500000Y-130000000D03*
X196200000Y-113000000D03*
X196000000Y-107000000D03*
X181700000Y-111750000D03*
X173800000Y-131500000D03*
X181700000Y-109500000D03*
%TD*%
D15*
%TO.N,GND*%
X164865717Y-105675088D02*
X164966353Y-105685000D01*
X178208029Y-105685000D01*
X178114055Y-105799508D01*
X178001697Y-106009713D01*
X177932508Y-106237799D01*
X177915000Y-106415563D01*
X177915000Y-107184436D01*
X177932508Y-107362200D01*
X178001697Y-107590286D01*
X178114054Y-107800491D01*
X178265261Y-107984739D01*
X178449508Y-108135946D01*
X178659713Y-108248303D01*
X178887799Y-108317492D01*
X179125000Y-108340854D01*
X179362200Y-108317492D01*
X179590286Y-108248303D01*
X179800491Y-108135946D01*
X179984739Y-107984739D01*
X180135946Y-107800492D01*
X180248303Y-107590287D01*
X180317492Y-107362201D01*
X180335000Y-107184437D01*
X180335000Y-106415564D01*
X180317492Y-106237800D01*
X180248303Y-106009713D01*
X180135946Y-105799508D01*
X180041972Y-105685000D01*
X185958029Y-105685000D01*
X185864055Y-105799508D01*
X185751697Y-106009713D01*
X185682508Y-106237799D01*
X185665000Y-106415563D01*
X185665000Y-107184436D01*
X185682508Y-107362200D01*
X185751697Y-107590286D01*
X185864054Y-107800491D01*
X186015261Y-107984739D01*
X186199508Y-108135946D01*
X186409713Y-108248303D01*
X186637799Y-108317492D01*
X186875000Y-108340854D01*
X187112200Y-108317492D01*
X187340286Y-108248303D01*
X187550491Y-108135946D01*
X187734739Y-107984739D01*
X187885946Y-107800492D01*
X187998303Y-107590287D01*
X188067492Y-107362201D01*
X188085000Y-107184437D01*
X188085000Y-106415564D01*
X188067492Y-106237800D01*
X187998303Y-106009713D01*
X187885946Y-105799508D01*
X187791972Y-105685000D01*
X201033647Y-105685000D01*
X201134283Y-105675088D01*
X201135507Y-105674717D01*
X201768083Y-105731173D01*
X202511891Y-105934656D01*
X203207905Y-106266638D01*
X203834130Y-106716626D01*
X204370777Y-107270403D01*
X204800871Y-107910451D01*
X205110829Y-108616553D01*
X205292065Y-109371457D01*
X205327689Y-109856563D01*
X205324912Y-109865718D01*
X205315000Y-109966354D01*
X205315001Y-145033647D01*
X205324913Y-145134283D01*
X205325283Y-145135504D01*
X205268827Y-145768083D01*
X205065344Y-146511890D01*
X204733363Y-147207904D01*
X204283374Y-147834130D01*
X203729597Y-148370777D01*
X203089549Y-148800871D01*
X202383447Y-149110829D01*
X201628543Y-149292065D01*
X201143438Y-149327689D01*
X201134283Y-149324912D01*
X201033647Y-149315000D01*
X164966353Y-149315000D01*
X164865717Y-149324912D01*
X164864493Y-149325283D01*
X164231917Y-149268827D01*
X163488110Y-149065344D01*
X162792096Y-148733363D01*
X162165870Y-148283374D01*
X161629223Y-147729597D01*
X161199129Y-147089549D01*
X160889171Y-146383447D01*
X160707935Y-145628543D01*
X160672311Y-145143438D01*
X160675088Y-145134283D01*
X160685000Y-145033647D01*
X160685000Y-114433740D01*
X162265000Y-114433740D01*
X162265000Y-114726260D01*
X162322068Y-115013158D01*
X162434010Y-115283411D01*
X162596525Y-115526632D01*
X162803368Y-115733475D01*
X162977760Y-115850000D01*
X162803368Y-115966525D01*
X162596525Y-116173368D01*
X162434010Y-116416589D01*
X162322068Y-116686842D01*
X162265000Y-116973740D01*
X162265000Y-117266260D01*
X162322068Y-117553158D01*
X162434010Y-117823411D01*
X162596525Y-118066632D01*
X162803368Y-118273475D01*
X162977760Y-118390000D01*
X162803368Y-118506525D01*
X162596525Y-118713368D01*
X162434010Y-118956589D01*
X162322068Y-119226842D01*
X162265000Y-119513740D01*
X162265000Y-119806260D01*
X162322068Y-120093158D01*
X162434010Y-120363411D01*
X162596525Y-120606632D01*
X162803368Y-120813475D01*
X162977760Y-120930000D01*
X162803368Y-121046525D01*
X162596525Y-121253368D01*
X162434010Y-121496589D01*
X162322068Y-121766842D01*
X162265000Y-122053740D01*
X162265000Y-122346260D01*
X162322068Y-122633158D01*
X162434010Y-122903411D01*
X162596525Y-123146632D01*
X162803368Y-123353475D01*
X162977760Y-123470000D01*
X162803368Y-123586525D01*
X162596525Y-123793368D01*
X162434010Y-124036589D01*
X162322068Y-124306842D01*
X162265000Y-124593740D01*
X162265000Y-124886260D01*
X162322068Y-125173158D01*
X162434010Y-125443411D01*
X162596525Y-125686632D01*
X162803368Y-125893475D01*
X162977760Y-126010000D01*
X162803368Y-126126525D01*
X162596525Y-126333368D01*
X162434010Y-126576589D01*
X162322068Y-126846842D01*
X162265000Y-127133740D01*
X162265000Y-127426260D01*
X162322068Y-127713158D01*
X162434010Y-127983411D01*
X162596525Y-128226632D01*
X162803368Y-128433475D01*
X162977760Y-128550000D01*
X162803368Y-128666525D01*
X162596525Y-128873368D01*
X162434010Y-129116589D01*
X162322068Y-129386842D01*
X162265000Y-129673740D01*
X162265000Y-129966260D01*
X162322068Y-130253158D01*
X162434010Y-130523411D01*
X162596525Y-130766632D01*
X162803368Y-130973475D01*
X162977760Y-131090000D01*
X162803368Y-131206525D01*
X162596525Y-131413368D01*
X162434010Y-131656589D01*
X162322068Y-131926842D01*
X162265000Y-132213740D01*
X162265000Y-132506260D01*
X162322068Y-132793158D01*
X162434010Y-133063411D01*
X162596525Y-133306632D01*
X162803368Y-133513475D01*
X162977760Y-133630000D01*
X162803368Y-133746525D01*
X162596525Y-133953368D01*
X162434010Y-134196589D01*
X162322068Y-134466842D01*
X162265000Y-134753740D01*
X162265000Y-135046260D01*
X162322068Y-135333158D01*
X162434010Y-135603411D01*
X162596525Y-135846632D01*
X162803368Y-136053475D01*
X162977760Y-136170000D01*
X162803368Y-136286525D01*
X162596525Y-136493368D01*
X162434010Y-136736589D01*
X162322068Y-137006842D01*
X162265000Y-137293740D01*
X162265000Y-137586260D01*
X162322068Y-137873158D01*
X162434010Y-138143411D01*
X162596525Y-138386632D01*
X162803368Y-138593475D01*
X162977760Y-138710000D01*
X162803368Y-138826525D01*
X162596525Y-139033368D01*
X162434010Y-139276589D01*
X162322068Y-139546842D01*
X162265000Y-139833740D01*
X162265000Y-140126260D01*
X162322068Y-140413158D01*
X162434010Y-140683411D01*
X162596525Y-140926632D01*
X162803368Y-141133475D01*
X162977760Y-141250000D01*
X162803368Y-141366525D01*
X162596525Y-141573368D01*
X162434010Y-141816589D01*
X162322068Y-142086842D01*
X162265000Y-142373740D01*
X162265000Y-142666260D01*
X162322068Y-142953158D01*
X162434010Y-143223411D01*
X162596525Y-143466632D01*
X162803368Y-143673475D01*
X162977760Y-143790000D01*
X162803368Y-143906525D01*
X162596525Y-144113368D01*
X162434010Y-144356589D01*
X162322068Y-144626842D01*
X162265000Y-144913740D01*
X162265000Y-145206260D01*
X162322068Y-145493158D01*
X162434010Y-145763411D01*
X162596525Y-146006632D01*
X162803368Y-146213475D01*
X163046589Y-146375990D01*
X163316842Y-146487932D01*
X163603740Y-146545000D01*
X163896260Y-146545000D01*
X164183158Y-146487932D01*
X164453411Y-146375990D01*
X164696632Y-146213475D01*
X164903475Y-146006632D01*
X165065990Y-145763411D01*
X165177932Y-145493158D01*
X165193102Y-145416890D01*
X200808524Y-145416890D01*
X200853175Y-145564099D01*
X200978359Y-145826920D01*
X201152412Y-146060269D01*
X201368645Y-146255178D01*
X201618748Y-146404157D01*
X201893109Y-146501481D01*
X202123000Y-146380814D01*
X202123000Y-145187000D01*
X202377000Y-145187000D01*
X202377000Y-146380814D01*
X202606891Y-146501481D01*
X202881252Y-146404157D01*
X203131355Y-146255178D01*
X203347588Y-146060269D01*
X203521641Y-145826920D01*
X203646825Y-145564099D01*
X203691476Y-145416890D01*
X203570155Y-145187000D01*
X202377000Y-145187000D01*
X202123000Y-145187000D01*
X200929845Y-145187000D01*
X200808524Y-145416890D01*
X165193102Y-145416890D01*
X165235000Y-145206260D01*
X165235000Y-144913740D01*
X165177932Y-144626842D01*
X165065990Y-144356589D01*
X164903475Y-144113368D01*
X164696632Y-143906525D01*
X164522240Y-143790000D01*
X164696632Y-143673475D01*
X164903475Y-143466632D01*
X165065990Y-143223411D01*
X165177932Y-142953158D01*
X165193102Y-142876890D01*
X200808524Y-142876890D01*
X200853175Y-143024099D01*
X200978359Y-143286920D01*
X201152412Y-143520269D01*
X201368645Y-143715178D01*
X201494255Y-143790000D01*
X201368645Y-143864822D01*
X201152412Y-144059731D01*
X200978359Y-144293080D01*
X200853175Y-144555901D01*
X200808524Y-144703110D01*
X200929845Y-144933000D01*
X202123000Y-144933000D01*
X202123000Y-142647000D01*
X202377000Y-142647000D01*
X202377000Y-144933000D01*
X203570155Y-144933000D01*
X203691476Y-144703110D01*
X203646825Y-144555901D01*
X203521641Y-144293080D01*
X203347588Y-144059731D01*
X203131355Y-143864822D01*
X203005745Y-143790000D01*
X203131355Y-143715178D01*
X203347588Y-143520269D01*
X203521641Y-143286920D01*
X203646825Y-143024099D01*
X203691476Y-142876890D01*
X203570155Y-142647000D01*
X202377000Y-142647000D01*
X202123000Y-142647000D01*
X200929845Y-142647000D01*
X200808524Y-142876890D01*
X165193102Y-142876890D01*
X165235000Y-142666260D01*
X165235000Y-142373740D01*
X165177932Y-142086842D01*
X165065990Y-141816589D01*
X164903475Y-141573368D01*
X164696632Y-141366525D01*
X164522240Y-141250000D01*
X164696632Y-141133475D01*
X164903475Y-140926632D01*
X165065990Y-140683411D01*
X165177932Y-140413158D01*
X165235000Y-140126260D01*
X165235000Y-139833740D01*
X165177932Y-139546842D01*
X165065990Y-139276589D01*
X164903475Y-139033368D01*
X164696632Y-138826525D01*
X164522240Y-138710000D01*
X164696632Y-138593475D01*
X164903475Y-138386632D01*
X165065990Y-138143411D01*
X165177932Y-137873158D01*
X165235000Y-137586260D01*
X165235000Y-137293740D01*
X165177932Y-137006842D01*
X165065990Y-136736589D01*
X164903475Y-136493368D01*
X164696632Y-136286525D01*
X164522240Y-136170000D01*
X164696632Y-136053475D01*
X164903475Y-135846632D01*
X165065990Y-135603411D01*
X165177932Y-135333158D01*
X165235000Y-135046260D01*
X165235000Y-134753740D01*
X165177932Y-134466842D01*
X165065990Y-134196589D01*
X164903475Y-133953368D01*
X164696632Y-133746525D01*
X164522240Y-133630000D01*
X164696632Y-133513475D01*
X164903475Y-133306632D01*
X165065990Y-133063411D01*
X165177932Y-132793158D01*
X165235000Y-132506260D01*
X165235000Y-132213740D01*
X165177932Y-131926842D01*
X165065990Y-131656589D01*
X164903475Y-131413368D01*
X164696632Y-131206525D01*
X164522240Y-131090000D01*
X164696632Y-130973475D01*
X164903475Y-130766632D01*
X165065990Y-130523411D01*
X165177932Y-130253158D01*
X165235000Y-129966260D01*
X165235000Y-129673740D01*
X165177932Y-129386842D01*
X165065990Y-129116589D01*
X164903475Y-128873368D01*
X164696632Y-128666525D01*
X164522240Y-128550000D01*
X164696632Y-128433475D01*
X164903475Y-128226632D01*
X165065990Y-127983411D01*
X165177932Y-127713158D01*
X165235000Y-127426260D01*
X165235000Y-127133740D01*
X165177932Y-126846842D01*
X165065990Y-126576589D01*
X164903475Y-126333368D01*
X164696632Y-126126525D01*
X164522240Y-126010000D01*
X164696632Y-125893475D01*
X164903475Y-125686632D01*
X165065990Y-125443411D01*
X165177932Y-125173158D01*
X165235000Y-124886260D01*
X165235000Y-124593740D01*
X165177932Y-124306842D01*
X165065990Y-124036589D01*
X164903475Y-123793368D01*
X164696632Y-123586525D01*
X164522240Y-123470000D01*
X164696632Y-123353475D01*
X164903475Y-123146632D01*
X165065990Y-122903411D01*
X165177932Y-122633158D01*
X165235000Y-122346260D01*
X165235000Y-122053740D01*
X165177932Y-121766842D01*
X165065990Y-121496589D01*
X164903475Y-121253368D01*
X164696632Y-121046525D01*
X164522240Y-120930000D01*
X164696632Y-120813475D01*
X164903475Y-120606632D01*
X165065990Y-120363411D01*
X165177932Y-120093158D01*
X165235000Y-119806260D01*
X165235000Y-119513740D01*
X165177932Y-119226842D01*
X165065990Y-118956589D01*
X164903475Y-118713368D01*
X164696632Y-118506525D01*
X164522240Y-118390000D01*
X164696632Y-118273475D01*
X164903475Y-118066632D01*
X165065990Y-117823411D01*
X165177932Y-117553158D01*
X165235000Y-117266260D01*
X165235000Y-116973740D01*
X165177932Y-116686842D01*
X165065990Y-116416589D01*
X164903475Y-116173368D01*
X164696632Y-115966525D01*
X164522240Y-115850000D01*
X164696632Y-115733475D01*
X164903475Y-115526632D01*
X165065990Y-115283411D01*
X165177932Y-115013158D01*
X165235000Y-114726260D01*
X165235000Y-114433740D01*
X200765000Y-114433740D01*
X200765000Y-114726260D01*
X200822068Y-115013158D01*
X200934010Y-115283411D01*
X201096525Y-115526632D01*
X201303368Y-115733475D01*
X201477760Y-115850000D01*
X201303368Y-115966525D01*
X201096525Y-116173368D01*
X200934010Y-116416589D01*
X200822068Y-116686842D01*
X200765000Y-116973740D01*
X200765000Y-117266260D01*
X200822068Y-117553158D01*
X200934010Y-117823411D01*
X201096525Y-118066632D01*
X201303368Y-118273475D01*
X201477760Y-118390000D01*
X201303368Y-118506525D01*
X201096525Y-118713368D01*
X200934010Y-118956589D01*
X200822068Y-119226842D01*
X200765000Y-119513740D01*
X200765000Y-119806260D01*
X200822068Y-120093158D01*
X200934010Y-120363411D01*
X201096525Y-120606632D01*
X201303368Y-120813475D01*
X201477760Y-120930000D01*
X201303368Y-121046525D01*
X201096525Y-121253368D01*
X200934010Y-121496589D01*
X200822068Y-121766842D01*
X200765000Y-122053740D01*
X200765000Y-122346260D01*
X200822068Y-122633158D01*
X200934010Y-122903411D01*
X201096525Y-123146632D01*
X201303368Y-123353475D01*
X201477760Y-123470000D01*
X201303368Y-123586525D01*
X201096525Y-123793368D01*
X200934010Y-124036589D01*
X200822068Y-124306842D01*
X200765000Y-124593740D01*
X200765000Y-124886260D01*
X200822068Y-125173158D01*
X200934010Y-125443411D01*
X201096525Y-125686632D01*
X201303368Y-125893475D01*
X201477760Y-126010000D01*
X201303368Y-126126525D01*
X201096525Y-126333368D01*
X200934010Y-126576589D01*
X200822068Y-126846842D01*
X200765000Y-127133740D01*
X200765000Y-127426260D01*
X200822068Y-127713158D01*
X200934010Y-127983411D01*
X201096525Y-128226632D01*
X201303368Y-128433475D01*
X201477760Y-128550000D01*
X201303368Y-128666525D01*
X201096525Y-128873368D01*
X200934010Y-129116589D01*
X200822068Y-129386842D01*
X200765000Y-129673740D01*
X200765000Y-129966260D01*
X200822068Y-130253158D01*
X200934010Y-130523411D01*
X201096525Y-130766632D01*
X201303368Y-130973475D01*
X201477760Y-131090000D01*
X201303368Y-131206525D01*
X201096525Y-131413368D01*
X200934010Y-131656589D01*
X200822068Y-131926842D01*
X200765000Y-132213740D01*
X200765000Y-132506260D01*
X200822068Y-132793158D01*
X200934010Y-133063411D01*
X201096525Y-133306632D01*
X201303368Y-133513475D01*
X201477760Y-133630000D01*
X201303368Y-133746525D01*
X201096525Y-133953368D01*
X200934010Y-134196589D01*
X200822068Y-134466842D01*
X200765000Y-134753740D01*
X200765000Y-135046260D01*
X200822068Y-135333158D01*
X200934010Y-135603411D01*
X201096525Y-135846632D01*
X201303368Y-136053475D01*
X201477760Y-136170000D01*
X201303368Y-136286525D01*
X201096525Y-136493368D01*
X200934010Y-136736589D01*
X200822068Y-137006842D01*
X200765000Y-137293740D01*
X200765000Y-137586260D01*
X200822068Y-137873158D01*
X200934010Y-138143411D01*
X201096525Y-138386632D01*
X201303368Y-138593475D01*
X201477760Y-138710000D01*
X201303368Y-138826525D01*
X201096525Y-139033368D01*
X200934010Y-139276589D01*
X200822068Y-139546842D01*
X200765000Y-139833740D01*
X200765000Y-140126260D01*
X200822068Y-140413158D01*
X200934010Y-140683411D01*
X201096525Y-140926632D01*
X201303368Y-141133475D01*
X201485534Y-141255195D01*
X201368645Y-141324822D01*
X201152412Y-141519731D01*
X200978359Y-141753080D01*
X200853175Y-142015901D01*
X200808524Y-142163110D01*
X200929845Y-142393000D01*
X202123000Y-142393000D01*
X202123000Y-142373000D01*
X202377000Y-142373000D01*
X202377000Y-142393000D01*
X203570155Y-142393000D01*
X203691476Y-142163110D01*
X203646825Y-142015901D01*
X203521641Y-141753080D01*
X203347588Y-141519731D01*
X203131355Y-141324822D01*
X203014466Y-141255195D01*
X203196632Y-141133475D01*
X203403475Y-140926632D01*
X203565990Y-140683411D01*
X203677932Y-140413158D01*
X203735000Y-140126260D01*
X203735000Y-139833740D01*
X203677932Y-139546842D01*
X203565990Y-139276589D01*
X203403475Y-139033368D01*
X203196632Y-138826525D01*
X203022240Y-138710000D01*
X203196632Y-138593475D01*
X203403475Y-138386632D01*
X203565990Y-138143411D01*
X203677932Y-137873158D01*
X203735000Y-137586260D01*
X203735000Y-137293740D01*
X203677932Y-137006842D01*
X203565990Y-136736589D01*
X203403475Y-136493368D01*
X203196632Y-136286525D01*
X203022240Y-136170000D01*
X203196632Y-136053475D01*
X203403475Y-135846632D01*
X203565990Y-135603411D01*
X203677932Y-135333158D01*
X203735000Y-135046260D01*
X203735000Y-134753740D01*
X203677932Y-134466842D01*
X203565990Y-134196589D01*
X203403475Y-133953368D01*
X203196632Y-133746525D01*
X203022240Y-133630000D01*
X203196632Y-133513475D01*
X203403475Y-133306632D01*
X203565990Y-133063411D01*
X203677932Y-132793158D01*
X203735000Y-132506260D01*
X203735000Y-132213740D01*
X203677932Y-131926842D01*
X203565990Y-131656589D01*
X203403475Y-131413368D01*
X203196632Y-131206525D01*
X203022240Y-131090000D01*
X203196632Y-130973475D01*
X203403475Y-130766632D01*
X203565990Y-130523411D01*
X203677932Y-130253158D01*
X203735000Y-129966260D01*
X203735000Y-129673740D01*
X203677932Y-129386842D01*
X203565990Y-129116589D01*
X203403475Y-128873368D01*
X203196632Y-128666525D01*
X203022240Y-128550000D01*
X203196632Y-128433475D01*
X203403475Y-128226632D01*
X203565990Y-127983411D01*
X203677932Y-127713158D01*
X203735000Y-127426260D01*
X203735000Y-127133740D01*
X203677932Y-126846842D01*
X203565990Y-126576589D01*
X203403475Y-126333368D01*
X203196632Y-126126525D01*
X203022240Y-126010000D01*
X203196632Y-125893475D01*
X203403475Y-125686632D01*
X203565990Y-125443411D01*
X203677932Y-125173158D01*
X203735000Y-124886260D01*
X203735000Y-124593740D01*
X203677932Y-124306842D01*
X203565990Y-124036589D01*
X203403475Y-123793368D01*
X203196632Y-123586525D01*
X203022240Y-123470000D01*
X203196632Y-123353475D01*
X203403475Y-123146632D01*
X203565990Y-122903411D01*
X203677932Y-122633158D01*
X203735000Y-122346260D01*
X203735000Y-122053740D01*
X203677932Y-121766842D01*
X203565990Y-121496589D01*
X203403475Y-121253368D01*
X203196632Y-121046525D01*
X203022240Y-120930000D01*
X203196632Y-120813475D01*
X203403475Y-120606632D01*
X203565990Y-120363411D01*
X203677932Y-120093158D01*
X203735000Y-119806260D01*
X203735000Y-119513740D01*
X203677932Y-119226842D01*
X203565990Y-118956589D01*
X203403475Y-118713368D01*
X203196632Y-118506525D01*
X203022240Y-118390000D01*
X203196632Y-118273475D01*
X203403475Y-118066632D01*
X203565990Y-117823411D01*
X203677932Y-117553158D01*
X203735000Y-117266260D01*
X203735000Y-116973740D01*
X203677932Y-116686842D01*
X203565990Y-116416589D01*
X203403475Y-116173368D01*
X203196632Y-115966525D01*
X203022240Y-115850000D01*
X203196632Y-115733475D01*
X203403475Y-115526632D01*
X203565990Y-115283411D01*
X203677932Y-115013158D01*
X203735000Y-114726260D01*
X203735000Y-114433740D01*
X203677932Y-114146842D01*
X203565990Y-113876589D01*
X203403475Y-113633368D01*
X203196632Y-113426525D01*
X203014466Y-113304805D01*
X203131355Y-113235178D01*
X203347588Y-113040269D01*
X203521641Y-112806920D01*
X203646825Y-112544099D01*
X203691476Y-112396890D01*
X203570155Y-112167000D01*
X202377000Y-112167000D01*
X202377000Y-112187000D01*
X202123000Y-112187000D01*
X202123000Y-112167000D01*
X200929845Y-112167000D01*
X200808524Y-112396890D01*
X200853175Y-112544099D01*
X200978359Y-112806920D01*
X201152412Y-113040269D01*
X201368645Y-113235178D01*
X201485534Y-113304805D01*
X201303368Y-113426525D01*
X201096525Y-113633368D01*
X200934010Y-113876589D01*
X200822068Y-114146842D01*
X200765000Y-114433740D01*
X165235000Y-114433740D01*
X165177932Y-114146842D01*
X165065990Y-113876589D01*
X164903475Y-113633368D01*
X164696632Y-113426525D01*
X164514466Y-113304805D01*
X164631355Y-113235178D01*
X164847588Y-113040269D01*
X165021641Y-112806920D01*
X165146825Y-112544099D01*
X165191476Y-112396890D01*
X165070155Y-112167000D01*
X163877000Y-112167000D01*
X163877000Y-112187000D01*
X163623000Y-112187000D01*
X163623000Y-112167000D01*
X162429845Y-112167000D01*
X162308524Y-112396890D01*
X162353175Y-112544099D01*
X162478359Y-112806920D01*
X162652412Y-113040269D01*
X162868645Y-113235178D01*
X162985534Y-113304805D01*
X162803368Y-113426525D01*
X162596525Y-113633368D01*
X162434010Y-113876589D01*
X162322068Y-114146842D01*
X162265000Y-114433740D01*
X160685000Y-114433740D01*
X160685000Y-109966353D01*
X160675088Y-109865717D01*
X160674717Y-109864493D01*
X160731173Y-109231917D01*
X160890367Y-108650000D01*
X162261928Y-108650000D01*
X162261928Y-110350000D01*
X162274188Y-110474482D01*
X162310498Y-110594180D01*
X162369463Y-110704494D01*
X162448815Y-110801185D01*
X162545506Y-110880537D01*
X162655820Y-110939502D01*
X162736466Y-110963966D01*
X162652412Y-111039731D01*
X162478359Y-111273080D01*
X162353175Y-111535901D01*
X162308524Y-111683110D01*
X162429845Y-111913000D01*
X163623000Y-111913000D01*
X163623000Y-111893000D01*
X163877000Y-111893000D01*
X163877000Y-111913000D01*
X165070155Y-111913000D01*
X165191476Y-111683110D01*
X165146825Y-111535901D01*
X165021641Y-111273080D01*
X164847588Y-111039731D01*
X164763534Y-110963966D01*
X164844180Y-110939502D01*
X164954494Y-110880537D01*
X165051185Y-110801185D01*
X165130537Y-110704494D01*
X165189502Y-110594180D01*
X165225812Y-110474482D01*
X165238072Y-110350000D01*
X165238072Y-108650000D01*
X165228224Y-108550000D01*
X169111928Y-108550000D01*
X169111928Y-110250000D01*
X169124188Y-110374482D01*
X169160498Y-110494180D01*
X169219463Y-110604494D01*
X169298815Y-110701185D01*
X169395506Y-110780537D01*
X169505820Y-110839502D01*
X169625518Y-110875812D01*
X169750000Y-110888072D01*
X171450000Y-110888072D01*
X171574482Y-110875812D01*
X171694180Y-110839502D01*
X171804494Y-110780537D01*
X171901185Y-110701185D01*
X171980537Y-110604494D01*
X172039502Y-110494180D01*
X172061513Y-110421620D01*
X172193368Y-110553475D01*
X172436589Y-110715990D01*
X172706842Y-110827932D01*
X172993740Y-110885000D01*
X173286260Y-110885000D01*
X173573158Y-110827932D01*
X173843411Y-110715990D01*
X174086632Y-110553475D01*
X174293475Y-110346632D01*
X174352569Y-110258191D01*
X177915000Y-110258191D01*
X177915000Y-110941808D01*
X177934678Y-111141606D01*
X178012445Y-111397967D01*
X178138730Y-111634230D01*
X178308682Y-111841317D01*
X178515769Y-112011270D01*
X178752032Y-112137555D01*
X179008393Y-112215322D01*
X179275000Y-112241580D01*
X179541606Y-112215322D01*
X179797967Y-112137555D01*
X180034230Y-112011270D01*
X180241317Y-111841318D01*
X180411270Y-111634231D01*
X180537555Y-111397968D01*
X180615322Y-111141607D01*
X180635000Y-110941809D01*
X180635000Y-110578424D01*
X180801898Y-110545226D01*
X180990256Y-110467205D01*
X181159774Y-110353937D01*
X181303937Y-110209774D01*
X181417205Y-110040256D01*
X181495226Y-109851898D01*
X181535000Y-109651939D01*
X181535000Y-109448061D01*
X184465000Y-109448061D01*
X184465000Y-109651939D01*
X184504774Y-109851898D01*
X184582795Y-110040256D01*
X184696063Y-110209774D01*
X184840226Y-110353937D01*
X185009744Y-110467205D01*
X185198102Y-110545226D01*
X185365000Y-110578424D01*
X185365000Y-110941808D01*
X185384678Y-111141606D01*
X185462445Y-111397967D01*
X185588730Y-111634230D01*
X185758682Y-111841317D01*
X185965769Y-112011270D01*
X186202032Y-112137555D01*
X186458393Y-112215322D01*
X186725000Y-112241580D01*
X186991606Y-112215322D01*
X187247967Y-112137555D01*
X187484230Y-112011270D01*
X187691317Y-111841318D01*
X187861270Y-111634231D01*
X187987555Y-111397968D01*
X188065322Y-111141607D01*
X188085000Y-110941809D01*
X188085000Y-110258192D01*
X188065322Y-110058394D01*
X187987555Y-109802032D01*
X187861270Y-109565769D01*
X187691318Y-109358682D01*
X187484231Y-109188730D01*
X187247968Y-109062445D01*
X186991607Y-108984678D01*
X186725000Y-108958420D01*
X186458394Y-108984678D01*
X186382442Y-109007718D01*
X186303937Y-108890226D01*
X186159774Y-108746063D01*
X186016006Y-108650000D01*
X200761928Y-108650000D01*
X200761928Y-110350000D01*
X200774188Y-110474482D01*
X200810498Y-110594180D01*
X200869463Y-110704494D01*
X200948815Y-110801185D01*
X201045506Y-110880537D01*
X201155820Y-110939502D01*
X201236466Y-110963966D01*
X201152412Y-111039731D01*
X200978359Y-111273080D01*
X200853175Y-111535901D01*
X200808524Y-111683110D01*
X200929845Y-111913000D01*
X202123000Y-111913000D01*
X202123000Y-111893000D01*
X202377000Y-111893000D01*
X202377000Y-111913000D01*
X203570155Y-111913000D01*
X203691476Y-111683110D01*
X203646825Y-111535901D01*
X203521641Y-111273080D01*
X203347588Y-111039731D01*
X203263534Y-110963966D01*
X203344180Y-110939502D01*
X203454494Y-110880537D01*
X203551185Y-110801185D01*
X203630537Y-110704494D01*
X203689502Y-110594180D01*
X203725812Y-110474482D01*
X203738072Y-110350000D01*
X203738072Y-108650000D01*
X203725812Y-108525518D01*
X203689502Y-108405820D01*
X203630537Y-108295506D01*
X203551185Y-108198815D01*
X203454494Y-108119463D01*
X203344180Y-108060498D01*
X203224482Y-108024188D01*
X203100000Y-108011928D01*
X201400000Y-108011928D01*
X201275518Y-108024188D01*
X201155820Y-108060498D01*
X201045506Y-108119463D01*
X200948815Y-108198815D01*
X200869463Y-108295506D01*
X200810498Y-108405820D01*
X200774188Y-108525518D01*
X200761928Y-108650000D01*
X186016006Y-108650000D01*
X185990256Y-108632795D01*
X185801898Y-108554774D01*
X185601939Y-108515000D01*
X185398061Y-108515000D01*
X185198102Y-108554774D01*
X185009744Y-108632795D01*
X184840226Y-108746063D01*
X184696063Y-108890226D01*
X184582795Y-109059744D01*
X184504774Y-109248102D01*
X184465000Y-109448061D01*
X181535000Y-109448061D01*
X181495226Y-109248102D01*
X181417205Y-109059744D01*
X181303937Y-108890226D01*
X181159774Y-108746063D01*
X180990256Y-108632795D01*
X180801898Y-108554774D01*
X180601939Y-108515000D01*
X180398061Y-108515000D01*
X180198102Y-108554774D01*
X180009744Y-108632795D01*
X179840226Y-108746063D01*
X179696063Y-108890226D01*
X179617558Y-109007718D01*
X179541607Y-108984678D01*
X179275000Y-108958420D01*
X179008394Y-108984678D01*
X178752033Y-109062445D01*
X178515770Y-109188730D01*
X178308683Y-109358682D01*
X178138730Y-109565769D01*
X178012445Y-109802032D01*
X177934678Y-110058393D01*
X177915000Y-110258191D01*
X174352569Y-110258191D01*
X174455990Y-110103411D01*
X174567932Y-109833158D01*
X174625000Y-109546260D01*
X174625000Y-109253740D01*
X174567932Y-108966842D01*
X174455990Y-108696589D01*
X174293475Y-108453368D01*
X174086632Y-108246525D01*
X173843411Y-108084010D01*
X173573158Y-107972068D01*
X173286260Y-107915000D01*
X172993740Y-107915000D01*
X172706842Y-107972068D01*
X172436589Y-108084010D01*
X172193368Y-108246525D01*
X172061513Y-108378380D01*
X172039502Y-108305820D01*
X171980537Y-108195506D01*
X171901185Y-108098815D01*
X171804494Y-108019463D01*
X171694180Y-107960498D01*
X171574482Y-107924188D01*
X171450000Y-107911928D01*
X169750000Y-107911928D01*
X169625518Y-107924188D01*
X169505820Y-107960498D01*
X169395506Y-108019463D01*
X169298815Y-108098815D01*
X169219463Y-108195506D01*
X169160498Y-108305820D01*
X169124188Y-108425518D01*
X169111928Y-108550000D01*
X165228224Y-108550000D01*
X165225812Y-108525518D01*
X165189502Y-108405820D01*
X165130537Y-108295506D01*
X165051185Y-108198815D01*
X164954494Y-108119463D01*
X164844180Y-108060498D01*
X164724482Y-108024188D01*
X164600000Y-108011928D01*
X162900000Y-108011928D01*
X162775518Y-108024188D01*
X162655820Y-108060498D01*
X162545506Y-108119463D01*
X162448815Y-108198815D01*
X162369463Y-108295506D01*
X162310498Y-108405820D01*
X162274188Y-108525518D01*
X162261928Y-108650000D01*
X160890367Y-108650000D01*
X160934656Y-108488109D01*
X161266638Y-107792095D01*
X161716626Y-107165870D01*
X162270403Y-106629223D01*
X162910451Y-106199129D01*
X163616553Y-105889171D01*
X164371457Y-105707935D01*
X164856562Y-105672311D01*
X164865717Y-105675088D01*
%TA.AperFunction,Conductor*%
D16*
G36*
X164865717Y-105675088D02*
G01*
X164966353Y-105685000D01*
X178208029Y-105685000D01*
X178114055Y-105799508D01*
X178001697Y-106009713D01*
X177932508Y-106237799D01*
X177915000Y-106415563D01*
X177915000Y-107184436D01*
X177932508Y-107362200D01*
X178001697Y-107590286D01*
X178114054Y-107800491D01*
X178265261Y-107984739D01*
X178449508Y-108135946D01*
X178659713Y-108248303D01*
X178887799Y-108317492D01*
X179125000Y-108340854D01*
X179362200Y-108317492D01*
X179590286Y-108248303D01*
X179800491Y-108135946D01*
X179984739Y-107984739D01*
X180135946Y-107800492D01*
X180248303Y-107590287D01*
X180317492Y-107362201D01*
X180335000Y-107184437D01*
X180335000Y-106415564D01*
X180317492Y-106237800D01*
X180248303Y-106009713D01*
X180135946Y-105799508D01*
X180041972Y-105685000D01*
X185958029Y-105685000D01*
X185864055Y-105799508D01*
X185751697Y-106009713D01*
X185682508Y-106237799D01*
X185665000Y-106415563D01*
X185665000Y-107184436D01*
X185682508Y-107362200D01*
X185751697Y-107590286D01*
X185864054Y-107800491D01*
X186015261Y-107984739D01*
X186199508Y-108135946D01*
X186409713Y-108248303D01*
X186637799Y-108317492D01*
X186875000Y-108340854D01*
X187112200Y-108317492D01*
X187340286Y-108248303D01*
X187550491Y-108135946D01*
X187734739Y-107984739D01*
X187885946Y-107800492D01*
X187998303Y-107590287D01*
X188067492Y-107362201D01*
X188085000Y-107184437D01*
X188085000Y-106415564D01*
X188067492Y-106237800D01*
X187998303Y-106009713D01*
X187885946Y-105799508D01*
X187791972Y-105685000D01*
X201033647Y-105685000D01*
X201134283Y-105675088D01*
X201135507Y-105674717D01*
X201768083Y-105731173D01*
X202511891Y-105934656D01*
X203207905Y-106266638D01*
X203834130Y-106716626D01*
X204370777Y-107270403D01*
X204800871Y-107910451D01*
X205110829Y-108616553D01*
X205292065Y-109371457D01*
X205327689Y-109856563D01*
X205324912Y-109865718D01*
X205315000Y-109966354D01*
X205315001Y-145033647D01*
X205324913Y-145134283D01*
X205325283Y-145135504D01*
X205268827Y-145768083D01*
X205065344Y-146511890D01*
X204733363Y-147207904D01*
X204283374Y-147834130D01*
X203729597Y-148370777D01*
X203089549Y-148800871D01*
X202383447Y-149110829D01*
X201628543Y-149292065D01*
X201143438Y-149327689D01*
X201134283Y-149324912D01*
X201033647Y-149315000D01*
X164966353Y-149315000D01*
X164865717Y-149324912D01*
X164864493Y-149325283D01*
X164231917Y-149268827D01*
X163488110Y-149065344D01*
X162792096Y-148733363D01*
X162165870Y-148283374D01*
X161629223Y-147729597D01*
X161199129Y-147089549D01*
X160889171Y-146383447D01*
X160707935Y-145628543D01*
X160672311Y-145143438D01*
X160675088Y-145134283D01*
X160685000Y-145033647D01*
X160685000Y-114433740D01*
X162265000Y-114433740D01*
X162265000Y-114726260D01*
X162322068Y-115013158D01*
X162434010Y-115283411D01*
X162596525Y-115526632D01*
X162803368Y-115733475D01*
X162977760Y-115850000D01*
X162803368Y-115966525D01*
X162596525Y-116173368D01*
X162434010Y-116416589D01*
X162322068Y-116686842D01*
X162265000Y-116973740D01*
X162265000Y-117266260D01*
X162322068Y-117553158D01*
X162434010Y-117823411D01*
X162596525Y-118066632D01*
X162803368Y-118273475D01*
X162977760Y-118390000D01*
X162803368Y-118506525D01*
X162596525Y-118713368D01*
X162434010Y-118956589D01*
X162322068Y-119226842D01*
X162265000Y-119513740D01*
X162265000Y-119806260D01*
X162322068Y-120093158D01*
X162434010Y-120363411D01*
X162596525Y-120606632D01*
X162803368Y-120813475D01*
X162977760Y-120930000D01*
X162803368Y-121046525D01*
X162596525Y-121253368D01*
X162434010Y-121496589D01*
X162322068Y-121766842D01*
X162265000Y-122053740D01*
X162265000Y-122346260D01*
X162322068Y-122633158D01*
X162434010Y-122903411D01*
X162596525Y-123146632D01*
X162803368Y-123353475D01*
X162977760Y-123470000D01*
X162803368Y-123586525D01*
X162596525Y-123793368D01*
X162434010Y-124036589D01*
X162322068Y-124306842D01*
X162265000Y-124593740D01*
X162265000Y-124886260D01*
X162322068Y-125173158D01*
X162434010Y-125443411D01*
X162596525Y-125686632D01*
X162803368Y-125893475D01*
X162977760Y-126010000D01*
X162803368Y-126126525D01*
X162596525Y-126333368D01*
X162434010Y-126576589D01*
X162322068Y-126846842D01*
X162265000Y-127133740D01*
X162265000Y-127426260D01*
X162322068Y-127713158D01*
X162434010Y-127983411D01*
X162596525Y-128226632D01*
X162803368Y-128433475D01*
X162977760Y-128550000D01*
X162803368Y-128666525D01*
X162596525Y-128873368D01*
X162434010Y-129116589D01*
X162322068Y-129386842D01*
X162265000Y-129673740D01*
X162265000Y-129966260D01*
X162322068Y-130253158D01*
X162434010Y-130523411D01*
X162596525Y-130766632D01*
X162803368Y-130973475D01*
X162977760Y-131090000D01*
X162803368Y-131206525D01*
X162596525Y-131413368D01*
X162434010Y-131656589D01*
X162322068Y-131926842D01*
X162265000Y-132213740D01*
X162265000Y-132506260D01*
X162322068Y-132793158D01*
X162434010Y-133063411D01*
X162596525Y-133306632D01*
X162803368Y-133513475D01*
X162977760Y-133630000D01*
X162803368Y-133746525D01*
X162596525Y-133953368D01*
X162434010Y-134196589D01*
X162322068Y-134466842D01*
X162265000Y-134753740D01*
X162265000Y-135046260D01*
X162322068Y-135333158D01*
X162434010Y-135603411D01*
X162596525Y-135846632D01*
X162803368Y-136053475D01*
X162977760Y-136170000D01*
X162803368Y-136286525D01*
X162596525Y-136493368D01*
X162434010Y-136736589D01*
X162322068Y-137006842D01*
X162265000Y-137293740D01*
X162265000Y-137586260D01*
X162322068Y-137873158D01*
X162434010Y-138143411D01*
X162596525Y-138386632D01*
X162803368Y-138593475D01*
X162977760Y-138710000D01*
X162803368Y-138826525D01*
X162596525Y-139033368D01*
X162434010Y-139276589D01*
X162322068Y-139546842D01*
X162265000Y-139833740D01*
X162265000Y-140126260D01*
X162322068Y-140413158D01*
X162434010Y-140683411D01*
X162596525Y-140926632D01*
X162803368Y-141133475D01*
X162977760Y-141250000D01*
X162803368Y-141366525D01*
X162596525Y-141573368D01*
X162434010Y-141816589D01*
X162322068Y-142086842D01*
X162265000Y-142373740D01*
X162265000Y-142666260D01*
X162322068Y-142953158D01*
X162434010Y-143223411D01*
X162596525Y-143466632D01*
X162803368Y-143673475D01*
X162977760Y-143790000D01*
X162803368Y-143906525D01*
X162596525Y-144113368D01*
X162434010Y-144356589D01*
X162322068Y-144626842D01*
X162265000Y-144913740D01*
X162265000Y-145206260D01*
X162322068Y-145493158D01*
X162434010Y-145763411D01*
X162596525Y-146006632D01*
X162803368Y-146213475D01*
X163046589Y-146375990D01*
X163316842Y-146487932D01*
X163603740Y-146545000D01*
X163896260Y-146545000D01*
X164183158Y-146487932D01*
X164453411Y-146375990D01*
X164696632Y-146213475D01*
X164903475Y-146006632D01*
X165065990Y-145763411D01*
X165177932Y-145493158D01*
X165193102Y-145416890D01*
X200808524Y-145416890D01*
X200853175Y-145564099D01*
X200978359Y-145826920D01*
X201152412Y-146060269D01*
X201368645Y-146255178D01*
X201618748Y-146404157D01*
X201893109Y-146501481D01*
X202123000Y-146380814D01*
X202123000Y-145187000D01*
X202377000Y-145187000D01*
X202377000Y-146380814D01*
X202606891Y-146501481D01*
X202881252Y-146404157D01*
X203131355Y-146255178D01*
X203347588Y-146060269D01*
X203521641Y-145826920D01*
X203646825Y-145564099D01*
X203691476Y-145416890D01*
X203570155Y-145187000D01*
X202377000Y-145187000D01*
X202123000Y-145187000D01*
X200929845Y-145187000D01*
X200808524Y-145416890D01*
X165193102Y-145416890D01*
X165235000Y-145206260D01*
X165235000Y-144913740D01*
X165177932Y-144626842D01*
X165065990Y-144356589D01*
X164903475Y-144113368D01*
X164696632Y-143906525D01*
X164522240Y-143790000D01*
X164696632Y-143673475D01*
X164903475Y-143466632D01*
X165065990Y-143223411D01*
X165177932Y-142953158D01*
X165193102Y-142876890D01*
X200808524Y-142876890D01*
X200853175Y-143024099D01*
X200978359Y-143286920D01*
X201152412Y-143520269D01*
X201368645Y-143715178D01*
X201494255Y-143790000D01*
X201368645Y-143864822D01*
X201152412Y-144059731D01*
X200978359Y-144293080D01*
X200853175Y-144555901D01*
X200808524Y-144703110D01*
X200929845Y-144933000D01*
X202123000Y-144933000D01*
X202123000Y-142647000D01*
X202377000Y-142647000D01*
X202377000Y-144933000D01*
X203570155Y-144933000D01*
X203691476Y-144703110D01*
X203646825Y-144555901D01*
X203521641Y-144293080D01*
X203347588Y-144059731D01*
X203131355Y-143864822D01*
X203005745Y-143790000D01*
X203131355Y-143715178D01*
X203347588Y-143520269D01*
X203521641Y-143286920D01*
X203646825Y-143024099D01*
X203691476Y-142876890D01*
X203570155Y-142647000D01*
X202377000Y-142647000D01*
X202123000Y-142647000D01*
X200929845Y-142647000D01*
X200808524Y-142876890D01*
X165193102Y-142876890D01*
X165235000Y-142666260D01*
X165235000Y-142373740D01*
X165177932Y-142086842D01*
X165065990Y-141816589D01*
X164903475Y-141573368D01*
X164696632Y-141366525D01*
X164522240Y-141250000D01*
X164696632Y-141133475D01*
X164903475Y-140926632D01*
X165065990Y-140683411D01*
X165177932Y-140413158D01*
X165235000Y-140126260D01*
X165235000Y-139833740D01*
X165177932Y-139546842D01*
X165065990Y-139276589D01*
X164903475Y-139033368D01*
X164696632Y-138826525D01*
X164522240Y-138710000D01*
X164696632Y-138593475D01*
X164903475Y-138386632D01*
X165065990Y-138143411D01*
X165177932Y-137873158D01*
X165235000Y-137586260D01*
X165235000Y-137293740D01*
X165177932Y-137006842D01*
X165065990Y-136736589D01*
X164903475Y-136493368D01*
X164696632Y-136286525D01*
X164522240Y-136170000D01*
X164696632Y-136053475D01*
X164903475Y-135846632D01*
X165065990Y-135603411D01*
X165177932Y-135333158D01*
X165235000Y-135046260D01*
X165235000Y-134753740D01*
X165177932Y-134466842D01*
X165065990Y-134196589D01*
X164903475Y-133953368D01*
X164696632Y-133746525D01*
X164522240Y-133630000D01*
X164696632Y-133513475D01*
X164903475Y-133306632D01*
X165065990Y-133063411D01*
X165177932Y-132793158D01*
X165235000Y-132506260D01*
X165235000Y-132213740D01*
X165177932Y-131926842D01*
X165065990Y-131656589D01*
X164903475Y-131413368D01*
X164696632Y-131206525D01*
X164522240Y-131090000D01*
X164696632Y-130973475D01*
X164903475Y-130766632D01*
X165065990Y-130523411D01*
X165177932Y-130253158D01*
X165235000Y-129966260D01*
X165235000Y-129673740D01*
X165177932Y-129386842D01*
X165065990Y-129116589D01*
X164903475Y-128873368D01*
X164696632Y-128666525D01*
X164522240Y-128550000D01*
X164696632Y-128433475D01*
X164903475Y-128226632D01*
X165065990Y-127983411D01*
X165177932Y-127713158D01*
X165235000Y-127426260D01*
X165235000Y-127133740D01*
X165177932Y-126846842D01*
X165065990Y-126576589D01*
X164903475Y-126333368D01*
X164696632Y-126126525D01*
X164522240Y-126010000D01*
X164696632Y-125893475D01*
X164903475Y-125686632D01*
X165065990Y-125443411D01*
X165177932Y-125173158D01*
X165235000Y-124886260D01*
X165235000Y-124593740D01*
X165177932Y-124306842D01*
X165065990Y-124036589D01*
X164903475Y-123793368D01*
X164696632Y-123586525D01*
X164522240Y-123470000D01*
X164696632Y-123353475D01*
X164903475Y-123146632D01*
X165065990Y-122903411D01*
X165177932Y-122633158D01*
X165235000Y-122346260D01*
X165235000Y-122053740D01*
X165177932Y-121766842D01*
X165065990Y-121496589D01*
X164903475Y-121253368D01*
X164696632Y-121046525D01*
X164522240Y-120930000D01*
X164696632Y-120813475D01*
X164903475Y-120606632D01*
X165065990Y-120363411D01*
X165177932Y-120093158D01*
X165235000Y-119806260D01*
X165235000Y-119513740D01*
X165177932Y-119226842D01*
X165065990Y-118956589D01*
X164903475Y-118713368D01*
X164696632Y-118506525D01*
X164522240Y-118390000D01*
X164696632Y-118273475D01*
X164903475Y-118066632D01*
X165065990Y-117823411D01*
X165177932Y-117553158D01*
X165235000Y-117266260D01*
X165235000Y-116973740D01*
X165177932Y-116686842D01*
X165065990Y-116416589D01*
X164903475Y-116173368D01*
X164696632Y-115966525D01*
X164522240Y-115850000D01*
X164696632Y-115733475D01*
X164903475Y-115526632D01*
X165065990Y-115283411D01*
X165177932Y-115013158D01*
X165235000Y-114726260D01*
X165235000Y-114433740D01*
X200765000Y-114433740D01*
X200765000Y-114726260D01*
X200822068Y-115013158D01*
X200934010Y-115283411D01*
X201096525Y-115526632D01*
X201303368Y-115733475D01*
X201477760Y-115850000D01*
X201303368Y-115966525D01*
X201096525Y-116173368D01*
X200934010Y-116416589D01*
X200822068Y-116686842D01*
X200765000Y-116973740D01*
X200765000Y-117266260D01*
X200822068Y-117553158D01*
X200934010Y-117823411D01*
X201096525Y-118066632D01*
X201303368Y-118273475D01*
X201477760Y-118390000D01*
X201303368Y-118506525D01*
X201096525Y-118713368D01*
X200934010Y-118956589D01*
X200822068Y-119226842D01*
X200765000Y-119513740D01*
X200765000Y-119806260D01*
X200822068Y-120093158D01*
X200934010Y-120363411D01*
X201096525Y-120606632D01*
X201303368Y-120813475D01*
X201477760Y-120930000D01*
X201303368Y-121046525D01*
X201096525Y-121253368D01*
X200934010Y-121496589D01*
X200822068Y-121766842D01*
X200765000Y-122053740D01*
X200765000Y-122346260D01*
X200822068Y-122633158D01*
X200934010Y-122903411D01*
X201096525Y-123146632D01*
X201303368Y-123353475D01*
X201477760Y-123470000D01*
X201303368Y-123586525D01*
X201096525Y-123793368D01*
X200934010Y-124036589D01*
X200822068Y-124306842D01*
X200765000Y-124593740D01*
X200765000Y-124886260D01*
X200822068Y-125173158D01*
X200934010Y-125443411D01*
X201096525Y-125686632D01*
X201303368Y-125893475D01*
X201477760Y-126010000D01*
X201303368Y-126126525D01*
X201096525Y-126333368D01*
X200934010Y-126576589D01*
X200822068Y-126846842D01*
X200765000Y-127133740D01*
X200765000Y-127426260D01*
X200822068Y-127713158D01*
X200934010Y-127983411D01*
X201096525Y-128226632D01*
X201303368Y-128433475D01*
X201477760Y-128550000D01*
X201303368Y-128666525D01*
X201096525Y-128873368D01*
X200934010Y-129116589D01*
X200822068Y-129386842D01*
X200765000Y-129673740D01*
X200765000Y-129966260D01*
X200822068Y-130253158D01*
X200934010Y-130523411D01*
X201096525Y-130766632D01*
X201303368Y-130973475D01*
X201477760Y-131090000D01*
X201303368Y-131206525D01*
X201096525Y-131413368D01*
X200934010Y-131656589D01*
X200822068Y-131926842D01*
X200765000Y-132213740D01*
X200765000Y-132506260D01*
X200822068Y-132793158D01*
X200934010Y-133063411D01*
X201096525Y-133306632D01*
X201303368Y-133513475D01*
X201477760Y-133630000D01*
X201303368Y-133746525D01*
X201096525Y-133953368D01*
X200934010Y-134196589D01*
X200822068Y-134466842D01*
X200765000Y-134753740D01*
X200765000Y-135046260D01*
X200822068Y-135333158D01*
X200934010Y-135603411D01*
X201096525Y-135846632D01*
X201303368Y-136053475D01*
X201477760Y-136170000D01*
X201303368Y-136286525D01*
X201096525Y-136493368D01*
X200934010Y-136736589D01*
X200822068Y-137006842D01*
X200765000Y-137293740D01*
X200765000Y-137586260D01*
X200822068Y-137873158D01*
X200934010Y-138143411D01*
X201096525Y-138386632D01*
X201303368Y-138593475D01*
X201477760Y-138710000D01*
X201303368Y-138826525D01*
X201096525Y-139033368D01*
X200934010Y-139276589D01*
X200822068Y-139546842D01*
X200765000Y-139833740D01*
X200765000Y-140126260D01*
X200822068Y-140413158D01*
X200934010Y-140683411D01*
X201096525Y-140926632D01*
X201303368Y-141133475D01*
X201485534Y-141255195D01*
X201368645Y-141324822D01*
X201152412Y-141519731D01*
X200978359Y-141753080D01*
X200853175Y-142015901D01*
X200808524Y-142163110D01*
X200929845Y-142393000D01*
X202123000Y-142393000D01*
X202123000Y-142373000D01*
X202377000Y-142373000D01*
X202377000Y-142393000D01*
X203570155Y-142393000D01*
X203691476Y-142163110D01*
X203646825Y-142015901D01*
X203521641Y-141753080D01*
X203347588Y-141519731D01*
X203131355Y-141324822D01*
X203014466Y-141255195D01*
X203196632Y-141133475D01*
X203403475Y-140926632D01*
X203565990Y-140683411D01*
X203677932Y-140413158D01*
X203735000Y-140126260D01*
X203735000Y-139833740D01*
X203677932Y-139546842D01*
X203565990Y-139276589D01*
X203403475Y-139033368D01*
X203196632Y-138826525D01*
X203022240Y-138710000D01*
X203196632Y-138593475D01*
X203403475Y-138386632D01*
X203565990Y-138143411D01*
X203677932Y-137873158D01*
X203735000Y-137586260D01*
X203735000Y-137293740D01*
X203677932Y-137006842D01*
X203565990Y-136736589D01*
X203403475Y-136493368D01*
X203196632Y-136286525D01*
X203022240Y-136170000D01*
X203196632Y-136053475D01*
X203403475Y-135846632D01*
X203565990Y-135603411D01*
X203677932Y-135333158D01*
X203735000Y-135046260D01*
X203735000Y-134753740D01*
X203677932Y-134466842D01*
X203565990Y-134196589D01*
X203403475Y-133953368D01*
X203196632Y-133746525D01*
X203022240Y-133630000D01*
X203196632Y-133513475D01*
X203403475Y-133306632D01*
X203565990Y-133063411D01*
X203677932Y-132793158D01*
X203735000Y-132506260D01*
X203735000Y-132213740D01*
X203677932Y-131926842D01*
X203565990Y-131656589D01*
X203403475Y-131413368D01*
X203196632Y-131206525D01*
X203022240Y-131090000D01*
X203196632Y-130973475D01*
X203403475Y-130766632D01*
X203565990Y-130523411D01*
X203677932Y-130253158D01*
X203735000Y-129966260D01*
X203735000Y-129673740D01*
X203677932Y-129386842D01*
X203565990Y-129116589D01*
X203403475Y-128873368D01*
X203196632Y-128666525D01*
X203022240Y-128550000D01*
X203196632Y-128433475D01*
X203403475Y-128226632D01*
X203565990Y-127983411D01*
X203677932Y-127713158D01*
X203735000Y-127426260D01*
X203735000Y-127133740D01*
X203677932Y-126846842D01*
X203565990Y-126576589D01*
X203403475Y-126333368D01*
X203196632Y-126126525D01*
X203022240Y-126010000D01*
X203196632Y-125893475D01*
X203403475Y-125686632D01*
X203565990Y-125443411D01*
X203677932Y-125173158D01*
X203735000Y-124886260D01*
X203735000Y-124593740D01*
X203677932Y-124306842D01*
X203565990Y-124036589D01*
X203403475Y-123793368D01*
X203196632Y-123586525D01*
X203022240Y-123470000D01*
X203196632Y-123353475D01*
X203403475Y-123146632D01*
X203565990Y-122903411D01*
X203677932Y-122633158D01*
X203735000Y-122346260D01*
X203735000Y-122053740D01*
X203677932Y-121766842D01*
X203565990Y-121496589D01*
X203403475Y-121253368D01*
X203196632Y-121046525D01*
X203022240Y-120930000D01*
X203196632Y-120813475D01*
X203403475Y-120606632D01*
X203565990Y-120363411D01*
X203677932Y-120093158D01*
X203735000Y-119806260D01*
X203735000Y-119513740D01*
X203677932Y-119226842D01*
X203565990Y-118956589D01*
X203403475Y-118713368D01*
X203196632Y-118506525D01*
X203022240Y-118390000D01*
X203196632Y-118273475D01*
X203403475Y-118066632D01*
X203565990Y-117823411D01*
X203677932Y-117553158D01*
X203735000Y-117266260D01*
X203735000Y-116973740D01*
X203677932Y-116686842D01*
X203565990Y-116416589D01*
X203403475Y-116173368D01*
X203196632Y-115966525D01*
X203022240Y-115850000D01*
X203196632Y-115733475D01*
X203403475Y-115526632D01*
X203565990Y-115283411D01*
X203677932Y-115013158D01*
X203735000Y-114726260D01*
X203735000Y-114433740D01*
X203677932Y-114146842D01*
X203565990Y-113876589D01*
X203403475Y-113633368D01*
X203196632Y-113426525D01*
X203014466Y-113304805D01*
X203131355Y-113235178D01*
X203347588Y-113040269D01*
X203521641Y-112806920D01*
X203646825Y-112544099D01*
X203691476Y-112396890D01*
X203570155Y-112167000D01*
X202377000Y-112167000D01*
X202377000Y-112187000D01*
X202123000Y-112187000D01*
X202123000Y-112167000D01*
X200929845Y-112167000D01*
X200808524Y-112396890D01*
X200853175Y-112544099D01*
X200978359Y-112806920D01*
X201152412Y-113040269D01*
X201368645Y-113235178D01*
X201485534Y-113304805D01*
X201303368Y-113426525D01*
X201096525Y-113633368D01*
X200934010Y-113876589D01*
X200822068Y-114146842D01*
X200765000Y-114433740D01*
X165235000Y-114433740D01*
X165177932Y-114146842D01*
X165065990Y-113876589D01*
X164903475Y-113633368D01*
X164696632Y-113426525D01*
X164514466Y-113304805D01*
X164631355Y-113235178D01*
X164847588Y-113040269D01*
X165021641Y-112806920D01*
X165146825Y-112544099D01*
X165191476Y-112396890D01*
X165070155Y-112167000D01*
X163877000Y-112167000D01*
X163877000Y-112187000D01*
X163623000Y-112187000D01*
X163623000Y-112167000D01*
X162429845Y-112167000D01*
X162308524Y-112396890D01*
X162353175Y-112544099D01*
X162478359Y-112806920D01*
X162652412Y-113040269D01*
X162868645Y-113235178D01*
X162985534Y-113304805D01*
X162803368Y-113426525D01*
X162596525Y-113633368D01*
X162434010Y-113876589D01*
X162322068Y-114146842D01*
X162265000Y-114433740D01*
X160685000Y-114433740D01*
X160685000Y-109966353D01*
X160675088Y-109865717D01*
X160674717Y-109864493D01*
X160731173Y-109231917D01*
X160890367Y-108650000D01*
X162261928Y-108650000D01*
X162261928Y-110350000D01*
X162274188Y-110474482D01*
X162310498Y-110594180D01*
X162369463Y-110704494D01*
X162448815Y-110801185D01*
X162545506Y-110880537D01*
X162655820Y-110939502D01*
X162736466Y-110963966D01*
X162652412Y-111039731D01*
X162478359Y-111273080D01*
X162353175Y-111535901D01*
X162308524Y-111683110D01*
X162429845Y-111913000D01*
X163623000Y-111913000D01*
X163623000Y-111893000D01*
X163877000Y-111893000D01*
X163877000Y-111913000D01*
X165070155Y-111913000D01*
X165191476Y-111683110D01*
X165146825Y-111535901D01*
X165021641Y-111273080D01*
X164847588Y-111039731D01*
X164763534Y-110963966D01*
X164844180Y-110939502D01*
X164954494Y-110880537D01*
X165051185Y-110801185D01*
X165130537Y-110704494D01*
X165189502Y-110594180D01*
X165225812Y-110474482D01*
X165238072Y-110350000D01*
X165238072Y-108650000D01*
X165228224Y-108550000D01*
X169111928Y-108550000D01*
X169111928Y-110250000D01*
X169124188Y-110374482D01*
X169160498Y-110494180D01*
X169219463Y-110604494D01*
X169298815Y-110701185D01*
X169395506Y-110780537D01*
X169505820Y-110839502D01*
X169625518Y-110875812D01*
X169750000Y-110888072D01*
X171450000Y-110888072D01*
X171574482Y-110875812D01*
X171694180Y-110839502D01*
X171804494Y-110780537D01*
X171901185Y-110701185D01*
X171980537Y-110604494D01*
X172039502Y-110494180D01*
X172061513Y-110421620D01*
X172193368Y-110553475D01*
X172436589Y-110715990D01*
X172706842Y-110827932D01*
X172993740Y-110885000D01*
X173286260Y-110885000D01*
X173573158Y-110827932D01*
X173843411Y-110715990D01*
X174086632Y-110553475D01*
X174293475Y-110346632D01*
X174352569Y-110258191D01*
X177915000Y-110258191D01*
X177915000Y-110941808D01*
X177934678Y-111141606D01*
X178012445Y-111397967D01*
X178138730Y-111634230D01*
X178308682Y-111841317D01*
X178515769Y-112011270D01*
X178752032Y-112137555D01*
X179008393Y-112215322D01*
X179275000Y-112241580D01*
X179541606Y-112215322D01*
X179797967Y-112137555D01*
X180034230Y-112011270D01*
X180241317Y-111841318D01*
X180411270Y-111634231D01*
X180537555Y-111397968D01*
X180615322Y-111141607D01*
X180635000Y-110941809D01*
X180635000Y-110578424D01*
X180801898Y-110545226D01*
X180990256Y-110467205D01*
X181159774Y-110353937D01*
X181303937Y-110209774D01*
X181417205Y-110040256D01*
X181495226Y-109851898D01*
X181535000Y-109651939D01*
X181535000Y-109448061D01*
X184465000Y-109448061D01*
X184465000Y-109651939D01*
X184504774Y-109851898D01*
X184582795Y-110040256D01*
X184696063Y-110209774D01*
X184840226Y-110353937D01*
X185009744Y-110467205D01*
X185198102Y-110545226D01*
X185365000Y-110578424D01*
X185365000Y-110941808D01*
X185384678Y-111141606D01*
X185462445Y-111397967D01*
X185588730Y-111634230D01*
X185758682Y-111841317D01*
X185965769Y-112011270D01*
X186202032Y-112137555D01*
X186458393Y-112215322D01*
X186725000Y-112241580D01*
X186991606Y-112215322D01*
X187247967Y-112137555D01*
X187484230Y-112011270D01*
X187691317Y-111841318D01*
X187861270Y-111634231D01*
X187987555Y-111397968D01*
X188065322Y-111141607D01*
X188085000Y-110941809D01*
X188085000Y-110258192D01*
X188065322Y-110058394D01*
X187987555Y-109802032D01*
X187861270Y-109565769D01*
X187691318Y-109358682D01*
X187484231Y-109188730D01*
X187247968Y-109062445D01*
X186991607Y-108984678D01*
X186725000Y-108958420D01*
X186458394Y-108984678D01*
X186382442Y-109007718D01*
X186303937Y-108890226D01*
X186159774Y-108746063D01*
X186016006Y-108650000D01*
X200761928Y-108650000D01*
X200761928Y-110350000D01*
X200774188Y-110474482D01*
X200810498Y-110594180D01*
X200869463Y-110704494D01*
X200948815Y-110801185D01*
X201045506Y-110880537D01*
X201155820Y-110939502D01*
X201236466Y-110963966D01*
X201152412Y-111039731D01*
X200978359Y-111273080D01*
X200853175Y-111535901D01*
X200808524Y-111683110D01*
X200929845Y-111913000D01*
X202123000Y-111913000D01*
X202123000Y-111893000D01*
X202377000Y-111893000D01*
X202377000Y-111913000D01*
X203570155Y-111913000D01*
X203691476Y-111683110D01*
X203646825Y-111535901D01*
X203521641Y-111273080D01*
X203347588Y-111039731D01*
X203263534Y-110963966D01*
X203344180Y-110939502D01*
X203454494Y-110880537D01*
X203551185Y-110801185D01*
X203630537Y-110704494D01*
X203689502Y-110594180D01*
X203725812Y-110474482D01*
X203738072Y-110350000D01*
X203738072Y-108650000D01*
X203725812Y-108525518D01*
X203689502Y-108405820D01*
X203630537Y-108295506D01*
X203551185Y-108198815D01*
X203454494Y-108119463D01*
X203344180Y-108060498D01*
X203224482Y-108024188D01*
X203100000Y-108011928D01*
X201400000Y-108011928D01*
X201275518Y-108024188D01*
X201155820Y-108060498D01*
X201045506Y-108119463D01*
X200948815Y-108198815D01*
X200869463Y-108295506D01*
X200810498Y-108405820D01*
X200774188Y-108525518D01*
X200761928Y-108650000D01*
X186016006Y-108650000D01*
X185990256Y-108632795D01*
X185801898Y-108554774D01*
X185601939Y-108515000D01*
X185398061Y-108515000D01*
X185198102Y-108554774D01*
X185009744Y-108632795D01*
X184840226Y-108746063D01*
X184696063Y-108890226D01*
X184582795Y-109059744D01*
X184504774Y-109248102D01*
X184465000Y-109448061D01*
X181535000Y-109448061D01*
X181495226Y-109248102D01*
X181417205Y-109059744D01*
X181303937Y-108890226D01*
X181159774Y-108746063D01*
X180990256Y-108632795D01*
X180801898Y-108554774D01*
X180601939Y-108515000D01*
X180398061Y-108515000D01*
X180198102Y-108554774D01*
X180009744Y-108632795D01*
X179840226Y-108746063D01*
X179696063Y-108890226D01*
X179617558Y-109007718D01*
X179541607Y-108984678D01*
X179275000Y-108958420D01*
X179008394Y-108984678D01*
X178752033Y-109062445D01*
X178515770Y-109188730D01*
X178308683Y-109358682D01*
X178138730Y-109565769D01*
X178012445Y-109802032D01*
X177934678Y-110058393D01*
X177915000Y-110258191D01*
X174352569Y-110258191D01*
X174455990Y-110103411D01*
X174567932Y-109833158D01*
X174625000Y-109546260D01*
X174625000Y-109253740D01*
X174567932Y-108966842D01*
X174455990Y-108696589D01*
X174293475Y-108453368D01*
X174086632Y-108246525D01*
X173843411Y-108084010D01*
X173573158Y-107972068D01*
X173286260Y-107915000D01*
X172993740Y-107915000D01*
X172706842Y-107972068D01*
X172436589Y-108084010D01*
X172193368Y-108246525D01*
X172061513Y-108378380D01*
X172039502Y-108305820D01*
X171980537Y-108195506D01*
X171901185Y-108098815D01*
X171804494Y-108019463D01*
X171694180Y-107960498D01*
X171574482Y-107924188D01*
X171450000Y-107911928D01*
X169750000Y-107911928D01*
X169625518Y-107924188D01*
X169505820Y-107960498D01*
X169395506Y-108019463D01*
X169298815Y-108098815D01*
X169219463Y-108195506D01*
X169160498Y-108305820D01*
X169124188Y-108425518D01*
X169111928Y-108550000D01*
X165228224Y-108550000D01*
X165225812Y-108525518D01*
X165189502Y-108405820D01*
X165130537Y-108295506D01*
X165051185Y-108198815D01*
X164954494Y-108119463D01*
X164844180Y-108060498D01*
X164724482Y-108024188D01*
X164600000Y-108011928D01*
X162900000Y-108011928D01*
X162775518Y-108024188D01*
X162655820Y-108060498D01*
X162545506Y-108119463D01*
X162448815Y-108198815D01*
X162369463Y-108295506D01*
X162310498Y-108405820D01*
X162274188Y-108525518D01*
X162261928Y-108650000D01*
X160890367Y-108650000D01*
X160934656Y-108488109D01*
X161266638Y-107792095D01*
X161716626Y-107165870D01*
X162270403Y-106629223D01*
X162910451Y-106199129D01*
X163616553Y-105889171D01*
X164371457Y-105707935D01*
X164856562Y-105672311D01*
X164865717Y-105675088D01*
G37*
%TD.AperFunction*%
%TD*%
M02*
