M48
; DRILL file {KiCad (5.1.12)-1} date 12/29/21 23:54:52
; FORMAT={-:-/ absolute / inch / decimal}
; #@! TF.CreationDate,2021-12-29T23:54:52+01:00
; #@! TF.GenerationSoftware,Kicad,Pcbnew,(5.1.12)-1
; #@! TF.FileFunction,Plated,1,2,PTH
FMAT,2
INCH
T1C0.0157
T2C0.0217
T3C0.0335
T4C0.0394
%
G90
G05
T1
X6.6339Y-5.1181
X6.8425Y-5.1772
X6.9606Y-5.2087
X7.0098Y-5.2815
X7.0433Y-5.4567
X7.1398Y-4.6319
X7.1535Y-4.311
X7.1535Y-4.3996
X7.2205Y-5.2421
X7.3878Y-5.5276
X7.7047Y-4.8228
X7.7165Y-4.2126
X7.7244Y-4.4488
T4
X6.4469Y-4.311
X6.4469Y-4.411
X6.4469Y-4.511
X6.4469Y-4.611
X6.4469Y-4.711
X6.4469Y-4.811
X6.4469Y-4.911
X6.4469Y-5.011
X6.4469Y-5.111
X6.4469Y-5.211
X6.4469Y-5.311
X6.4469Y-5.411
X6.4469Y-5.511
X6.4469Y-5.611
X6.4469Y-5.711
X6.7165Y-4.3071
X6.8165Y-4.3071
X7.9626Y-4.311
X7.9626Y-4.411
X7.9626Y-4.511
X7.9626Y-4.611
X7.9626Y-4.711
X7.9626Y-4.811
X7.9626Y-4.911
X7.9626Y-5.011
X7.9626Y-5.111
X7.9626Y-5.211
X7.9626Y-5.311
X7.9626Y-5.411
X7.9626Y-5.511
X7.9626Y-5.611
X7.9626Y-5.711
T2
G00X7.0522Y-4.2175
M15
G01X7.0522Y-4.1919
M16
G05
G00X7.3573Y-4.2175
M15
G01X7.3573Y-4.1919
M16
G05
T3
G00X7.0581Y-4.3652
M15
G01X7.0581Y-4.3435
M16
G05
G00X7.3514Y-4.3652
M15
G01X7.3514Y-4.3435
M16
G05
T0
M30
