%TF.GenerationSoftware,KiCad,Pcbnew,(5.1.12)-1*%
%TF.CreationDate,2021-12-29T23:54:55+01:00*%
%TF.ProjectId,STM32_Devkit,53544d33-325f-4446-9576-6b69742e6b69,rev?*%
%TF.SameCoordinates,Original*%
%TF.FileFunction,Copper,L1,Top*%
%TF.FilePolarity,Positive*%
%FSLAX46Y46*%
G04 Gerber Fmt 4.6, Leading zero omitted, Abs format (unit mm)*
G04 Created by KiCad (PCBNEW (5.1.12)-1) date 2021-12-29 23:54:55*
%MOMM*%
%LPD*%
G01*
G04 APERTURE LIST*
%TA.AperFunction,SMDPad,CuDef*%
%ADD10R,0.550000X0.850000*%
%TD*%
%TA.AperFunction,SMDPad,CuDef*%
%ADD11R,0.450000X1.300000*%
%TD*%
%TA.AperFunction,ComponentPad*%
%ADD12O,1.450000X2.000000*%
%TD*%
%TA.AperFunction,ComponentPad*%
%ADD13O,1.150000X1.800000*%
%TD*%
%TA.AperFunction,ComponentPad*%
%ADD14O,1.700000X1.700000*%
%TD*%
%TA.AperFunction,ComponentPad*%
%ADD15R,1.700000X1.700000*%
%TD*%
%TA.AperFunction,SMDPad,CuDef*%
%ADD16R,0.900000X0.800000*%
%TD*%
%TA.AperFunction,SMDPad,CuDef*%
%ADD17R,2.000000X2.400000*%
%TD*%
%TA.AperFunction,ViaPad*%
%ADD18C,0.800000*%
%TD*%
%TA.AperFunction,Conductor*%
%ADD19C,0.250000*%
%TD*%
%TA.AperFunction,Conductor*%
%ADD20C,0.350000*%
%TD*%
%TA.AperFunction,Conductor*%
%ADD21C,0.500000*%
%TD*%
%TA.AperFunction,Conductor*%
%ADD22C,0.200000*%
%TD*%
%TA.AperFunction,Conductor*%
%ADD23C,0.025400*%
%TD*%
%TA.AperFunction,Conductor*%
%ADD24C,0.100000*%
%TD*%
G04 APERTURE END LIST*
D10*
%TO.P,D2,3*%
%TO.N,/Red*%
X190740000Y-116800000D03*
%TO.P,D2,4*%
%TO.N,GND*%
X190740000Y-115040000D03*
%TO.P,D2,1*%
%TO.N,/Gr*%
X189680000Y-115040000D03*
%TO.P,D2,2*%
%TO.N,/Bl*%
X189680000Y-116800000D03*
%TD*%
%TO.P,C1,2*%
%TO.N,GND*%
%TA.AperFunction,SMDPad,CuDef*%
G36*
G01*
X194475000Y-107300000D02*
X194475000Y-106800000D01*
G75*
G02*
X194700000Y-106575000I225000J0D01*
G01*
X195150000Y-106575000D01*
G75*
G02*
X195375000Y-106800000I0J-225000D01*
G01*
X195375000Y-107300000D01*
G75*
G02*
X195150000Y-107525000I-225000J0D01*
G01*
X194700000Y-107525000D01*
G75*
G02*
X194475000Y-107300000I0J225000D01*
G01*
G37*
%TD.AperFunction*%
%TO.P,C1,1*%
%TO.N,VCC*%
%TA.AperFunction,SMDPad,CuDef*%
G36*
G01*
X192925000Y-107300000D02*
X192925000Y-106800000D01*
G75*
G02*
X193150000Y-106575000I225000J0D01*
G01*
X193600000Y-106575000D01*
G75*
G02*
X193825000Y-106800000I0J-225000D01*
G01*
X193825000Y-107300000D01*
G75*
G02*
X193600000Y-107525000I-225000J0D01*
G01*
X193150000Y-107525000D01*
G75*
G02*
X192925000Y-107300000I0J225000D01*
G01*
G37*
%TD.AperFunction*%
%TD*%
%TO.P,C2,1*%
%TO.N,+3V3*%
%TA.AperFunction,SMDPad,CuDef*%
G36*
G01*
X195375000Y-114800000D02*
X195375000Y-115300000D01*
G75*
G02*
X195150000Y-115525000I-225000J0D01*
G01*
X194700000Y-115525000D01*
G75*
G02*
X194475000Y-115300000I0J225000D01*
G01*
X194475000Y-114800000D01*
G75*
G02*
X194700000Y-114575000I225000J0D01*
G01*
X195150000Y-114575000D01*
G75*
G02*
X195375000Y-114800000I0J-225000D01*
G01*
G37*
%TD.AperFunction*%
%TO.P,C2,2*%
%TO.N,GND*%
%TA.AperFunction,SMDPad,CuDef*%
G36*
G01*
X193825000Y-114800000D02*
X193825000Y-115300000D01*
G75*
G02*
X193600000Y-115525000I-225000J0D01*
G01*
X193150000Y-115525000D01*
G75*
G02*
X192925000Y-115300000I0J225000D01*
G01*
X192925000Y-114800000D01*
G75*
G02*
X193150000Y-114575000I225000J0D01*
G01*
X193600000Y-114575000D01*
G75*
G02*
X193825000Y-114800000I0J-225000D01*
G01*
G37*
%TD.AperFunction*%
%TD*%
%TO.P,C3,1*%
%TO.N,+3V3*%
%TA.AperFunction,SMDPad,CuDef*%
G36*
G01*
X174050000Y-134375000D02*
X173550000Y-134375000D01*
G75*
G02*
X173325000Y-134150000I0J225000D01*
G01*
X173325000Y-133700000D01*
G75*
G02*
X173550000Y-133475000I225000J0D01*
G01*
X174050000Y-133475000D01*
G75*
G02*
X174275000Y-133700000I0J-225000D01*
G01*
X174275000Y-134150000D01*
G75*
G02*
X174050000Y-134375000I-225000J0D01*
G01*
G37*
%TD.AperFunction*%
%TO.P,C3,2*%
%TO.N,GND*%
%TA.AperFunction,SMDPad,CuDef*%
G36*
G01*
X174050000Y-132825000D02*
X173550000Y-132825000D01*
G75*
G02*
X173325000Y-132600000I0J225000D01*
G01*
X173325000Y-132150000D01*
G75*
G02*
X173550000Y-131925000I225000J0D01*
G01*
X174050000Y-131925000D01*
G75*
G02*
X174275000Y-132150000I0J-225000D01*
G01*
X174275000Y-132600000D01*
G75*
G02*
X174050000Y-132825000I-225000J0D01*
G01*
G37*
%TD.AperFunction*%
%TD*%
%TO.P,C4,1*%
%TO.N,+3V3*%
%TA.AperFunction,SMDPad,CuDef*%
G36*
G01*
X178630000Y-132940000D02*
X178970000Y-132940000D01*
G75*
G02*
X179110000Y-133080000I0J-140000D01*
G01*
X179110000Y-133360000D01*
G75*
G02*
X178970000Y-133500000I-140000J0D01*
G01*
X178630000Y-133500000D01*
G75*
G02*
X178490000Y-133360000I0J140000D01*
G01*
X178490000Y-133080000D01*
G75*
G02*
X178630000Y-132940000I140000J0D01*
G01*
G37*
%TD.AperFunction*%
%TO.P,C4,2*%
%TO.N,GND*%
%TA.AperFunction,SMDPad,CuDef*%
G36*
G01*
X178630000Y-133900000D02*
X178970000Y-133900000D01*
G75*
G02*
X179110000Y-134040000I0J-140000D01*
G01*
X179110000Y-134320000D01*
G75*
G02*
X178970000Y-134460000I-140000J0D01*
G01*
X178630000Y-134460000D01*
G75*
G02*
X178490000Y-134320000I0J140000D01*
G01*
X178490000Y-134040000D01*
G75*
G02*
X178630000Y-133900000I140000J0D01*
G01*
G37*
%TD.AperFunction*%
%TD*%
%TO.P,C5,2*%
%TO.N,GND*%
%TA.AperFunction,SMDPad,CuDef*%
G36*
G01*
X179200000Y-119620000D02*
X179200000Y-119280000D01*
G75*
G02*
X179340000Y-119140000I140000J0D01*
G01*
X179620000Y-119140000D01*
G75*
G02*
X179760000Y-119280000I0J-140000D01*
G01*
X179760000Y-119620000D01*
G75*
G02*
X179620000Y-119760000I-140000J0D01*
G01*
X179340000Y-119760000D01*
G75*
G02*
X179200000Y-119620000I0J140000D01*
G01*
G37*
%TD.AperFunction*%
%TO.P,C5,1*%
%TO.N,+3V3*%
%TA.AperFunction,SMDPad,CuDef*%
G36*
G01*
X178240000Y-119620000D02*
X178240000Y-119280000D01*
G75*
G02*
X178380000Y-119140000I140000J0D01*
G01*
X178660000Y-119140000D01*
G75*
G02*
X178800000Y-119280000I0J-140000D01*
G01*
X178800000Y-119620000D01*
G75*
G02*
X178660000Y-119760000I-140000J0D01*
G01*
X178380000Y-119760000D01*
G75*
G02*
X178240000Y-119620000I0J140000D01*
G01*
G37*
%TD.AperFunction*%
%TD*%
%TO.P,C6,1*%
%TO.N,+3V3*%
%TA.AperFunction,SMDPad,CuDef*%
G36*
G01*
X176630000Y-130340000D02*
X176970000Y-130340000D01*
G75*
G02*
X177110000Y-130480000I0J-140000D01*
G01*
X177110000Y-130760000D01*
G75*
G02*
X176970000Y-130900000I-140000J0D01*
G01*
X176630000Y-130900000D01*
G75*
G02*
X176490000Y-130760000I0J140000D01*
G01*
X176490000Y-130480000D01*
G75*
G02*
X176630000Y-130340000I140000J0D01*
G01*
G37*
%TD.AperFunction*%
%TO.P,C6,2*%
%TO.N,GND*%
%TA.AperFunction,SMDPad,CuDef*%
G36*
G01*
X176630000Y-131300000D02*
X176970000Y-131300000D01*
G75*
G02*
X177110000Y-131440000I0J-140000D01*
G01*
X177110000Y-131720000D01*
G75*
G02*
X176970000Y-131860000I-140000J0D01*
G01*
X176630000Y-131860000D01*
G75*
G02*
X176490000Y-131720000I0J140000D01*
G01*
X176490000Y-131440000D01*
G75*
G02*
X176630000Y-131300000I140000J0D01*
G01*
G37*
%TD.AperFunction*%
%TD*%
%TO.P,C7,2*%
%TO.N,GND*%
%TA.AperFunction,SMDPad,CuDef*%
G36*
G01*
X190480000Y-123050000D02*
X190820000Y-123050000D01*
G75*
G02*
X190960000Y-123190000I0J-140000D01*
G01*
X190960000Y-123470000D01*
G75*
G02*
X190820000Y-123610000I-140000J0D01*
G01*
X190480000Y-123610000D01*
G75*
G02*
X190340000Y-123470000I0J140000D01*
G01*
X190340000Y-123190000D01*
G75*
G02*
X190480000Y-123050000I140000J0D01*
G01*
G37*
%TD.AperFunction*%
%TO.P,C7,1*%
%TO.N,+3V3*%
%TA.AperFunction,SMDPad,CuDef*%
G36*
G01*
X190480000Y-122090000D02*
X190820000Y-122090000D01*
G75*
G02*
X190960000Y-122230000I0J-140000D01*
G01*
X190960000Y-122510000D01*
G75*
G02*
X190820000Y-122650000I-140000J0D01*
G01*
X190480000Y-122650000D01*
G75*
G02*
X190340000Y-122510000I0J140000D01*
G01*
X190340000Y-122230000D01*
G75*
G02*
X190480000Y-122090000I140000J0D01*
G01*
G37*
%TD.AperFunction*%
%TD*%
%TO.P,C8,1*%
%TO.N,+3.3VA*%
%TA.AperFunction,SMDPad,CuDef*%
G36*
G01*
X185460000Y-133530000D02*
X185460000Y-133870000D01*
G75*
G02*
X185320000Y-134010000I-140000J0D01*
G01*
X185040000Y-134010000D01*
G75*
G02*
X184900000Y-133870000I0J140000D01*
G01*
X184900000Y-133530000D01*
G75*
G02*
X185040000Y-133390000I140000J0D01*
G01*
X185320000Y-133390000D01*
G75*
G02*
X185460000Y-133530000I0J-140000D01*
G01*
G37*
%TD.AperFunction*%
%TO.P,C8,2*%
%TO.N,GND*%
%TA.AperFunction,SMDPad,CuDef*%
G36*
G01*
X184500000Y-133530000D02*
X184500000Y-133870000D01*
G75*
G02*
X184360000Y-134010000I-140000J0D01*
G01*
X184080000Y-134010000D01*
G75*
G02*
X183940000Y-133870000I0J140000D01*
G01*
X183940000Y-133530000D01*
G75*
G02*
X184080000Y-133390000I140000J0D01*
G01*
X184360000Y-133390000D01*
G75*
G02*
X184500000Y-133530000I0J-140000D01*
G01*
G37*
%TD.AperFunction*%
%TD*%
%TO.P,C9,2*%
%TO.N,GND*%
%TA.AperFunction,SMDPad,CuDef*%
G36*
G01*
X184500000Y-134830000D02*
X184500000Y-135170000D01*
G75*
G02*
X184360000Y-135310000I-140000J0D01*
G01*
X184080000Y-135310000D01*
G75*
G02*
X183940000Y-135170000I0J140000D01*
G01*
X183940000Y-134830000D01*
G75*
G02*
X184080000Y-134690000I140000J0D01*
G01*
X184360000Y-134690000D01*
G75*
G02*
X184500000Y-134830000I0J-140000D01*
G01*
G37*
%TD.AperFunction*%
%TO.P,C9,1*%
%TO.N,+3.3VA*%
%TA.AperFunction,SMDPad,CuDef*%
G36*
G01*
X185460000Y-134830000D02*
X185460000Y-135170000D01*
G75*
G02*
X185320000Y-135310000I-140000J0D01*
G01*
X185040000Y-135310000D01*
G75*
G02*
X184900000Y-135170000I0J140000D01*
G01*
X184900000Y-134830000D01*
G75*
G02*
X185040000Y-134690000I140000J0D01*
G01*
X185320000Y-134690000D01*
G75*
G02*
X185460000Y-134830000I0J-140000D01*
G01*
G37*
%TD.AperFunction*%
%TD*%
%TO.P,C10,1*%
%TO.N,/HSE_OUT*%
%TA.AperFunction,SMDPad,CuDef*%
G36*
G01*
X179070000Y-140560000D02*
X178730000Y-140560000D01*
G75*
G02*
X178590000Y-140420000I0J140000D01*
G01*
X178590000Y-140140000D01*
G75*
G02*
X178730000Y-140000000I140000J0D01*
G01*
X179070000Y-140000000D01*
G75*
G02*
X179210000Y-140140000I0J-140000D01*
G01*
X179210000Y-140420000D01*
G75*
G02*
X179070000Y-140560000I-140000J0D01*
G01*
G37*
%TD.AperFunction*%
%TO.P,C10,2*%
%TO.N,GND*%
%TA.AperFunction,SMDPad,CuDef*%
G36*
G01*
X179070000Y-139600000D02*
X178730000Y-139600000D01*
G75*
G02*
X178590000Y-139460000I0J140000D01*
G01*
X178590000Y-139180000D01*
G75*
G02*
X178730000Y-139040000I140000J0D01*
G01*
X179070000Y-139040000D01*
G75*
G02*
X179210000Y-139180000I0J-140000D01*
G01*
X179210000Y-139460000D01*
G75*
G02*
X179070000Y-139600000I-140000J0D01*
G01*
G37*
%TD.AperFunction*%
%TD*%
%TO.P,C11,2*%
%TO.N,GND*%
%TA.AperFunction,SMDPad,CuDef*%
G36*
G01*
X186730000Y-140100000D02*
X187070000Y-140100000D01*
G75*
G02*
X187210000Y-140240000I0J-140000D01*
G01*
X187210000Y-140520000D01*
G75*
G02*
X187070000Y-140660000I-140000J0D01*
G01*
X186730000Y-140660000D01*
G75*
G02*
X186590000Y-140520000I0J140000D01*
G01*
X186590000Y-140240000D01*
G75*
G02*
X186730000Y-140100000I140000J0D01*
G01*
G37*
%TD.AperFunction*%
%TO.P,C11,1*%
%TO.N,/HSE_IN*%
%TA.AperFunction,SMDPad,CuDef*%
G36*
G01*
X186730000Y-139140000D02*
X187070000Y-139140000D01*
G75*
G02*
X187210000Y-139280000I0J-140000D01*
G01*
X187210000Y-139560000D01*
G75*
G02*
X187070000Y-139700000I-140000J0D01*
G01*
X186730000Y-139700000D01*
G75*
G02*
X186590000Y-139560000I0J140000D01*
G01*
X186590000Y-139280000D01*
G75*
G02*
X186730000Y-139140000I140000J0D01*
G01*
G37*
%TD.AperFunction*%
%TD*%
%TO.P,D1,1*%
%TO.N,Net-(D1-Pad1)*%
%TA.AperFunction,SMDPad,CuDef*%
G36*
G01*
X197906250Y-110237500D02*
X197393750Y-110237500D01*
G75*
G02*
X197175000Y-110018750I0J218750D01*
G01*
X197175000Y-109581250D01*
G75*
G02*
X197393750Y-109362500I218750J0D01*
G01*
X197906250Y-109362500D01*
G75*
G02*
X198125000Y-109581250I0J-218750D01*
G01*
X198125000Y-110018750D01*
G75*
G02*
X197906250Y-110237500I-218750J0D01*
G01*
G37*
%TD.AperFunction*%
%TO.P,D1,2*%
%TO.N,+3V3*%
%TA.AperFunction,SMDPad,CuDef*%
G36*
G01*
X197906250Y-108662500D02*
X197393750Y-108662500D01*
G75*
G02*
X197175000Y-108443750I0J218750D01*
G01*
X197175000Y-108006250D01*
G75*
G02*
X197393750Y-107787500I218750J0D01*
G01*
X197906250Y-107787500D01*
G75*
G02*
X198125000Y-108006250I0J-218750D01*
G01*
X198125000Y-108443750D01*
G75*
G02*
X197906250Y-108662500I-218750J0D01*
G01*
G37*
%TD.AperFunction*%
%TD*%
%TO.P,FB1,1*%
%TO.N,VCC*%
%TA.AperFunction,SMDPad,CuDef*%
G36*
G01*
X189918750Y-109600000D02*
X190681250Y-109600000D01*
G75*
G02*
X190900000Y-109818750I0J-218750D01*
G01*
X190900000Y-110256250D01*
G75*
G02*
X190681250Y-110475000I-218750J0D01*
G01*
X189918750Y-110475000D01*
G75*
G02*
X189700000Y-110256250I0J218750D01*
G01*
X189700000Y-109818750D01*
G75*
G02*
X189918750Y-109600000I218750J0D01*
G01*
G37*
%TD.AperFunction*%
%TO.P,FB1,2*%
%TO.N,+5V*%
%TA.AperFunction,SMDPad,CuDef*%
G36*
G01*
X189918750Y-111725000D02*
X190681250Y-111725000D01*
G75*
G02*
X190900000Y-111943750I0J-218750D01*
G01*
X190900000Y-112381250D01*
G75*
G02*
X190681250Y-112600000I-218750J0D01*
G01*
X189918750Y-112600000D01*
G75*
G02*
X189700000Y-112381250I0J218750D01*
G01*
X189700000Y-111943750D01*
G75*
G02*
X189918750Y-111725000I218750J0D01*
G01*
G37*
%TD.AperFunction*%
%TD*%
D11*
%TO.P,J1,1*%
%TO.N,+5V*%
X184300000Y-110650000D03*
%TO.P,J1,2*%
%TO.N,USB_D-*%
X183650000Y-110650000D03*
%TO.P,J1,3*%
%TO.N,USB_D+*%
X183000000Y-110650000D03*
%TO.P,J1,4*%
%TO.N,Net-(J1-Pad4)*%
X182350000Y-110650000D03*
%TO.P,J1,5*%
%TO.N,GND*%
X181700000Y-110650000D03*
D12*
%TO.P,J1,6*%
%TO.N,Net-(J1-Pad6)*%
X186725000Y-110600000D03*
X179275000Y-110600000D03*
D13*
X186875000Y-106800000D03*
X179125000Y-106800000D03*
%TD*%
D14*
%TO.P,J2,15*%
%TO.N,PC15*%
X163750000Y-145060000D03*
%TO.P,J2,14*%
%TO.N,PC14*%
X163750000Y-142520000D03*
%TO.P,J2,13*%
%TO.N,PC13*%
X163750000Y-139980000D03*
%TO.P,J2,12*%
%TO.N,PB9*%
X163750000Y-137440000D03*
%TO.P,J2,11*%
%TO.N,PB8*%
X163750000Y-134900000D03*
%TO.P,J2,10*%
%TO.N,PB7*%
X163750000Y-132360000D03*
%TO.P,J2,9*%
%TO.N,PB6*%
X163750000Y-129820000D03*
%TO.P,J2,8*%
%TO.N,PB5*%
X163750000Y-127280000D03*
%TO.P,J2,7*%
%TO.N,PB4*%
X163750000Y-124740000D03*
%TO.P,J2,6*%
%TO.N,SWO*%
X163750000Y-122200000D03*
%TO.P,J2,5*%
%TO.N,PA15*%
X163750000Y-119660000D03*
%TO.P,J2,4*%
%TO.N,SWCLK*%
X163750000Y-117120000D03*
%TO.P,J2,3*%
%TO.N,SWDIO*%
X163750000Y-114580000D03*
%TO.P,J2,2*%
%TO.N,GND*%
X163750000Y-112040000D03*
D15*
%TO.P,J2,1*%
%TO.N,+3V3*%
X163750000Y-109500000D03*
%TD*%
%TO.P,J3,1*%
%TO.N,+3V3*%
X202250000Y-109500000D03*
D14*
%TO.P,J3,2*%
%TO.N,GND*%
X202250000Y-112040000D03*
%TO.P,J3,3*%
%TO.N,PB15*%
X202250000Y-114580000D03*
%TO.P,J3,4*%
%TO.N,PB14*%
X202250000Y-117120000D03*
%TO.P,J3,5*%
%TO.N,PB11*%
X202250000Y-119660000D03*
%TO.P,J3,6*%
%TO.N,PB10*%
X202250000Y-122200000D03*
%TO.P,J3,7*%
%TO.N,PB2*%
X202250000Y-124740000D03*
%TO.P,J3,8*%
%TO.N,PB1*%
X202250000Y-127280000D03*
%TO.P,J3,9*%
%TO.N,PB0*%
X202250000Y-129820000D03*
%TO.P,J3,10*%
%TO.N,PA5*%
X202250000Y-132360000D03*
%TO.P,J3,11*%
%TO.N,PA4*%
X202250000Y-134900000D03*
%TO.P,J3,12*%
%TO.N,PA3*%
X202250000Y-137440000D03*
%TO.P,J3,13*%
%TO.N,PA0*%
X202250000Y-139980000D03*
%TO.P,J3,14*%
%TO.N,GND*%
X202250000Y-142520000D03*
%TO.P,J3,15*%
X202250000Y-145060000D03*
%TD*%
D15*
%TO.P,JP1,1*%
%TO.N,+3V3*%
X170600000Y-109400000D03*
D14*
%TO.P,JP1,2*%
%TO.N,/BOOT0*%
X173140000Y-109400000D03*
%TD*%
%TO.P,L1,1*%
%TO.N,+3V3*%
%TA.AperFunction,SMDPad,CuDef*%
G36*
G01*
X186672500Y-135180000D02*
X186327500Y-135180000D01*
G75*
G02*
X186180000Y-135032500I0J147500D01*
G01*
X186180000Y-134737500D01*
G75*
G02*
X186327500Y-134590000I147500J0D01*
G01*
X186672500Y-134590000D01*
G75*
G02*
X186820000Y-134737500I0J-147500D01*
G01*
X186820000Y-135032500D01*
G75*
G02*
X186672500Y-135180000I-147500J0D01*
G01*
G37*
%TD.AperFunction*%
%TO.P,L1,2*%
%TO.N,+3.3VA*%
%TA.AperFunction,SMDPad,CuDef*%
G36*
G01*
X186672500Y-134210000D02*
X186327500Y-134210000D01*
G75*
G02*
X186180000Y-134062500I0J147500D01*
G01*
X186180000Y-133767500D01*
G75*
G02*
X186327500Y-133620000I147500J0D01*
G01*
X186672500Y-133620000D01*
G75*
G02*
X186820000Y-133767500I0J-147500D01*
G01*
X186820000Y-134062500D01*
G75*
G02*
X186672500Y-134210000I-147500J0D01*
G01*
G37*
%TD.AperFunction*%
%TD*%
%TO.P,R1,1*%
%TO.N,Net-(D1-Pad1)*%
%TA.AperFunction,SMDPad,CuDef*%
G36*
G01*
X197375000Y-111575000D02*
X197925000Y-111575000D01*
G75*
G02*
X198125000Y-111775000I0J-200000D01*
G01*
X198125000Y-112175000D01*
G75*
G02*
X197925000Y-112375000I-200000J0D01*
G01*
X197375000Y-112375000D01*
G75*
G02*
X197175000Y-112175000I0J200000D01*
G01*
X197175000Y-111775000D01*
G75*
G02*
X197375000Y-111575000I200000J0D01*
G01*
G37*
%TD.AperFunction*%
%TO.P,R1,2*%
%TO.N,GND*%
%TA.AperFunction,SMDPad,CuDef*%
G36*
G01*
X197375000Y-113225000D02*
X197925000Y-113225000D01*
G75*
G02*
X198125000Y-113425000I0J-200000D01*
G01*
X198125000Y-113825000D01*
G75*
G02*
X197925000Y-114025000I-200000J0D01*
G01*
X197375000Y-114025000D01*
G75*
G02*
X197175000Y-113825000I0J200000D01*
G01*
X197175000Y-113425000D01*
G75*
G02*
X197375000Y-113225000I200000J0D01*
G01*
G37*
%TD.AperFunction*%
%TD*%
%TO.P,R2,1*%
%TO.N,/Red*%
%TA.AperFunction,SMDPad,CuDef*%
G36*
G01*
X191425000Y-119125000D02*
X191425000Y-119675000D01*
G75*
G02*
X191225000Y-119875000I-200000J0D01*
G01*
X190825000Y-119875000D01*
G75*
G02*
X190625000Y-119675000I0J200000D01*
G01*
X190625000Y-119125000D01*
G75*
G02*
X190825000Y-118925000I200000J0D01*
G01*
X191225000Y-118925000D01*
G75*
G02*
X191425000Y-119125000I0J-200000D01*
G01*
G37*
%TD.AperFunction*%
%TO.P,R2,2*%
%TO.N,PA8*%
%TA.AperFunction,SMDPad,CuDef*%
G36*
G01*
X189775000Y-119125000D02*
X189775000Y-119675000D01*
G75*
G02*
X189575000Y-119875000I-200000J0D01*
G01*
X189175000Y-119875000D01*
G75*
G02*
X188975000Y-119675000I0J200000D01*
G01*
X188975000Y-119125000D01*
G75*
G02*
X189175000Y-118925000I200000J0D01*
G01*
X189575000Y-118925000D01*
G75*
G02*
X189775000Y-119125000I0J-200000D01*
G01*
G37*
%TD.AperFunction*%
%TD*%
%TO.P,R3,2*%
%TO.N,PA9*%
%TA.AperFunction,SMDPad,CuDef*%
G36*
G01*
X186925000Y-118500000D02*
X187475000Y-118500000D01*
G75*
G02*
X187675000Y-118700000I0J-200000D01*
G01*
X187675000Y-119100000D01*
G75*
G02*
X187475000Y-119300000I-200000J0D01*
G01*
X186925000Y-119300000D01*
G75*
G02*
X186725000Y-119100000I0J200000D01*
G01*
X186725000Y-118700000D01*
G75*
G02*
X186925000Y-118500000I200000J0D01*
G01*
G37*
%TD.AperFunction*%
%TO.P,R3,1*%
%TO.N,/Bl*%
%TA.AperFunction,SMDPad,CuDef*%
G36*
G01*
X186925000Y-116850000D02*
X187475000Y-116850000D01*
G75*
G02*
X187675000Y-117050000I0J-200000D01*
G01*
X187675000Y-117450000D01*
G75*
G02*
X187475000Y-117650000I-200000J0D01*
G01*
X186925000Y-117650000D01*
G75*
G02*
X186725000Y-117450000I0J200000D01*
G01*
X186725000Y-117050000D01*
G75*
G02*
X186925000Y-116850000I200000J0D01*
G01*
G37*
%TD.AperFunction*%
%TD*%
%TO.P,R4,1*%
%TO.N,/Gr*%
%TA.AperFunction,SMDPad,CuDef*%
G36*
G01*
X188200000Y-114725000D02*
X188200000Y-115275000D01*
G75*
G02*
X188000000Y-115475000I-200000J0D01*
G01*
X187600000Y-115475000D01*
G75*
G02*
X187400000Y-115275000I0J200000D01*
G01*
X187400000Y-114725000D01*
G75*
G02*
X187600000Y-114525000I200000J0D01*
G01*
X188000000Y-114525000D01*
G75*
G02*
X188200000Y-114725000I0J-200000D01*
G01*
G37*
%TD.AperFunction*%
%TO.P,R4,2*%
%TO.N,PA10*%
%TA.AperFunction,SMDPad,CuDef*%
G36*
G01*
X186550000Y-114725000D02*
X186550000Y-115275000D01*
G75*
G02*
X186350000Y-115475000I-200000J0D01*
G01*
X185950000Y-115475000D01*
G75*
G02*
X185750000Y-115275000I0J200000D01*
G01*
X185750000Y-114725000D01*
G75*
G02*
X185950000Y-114525000I200000J0D01*
G01*
X186350000Y-114525000D01*
G75*
G02*
X186550000Y-114725000I0J-200000D01*
G01*
G37*
%TD.AperFunction*%
%TD*%
%TO.P,R5,2*%
%TO.N,GND*%
%TA.AperFunction,SMDPad,CuDef*%
G36*
G01*
X169775000Y-128725000D02*
X169775000Y-129275000D01*
G75*
G02*
X169575000Y-129475000I-200000J0D01*
G01*
X169175000Y-129475000D01*
G75*
G02*
X168975000Y-129275000I0J200000D01*
G01*
X168975000Y-128725000D01*
G75*
G02*
X169175000Y-128525000I200000J0D01*
G01*
X169575000Y-128525000D01*
G75*
G02*
X169775000Y-128725000I0J-200000D01*
G01*
G37*
%TD.AperFunction*%
%TO.P,R5,1*%
%TO.N,/BOOT0*%
%TA.AperFunction,SMDPad,CuDef*%
G36*
G01*
X171425000Y-128725000D02*
X171425000Y-129275000D01*
G75*
G02*
X171225000Y-129475000I-200000J0D01*
G01*
X170825000Y-129475000D01*
G75*
G02*
X170625000Y-129275000I0J200000D01*
G01*
X170625000Y-128725000D01*
G75*
G02*
X170825000Y-128525000I200000J0D01*
G01*
X171225000Y-128525000D01*
G75*
G02*
X171425000Y-128725000I0J-200000D01*
G01*
G37*
%TD.AperFunction*%
%TD*%
%TO.P,R6,1*%
%TO.N,+3V3*%
%TA.AperFunction,SMDPad,CuDef*%
G36*
G01*
X181520000Y-114485000D02*
X181520000Y-114115000D01*
G75*
G02*
X181655000Y-113980000I135000J0D01*
G01*
X181925000Y-113980000D01*
G75*
G02*
X182060000Y-114115000I0J-135000D01*
G01*
X182060000Y-114485000D01*
G75*
G02*
X181925000Y-114620000I-135000J0D01*
G01*
X181655000Y-114620000D01*
G75*
G02*
X181520000Y-114485000I0J135000D01*
G01*
G37*
%TD.AperFunction*%
%TO.P,R6,2*%
%TO.N,USB_D+*%
%TA.AperFunction,SMDPad,CuDef*%
G36*
G01*
X182540000Y-114485000D02*
X182540000Y-114115000D01*
G75*
G02*
X182675000Y-113980000I135000J0D01*
G01*
X182945000Y-113980000D01*
G75*
G02*
X183080000Y-114115000I0J-135000D01*
G01*
X183080000Y-114485000D01*
G75*
G02*
X182945000Y-114620000I-135000J0D01*
G01*
X182675000Y-114620000D01*
G75*
G02*
X182540000Y-114485000I0J135000D01*
G01*
G37*
%TD.AperFunction*%
%TD*%
D16*
%TO.P,U1,1*%
%TO.N,GND*%
X194900000Y-112000000D03*
%TO.P,U1,2*%
%TO.N,+3V3*%
X194900000Y-110100000D03*
%TO.P,U1,3*%
%TO.N,VCC*%
X192900000Y-111050000D03*
%TD*%
%TO.P,U2,1*%
%TO.N,+3V3*%
%TA.AperFunction,SMDPad,CuDef*%
G36*
G01*
X180225000Y-132450000D02*
X180075000Y-132450000D01*
G75*
G02*
X180000000Y-132375000I0J75000D01*
G01*
X180000000Y-131050000D01*
G75*
G02*
X180075000Y-130975000I75000J0D01*
G01*
X180225000Y-130975000D01*
G75*
G02*
X180300000Y-131050000I0J-75000D01*
G01*
X180300000Y-132375000D01*
G75*
G02*
X180225000Y-132450000I-75000J0D01*
G01*
G37*
%TD.AperFunction*%
%TO.P,U2,2*%
%TO.N,PC13*%
%TA.AperFunction,SMDPad,CuDef*%
G36*
G01*
X180725000Y-132450000D02*
X180575000Y-132450000D01*
G75*
G02*
X180500000Y-132375000I0J75000D01*
G01*
X180500000Y-131050000D01*
G75*
G02*
X180575000Y-130975000I75000J0D01*
G01*
X180725000Y-130975000D01*
G75*
G02*
X180800000Y-131050000I0J-75000D01*
G01*
X180800000Y-132375000D01*
G75*
G02*
X180725000Y-132450000I-75000J0D01*
G01*
G37*
%TD.AperFunction*%
%TO.P,U2,3*%
%TO.N,PC14*%
%TA.AperFunction,SMDPad,CuDef*%
G36*
G01*
X181225000Y-132450000D02*
X181075000Y-132450000D01*
G75*
G02*
X181000000Y-132375000I0J75000D01*
G01*
X181000000Y-131050000D01*
G75*
G02*
X181075000Y-130975000I75000J0D01*
G01*
X181225000Y-130975000D01*
G75*
G02*
X181300000Y-131050000I0J-75000D01*
G01*
X181300000Y-132375000D01*
G75*
G02*
X181225000Y-132450000I-75000J0D01*
G01*
G37*
%TD.AperFunction*%
%TO.P,U2,4*%
%TO.N,PC15*%
%TA.AperFunction,SMDPad,CuDef*%
G36*
G01*
X181725000Y-132450000D02*
X181575000Y-132450000D01*
G75*
G02*
X181500000Y-132375000I0J75000D01*
G01*
X181500000Y-131050000D01*
G75*
G02*
X181575000Y-130975000I75000J0D01*
G01*
X181725000Y-130975000D01*
G75*
G02*
X181800000Y-131050000I0J-75000D01*
G01*
X181800000Y-132375000D01*
G75*
G02*
X181725000Y-132450000I-75000J0D01*
G01*
G37*
%TD.AperFunction*%
%TO.P,U2,5*%
%TO.N,/HSE_OUT*%
%TA.AperFunction,SMDPad,CuDef*%
G36*
G01*
X182225000Y-132450000D02*
X182075000Y-132450000D01*
G75*
G02*
X182000000Y-132375000I0J75000D01*
G01*
X182000000Y-131050000D01*
G75*
G02*
X182075000Y-130975000I75000J0D01*
G01*
X182225000Y-130975000D01*
G75*
G02*
X182300000Y-131050000I0J-75000D01*
G01*
X182300000Y-132375000D01*
G75*
G02*
X182225000Y-132450000I-75000J0D01*
G01*
G37*
%TD.AperFunction*%
%TO.P,U2,6*%
%TO.N,/HSE_IN*%
%TA.AperFunction,SMDPad,CuDef*%
G36*
G01*
X182725000Y-132450000D02*
X182575000Y-132450000D01*
G75*
G02*
X182500000Y-132375000I0J75000D01*
G01*
X182500000Y-131050000D01*
G75*
G02*
X182575000Y-130975000I75000J0D01*
G01*
X182725000Y-130975000D01*
G75*
G02*
X182800000Y-131050000I0J-75000D01*
G01*
X182800000Y-132375000D01*
G75*
G02*
X182725000Y-132450000I-75000J0D01*
G01*
G37*
%TD.AperFunction*%
%TO.P,U2,7*%
%TO.N,Net-(U2-Pad7)*%
%TA.AperFunction,SMDPad,CuDef*%
G36*
G01*
X183225000Y-132450000D02*
X183075000Y-132450000D01*
G75*
G02*
X183000000Y-132375000I0J75000D01*
G01*
X183000000Y-131050000D01*
G75*
G02*
X183075000Y-130975000I75000J0D01*
G01*
X183225000Y-130975000D01*
G75*
G02*
X183300000Y-131050000I0J-75000D01*
G01*
X183300000Y-132375000D01*
G75*
G02*
X183225000Y-132450000I-75000J0D01*
G01*
G37*
%TD.AperFunction*%
%TO.P,U2,8*%
%TO.N,GND*%
%TA.AperFunction,SMDPad,CuDef*%
G36*
G01*
X183725000Y-132450000D02*
X183575000Y-132450000D01*
G75*
G02*
X183500000Y-132375000I0J75000D01*
G01*
X183500000Y-131050000D01*
G75*
G02*
X183575000Y-130975000I75000J0D01*
G01*
X183725000Y-130975000D01*
G75*
G02*
X183800000Y-131050000I0J-75000D01*
G01*
X183800000Y-132375000D01*
G75*
G02*
X183725000Y-132450000I-75000J0D01*
G01*
G37*
%TD.AperFunction*%
%TO.P,U2,9*%
%TO.N,+3.3VA*%
%TA.AperFunction,SMDPad,CuDef*%
G36*
G01*
X184225000Y-132450000D02*
X184075000Y-132450000D01*
G75*
G02*
X184000000Y-132375000I0J75000D01*
G01*
X184000000Y-131050000D01*
G75*
G02*
X184075000Y-130975000I75000J0D01*
G01*
X184225000Y-130975000D01*
G75*
G02*
X184300000Y-131050000I0J-75000D01*
G01*
X184300000Y-132375000D01*
G75*
G02*
X184225000Y-132450000I-75000J0D01*
G01*
G37*
%TD.AperFunction*%
%TO.P,U2,10*%
%TO.N,PA0*%
%TA.AperFunction,SMDPad,CuDef*%
G36*
G01*
X184725000Y-132450000D02*
X184575000Y-132450000D01*
G75*
G02*
X184500000Y-132375000I0J75000D01*
G01*
X184500000Y-131050000D01*
G75*
G02*
X184575000Y-130975000I75000J0D01*
G01*
X184725000Y-130975000D01*
G75*
G02*
X184800000Y-131050000I0J-75000D01*
G01*
X184800000Y-132375000D01*
G75*
G02*
X184725000Y-132450000I-75000J0D01*
G01*
G37*
%TD.AperFunction*%
%TO.P,U2,11*%
%TO.N,Net-(U2-Pad11)*%
%TA.AperFunction,SMDPad,CuDef*%
G36*
G01*
X185225000Y-132450000D02*
X185075000Y-132450000D01*
G75*
G02*
X185000000Y-132375000I0J75000D01*
G01*
X185000000Y-131050000D01*
G75*
G02*
X185075000Y-130975000I75000J0D01*
G01*
X185225000Y-130975000D01*
G75*
G02*
X185300000Y-131050000I0J-75000D01*
G01*
X185300000Y-132375000D01*
G75*
G02*
X185225000Y-132450000I-75000J0D01*
G01*
G37*
%TD.AperFunction*%
%TO.P,U2,12*%
%TO.N,Net-(U2-Pad12)*%
%TA.AperFunction,SMDPad,CuDef*%
G36*
G01*
X185725000Y-132450000D02*
X185575000Y-132450000D01*
G75*
G02*
X185500000Y-132375000I0J75000D01*
G01*
X185500000Y-131050000D01*
G75*
G02*
X185575000Y-130975000I75000J0D01*
G01*
X185725000Y-130975000D01*
G75*
G02*
X185800000Y-131050000I0J-75000D01*
G01*
X185800000Y-132375000D01*
G75*
G02*
X185725000Y-132450000I-75000J0D01*
G01*
G37*
%TD.AperFunction*%
%TO.P,U2,13*%
%TO.N,PA3*%
%TA.AperFunction,SMDPad,CuDef*%
G36*
G01*
X187725000Y-130450000D02*
X186400000Y-130450000D01*
G75*
G02*
X186325000Y-130375000I0J75000D01*
G01*
X186325000Y-130225000D01*
G75*
G02*
X186400000Y-130150000I75000J0D01*
G01*
X187725000Y-130150000D01*
G75*
G02*
X187800000Y-130225000I0J-75000D01*
G01*
X187800000Y-130375000D01*
G75*
G02*
X187725000Y-130450000I-75000J0D01*
G01*
G37*
%TD.AperFunction*%
%TO.P,U2,14*%
%TO.N,PA4*%
%TA.AperFunction,SMDPad,CuDef*%
G36*
G01*
X187725000Y-129950000D02*
X186400000Y-129950000D01*
G75*
G02*
X186325000Y-129875000I0J75000D01*
G01*
X186325000Y-129725000D01*
G75*
G02*
X186400000Y-129650000I75000J0D01*
G01*
X187725000Y-129650000D01*
G75*
G02*
X187800000Y-129725000I0J-75000D01*
G01*
X187800000Y-129875000D01*
G75*
G02*
X187725000Y-129950000I-75000J0D01*
G01*
G37*
%TD.AperFunction*%
%TO.P,U2,15*%
%TO.N,PA5*%
%TA.AperFunction,SMDPad,CuDef*%
G36*
G01*
X187725000Y-129450000D02*
X186400000Y-129450000D01*
G75*
G02*
X186325000Y-129375000I0J75000D01*
G01*
X186325000Y-129225000D01*
G75*
G02*
X186400000Y-129150000I75000J0D01*
G01*
X187725000Y-129150000D01*
G75*
G02*
X187800000Y-129225000I0J-75000D01*
G01*
X187800000Y-129375000D01*
G75*
G02*
X187725000Y-129450000I-75000J0D01*
G01*
G37*
%TD.AperFunction*%
%TO.P,U2,16*%
%TO.N,Net-(U2-Pad16)*%
%TA.AperFunction,SMDPad,CuDef*%
G36*
G01*
X187725000Y-128950000D02*
X186400000Y-128950000D01*
G75*
G02*
X186325000Y-128875000I0J75000D01*
G01*
X186325000Y-128725000D01*
G75*
G02*
X186400000Y-128650000I75000J0D01*
G01*
X187725000Y-128650000D01*
G75*
G02*
X187800000Y-128725000I0J-75000D01*
G01*
X187800000Y-128875000D01*
G75*
G02*
X187725000Y-128950000I-75000J0D01*
G01*
G37*
%TD.AperFunction*%
%TO.P,U2,17*%
%TO.N,Net-(U2-Pad17)*%
%TA.AperFunction,SMDPad,CuDef*%
G36*
G01*
X187725000Y-128450000D02*
X186400000Y-128450000D01*
G75*
G02*
X186325000Y-128375000I0J75000D01*
G01*
X186325000Y-128225000D01*
G75*
G02*
X186400000Y-128150000I75000J0D01*
G01*
X187725000Y-128150000D01*
G75*
G02*
X187800000Y-128225000I0J-75000D01*
G01*
X187800000Y-128375000D01*
G75*
G02*
X187725000Y-128450000I-75000J0D01*
G01*
G37*
%TD.AperFunction*%
%TO.P,U2,18*%
%TO.N,PB0*%
%TA.AperFunction,SMDPad,CuDef*%
G36*
G01*
X187725000Y-127950000D02*
X186400000Y-127950000D01*
G75*
G02*
X186325000Y-127875000I0J75000D01*
G01*
X186325000Y-127725000D01*
G75*
G02*
X186400000Y-127650000I75000J0D01*
G01*
X187725000Y-127650000D01*
G75*
G02*
X187800000Y-127725000I0J-75000D01*
G01*
X187800000Y-127875000D01*
G75*
G02*
X187725000Y-127950000I-75000J0D01*
G01*
G37*
%TD.AperFunction*%
%TO.P,U2,19*%
%TO.N,PB1*%
%TA.AperFunction,SMDPad,CuDef*%
G36*
G01*
X187725000Y-127450000D02*
X186400000Y-127450000D01*
G75*
G02*
X186325000Y-127375000I0J75000D01*
G01*
X186325000Y-127225000D01*
G75*
G02*
X186400000Y-127150000I75000J0D01*
G01*
X187725000Y-127150000D01*
G75*
G02*
X187800000Y-127225000I0J-75000D01*
G01*
X187800000Y-127375000D01*
G75*
G02*
X187725000Y-127450000I-75000J0D01*
G01*
G37*
%TD.AperFunction*%
%TO.P,U2,20*%
%TO.N,PB2*%
%TA.AperFunction,SMDPad,CuDef*%
G36*
G01*
X187725000Y-126950000D02*
X186400000Y-126950000D01*
G75*
G02*
X186325000Y-126875000I0J75000D01*
G01*
X186325000Y-126725000D01*
G75*
G02*
X186400000Y-126650000I75000J0D01*
G01*
X187725000Y-126650000D01*
G75*
G02*
X187800000Y-126725000I0J-75000D01*
G01*
X187800000Y-126875000D01*
G75*
G02*
X187725000Y-126950000I-75000J0D01*
G01*
G37*
%TD.AperFunction*%
%TO.P,U2,21*%
%TO.N,PB10*%
%TA.AperFunction,SMDPad,CuDef*%
G36*
G01*
X187725000Y-126450000D02*
X186400000Y-126450000D01*
G75*
G02*
X186325000Y-126375000I0J75000D01*
G01*
X186325000Y-126225000D01*
G75*
G02*
X186400000Y-126150000I75000J0D01*
G01*
X187725000Y-126150000D01*
G75*
G02*
X187800000Y-126225000I0J-75000D01*
G01*
X187800000Y-126375000D01*
G75*
G02*
X187725000Y-126450000I-75000J0D01*
G01*
G37*
%TD.AperFunction*%
%TO.P,U2,22*%
%TO.N,PB11*%
%TA.AperFunction,SMDPad,CuDef*%
G36*
G01*
X187725000Y-125950000D02*
X186400000Y-125950000D01*
G75*
G02*
X186325000Y-125875000I0J75000D01*
G01*
X186325000Y-125725000D01*
G75*
G02*
X186400000Y-125650000I75000J0D01*
G01*
X187725000Y-125650000D01*
G75*
G02*
X187800000Y-125725000I0J-75000D01*
G01*
X187800000Y-125875000D01*
G75*
G02*
X187725000Y-125950000I-75000J0D01*
G01*
G37*
%TD.AperFunction*%
%TO.P,U2,23*%
%TO.N,GND*%
%TA.AperFunction,SMDPad,CuDef*%
G36*
G01*
X187725000Y-125450000D02*
X186400000Y-125450000D01*
G75*
G02*
X186325000Y-125375000I0J75000D01*
G01*
X186325000Y-125225000D01*
G75*
G02*
X186400000Y-125150000I75000J0D01*
G01*
X187725000Y-125150000D01*
G75*
G02*
X187800000Y-125225000I0J-75000D01*
G01*
X187800000Y-125375000D01*
G75*
G02*
X187725000Y-125450000I-75000J0D01*
G01*
G37*
%TD.AperFunction*%
%TO.P,U2,24*%
%TO.N,+3V3*%
%TA.AperFunction,SMDPad,CuDef*%
G36*
G01*
X187725000Y-124950000D02*
X186400000Y-124950000D01*
G75*
G02*
X186325000Y-124875000I0J75000D01*
G01*
X186325000Y-124725000D01*
G75*
G02*
X186400000Y-124650000I75000J0D01*
G01*
X187725000Y-124650000D01*
G75*
G02*
X187800000Y-124725000I0J-75000D01*
G01*
X187800000Y-124875000D01*
G75*
G02*
X187725000Y-124950000I-75000J0D01*
G01*
G37*
%TD.AperFunction*%
%TO.P,U2,25*%
%TO.N,Net-(U2-Pad25)*%
%TA.AperFunction,SMDPad,CuDef*%
G36*
G01*
X185725000Y-124125000D02*
X185575000Y-124125000D01*
G75*
G02*
X185500000Y-124050000I0J75000D01*
G01*
X185500000Y-122725000D01*
G75*
G02*
X185575000Y-122650000I75000J0D01*
G01*
X185725000Y-122650000D01*
G75*
G02*
X185800000Y-122725000I0J-75000D01*
G01*
X185800000Y-124050000D01*
G75*
G02*
X185725000Y-124125000I-75000J0D01*
G01*
G37*
%TD.AperFunction*%
%TO.P,U2,26*%
%TO.N,Net-(U2-Pad26)*%
%TA.AperFunction,SMDPad,CuDef*%
G36*
G01*
X185225000Y-124125000D02*
X185075000Y-124125000D01*
G75*
G02*
X185000000Y-124050000I0J75000D01*
G01*
X185000000Y-122725000D01*
G75*
G02*
X185075000Y-122650000I75000J0D01*
G01*
X185225000Y-122650000D01*
G75*
G02*
X185300000Y-122725000I0J-75000D01*
G01*
X185300000Y-124050000D01*
G75*
G02*
X185225000Y-124125000I-75000J0D01*
G01*
G37*
%TD.AperFunction*%
%TO.P,U2,27*%
%TO.N,PB14*%
%TA.AperFunction,SMDPad,CuDef*%
G36*
G01*
X184725000Y-124125000D02*
X184575000Y-124125000D01*
G75*
G02*
X184500000Y-124050000I0J75000D01*
G01*
X184500000Y-122725000D01*
G75*
G02*
X184575000Y-122650000I75000J0D01*
G01*
X184725000Y-122650000D01*
G75*
G02*
X184800000Y-122725000I0J-75000D01*
G01*
X184800000Y-124050000D01*
G75*
G02*
X184725000Y-124125000I-75000J0D01*
G01*
G37*
%TD.AperFunction*%
%TO.P,U2,28*%
%TO.N,PB15*%
%TA.AperFunction,SMDPad,CuDef*%
G36*
G01*
X184225000Y-124125000D02*
X184075000Y-124125000D01*
G75*
G02*
X184000000Y-124050000I0J75000D01*
G01*
X184000000Y-122725000D01*
G75*
G02*
X184075000Y-122650000I75000J0D01*
G01*
X184225000Y-122650000D01*
G75*
G02*
X184300000Y-122725000I0J-75000D01*
G01*
X184300000Y-124050000D01*
G75*
G02*
X184225000Y-124125000I-75000J0D01*
G01*
G37*
%TD.AperFunction*%
%TO.P,U2,29*%
%TO.N,PA8*%
%TA.AperFunction,SMDPad,CuDef*%
G36*
G01*
X183725000Y-124125000D02*
X183575000Y-124125000D01*
G75*
G02*
X183500000Y-124050000I0J75000D01*
G01*
X183500000Y-122725000D01*
G75*
G02*
X183575000Y-122650000I75000J0D01*
G01*
X183725000Y-122650000D01*
G75*
G02*
X183800000Y-122725000I0J-75000D01*
G01*
X183800000Y-124050000D01*
G75*
G02*
X183725000Y-124125000I-75000J0D01*
G01*
G37*
%TD.AperFunction*%
%TO.P,U2,30*%
%TO.N,PA9*%
%TA.AperFunction,SMDPad,CuDef*%
G36*
G01*
X183225000Y-124125000D02*
X183075000Y-124125000D01*
G75*
G02*
X183000000Y-124050000I0J75000D01*
G01*
X183000000Y-122725000D01*
G75*
G02*
X183075000Y-122650000I75000J0D01*
G01*
X183225000Y-122650000D01*
G75*
G02*
X183300000Y-122725000I0J-75000D01*
G01*
X183300000Y-124050000D01*
G75*
G02*
X183225000Y-124125000I-75000J0D01*
G01*
G37*
%TD.AperFunction*%
%TO.P,U2,31*%
%TO.N,PA10*%
%TA.AperFunction,SMDPad,CuDef*%
G36*
G01*
X182725000Y-124125000D02*
X182575000Y-124125000D01*
G75*
G02*
X182500000Y-124050000I0J75000D01*
G01*
X182500000Y-122725000D01*
G75*
G02*
X182575000Y-122650000I75000J0D01*
G01*
X182725000Y-122650000D01*
G75*
G02*
X182800000Y-122725000I0J-75000D01*
G01*
X182800000Y-124050000D01*
G75*
G02*
X182725000Y-124125000I-75000J0D01*
G01*
G37*
%TD.AperFunction*%
%TO.P,U2,32*%
%TO.N,USB_D-*%
%TA.AperFunction,SMDPad,CuDef*%
G36*
G01*
X182225000Y-124125000D02*
X182075000Y-124125000D01*
G75*
G02*
X182000000Y-124050000I0J75000D01*
G01*
X182000000Y-122725000D01*
G75*
G02*
X182075000Y-122650000I75000J0D01*
G01*
X182225000Y-122650000D01*
G75*
G02*
X182300000Y-122725000I0J-75000D01*
G01*
X182300000Y-124050000D01*
G75*
G02*
X182225000Y-124125000I-75000J0D01*
G01*
G37*
%TD.AperFunction*%
%TO.P,U2,33*%
%TO.N,USB_D+*%
%TA.AperFunction,SMDPad,CuDef*%
G36*
G01*
X181725000Y-124125000D02*
X181575000Y-124125000D01*
G75*
G02*
X181500000Y-124050000I0J75000D01*
G01*
X181500000Y-122725000D01*
G75*
G02*
X181575000Y-122650000I75000J0D01*
G01*
X181725000Y-122650000D01*
G75*
G02*
X181800000Y-122725000I0J-75000D01*
G01*
X181800000Y-124050000D01*
G75*
G02*
X181725000Y-124125000I-75000J0D01*
G01*
G37*
%TD.AperFunction*%
%TO.P,U2,34*%
%TO.N,SWDIO*%
%TA.AperFunction,SMDPad,CuDef*%
G36*
G01*
X181225000Y-124125000D02*
X181075000Y-124125000D01*
G75*
G02*
X181000000Y-124050000I0J75000D01*
G01*
X181000000Y-122725000D01*
G75*
G02*
X181075000Y-122650000I75000J0D01*
G01*
X181225000Y-122650000D01*
G75*
G02*
X181300000Y-122725000I0J-75000D01*
G01*
X181300000Y-124050000D01*
G75*
G02*
X181225000Y-124125000I-75000J0D01*
G01*
G37*
%TD.AperFunction*%
%TO.P,U2,35*%
%TO.N,GND*%
%TA.AperFunction,SMDPad,CuDef*%
G36*
G01*
X180725000Y-124125000D02*
X180575000Y-124125000D01*
G75*
G02*
X180500000Y-124050000I0J75000D01*
G01*
X180500000Y-122725000D01*
G75*
G02*
X180575000Y-122650000I75000J0D01*
G01*
X180725000Y-122650000D01*
G75*
G02*
X180800000Y-122725000I0J-75000D01*
G01*
X180800000Y-124050000D01*
G75*
G02*
X180725000Y-124125000I-75000J0D01*
G01*
G37*
%TD.AperFunction*%
%TO.P,U2,36*%
%TO.N,+3V3*%
%TA.AperFunction,SMDPad,CuDef*%
G36*
G01*
X180225000Y-124125000D02*
X180075000Y-124125000D01*
G75*
G02*
X180000000Y-124050000I0J75000D01*
G01*
X180000000Y-122725000D01*
G75*
G02*
X180075000Y-122650000I75000J0D01*
G01*
X180225000Y-122650000D01*
G75*
G02*
X180300000Y-122725000I0J-75000D01*
G01*
X180300000Y-124050000D01*
G75*
G02*
X180225000Y-124125000I-75000J0D01*
G01*
G37*
%TD.AperFunction*%
%TO.P,U2,37*%
%TO.N,SWCLK*%
%TA.AperFunction,SMDPad,CuDef*%
G36*
G01*
X179400000Y-124950000D02*
X178075000Y-124950000D01*
G75*
G02*
X178000000Y-124875000I0J75000D01*
G01*
X178000000Y-124725000D01*
G75*
G02*
X178075000Y-124650000I75000J0D01*
G01*
X179400000Y-124650000D01*
G75*
G02*
X179475000Y-124725000I0J-75000D01*
G01*
X179475000Y-124875000D01*
G75*
G02*
X179400000Y-124950000I-75000J0D01*
G01*
G37*
%TD.AperFunction*%
%TO.P,U2,38*%
%TO.N,PA15*%
%TA.AperFunction,SMDPad,CuDef*%
G36*
G01*
X179400000Y-125450000D02*
X178075000Y-125450000D01*
G75*
G02*
X178000000Y-125375000I0J75000D01*
G01*
X178000000Y-125225000D01*
G75*
G02*
X178075000Y-125150000I75000J0D01*
G01*
X179400000Y-125150000D01*
G75*
G02*
X179475000Y-125225000I0J-75000D01*
G01*
X179475000Y-125375000D01*
G75*
G02*
X179400000Y-125450000I-75000J0D01*
G01*
G37*
%TD.AperFunction*%
%TO.P,U2,39*%
%TO.N,SWO*%
%TA.AperFunction,SMDPad,CuDef*%
G36*
G01*
X179400000Y-125950000D02*
X178075000Y-125950000D01*
G75*
G02*
X178000000Y-125875000I0J75000D01*
G01*
X178000000Y-125725000D01*
G75*
G02*
X178075000Y-125650000I75000J0D01*
G01*
X179400000Y-125650000D01*
G75*
G02*
X179475000Y-125725000I0J-75000D01*
G01*
X179475000Y-125875000D01*
G75*
G02*
X179400000Y-125950000I-75000J0D01*
G01*
G37*
%TD.AperFunction*%
%TO.P,U2,40*%
%TO.N,PB4*%
%TA.AperFunction,SMDPad,CuDef*%
G36*
G01*
X179400000Y-126450000D02*
X178075000Y-126450000D01*
G75*
G02*
X178000000Y-126375000I0J75000D01*
G01*
X178000000Y-126225000D01*
G75*
G02*
X178075000Y-126150000I75000J0D01*
G01*
X179400000Y-126150000D01*
G75*
G02*
X179475000Y-126225000I0J-75000D01*
G01*
X179475000Y-126375000D01*
G75*
G02*
X179400000Y-126450000I-75000J0D01*
G01*
G37*
%TD.AperFunction*%
%TO.P,U2,41*%
%TO.N,PB5*%
%TA.AperFunction,SMDPad,CuDef*%
G36*
G01*
X179400000Y-126950000D02*
X178075000Y-126950000D01*
G75*
G02*
X178000000Y-126875000I0J75000D01*
G01*
X178000000Y-126725000D01*
G75*
G02*
X178075000Y-126650000I75000J0D01*
G01*
X179400000Y-126650000D01*
G75*
G02*
X179475000Y-126725000I0J-75000D01*
G01*
X179475000Y-126875000D01*
G75*
G02*
X179400000Y-126950000I-75000J0D01*
G01*
G37*
%TD.AperFunction*%
%TO.P,U2,42*%
%TO.N,PB6*%
%TA.AperFunction,SMDPad,CuDef*%
G36*
G01*
X179400000Y-127450000D02*
X178075000Y-127450000D01*
G75*
G02*
X178000000Y-127375000I0J75000D01*
G01*
X178000000Y-127225000D01*
G75*
G02*
X178075000Y-127150000I75000J0D01*
G01*
X179400000Y-127150000D01*
G75*
G02*
X179475000Y-127225000I0J-75000D01*
G01*
X179475000Y-127375000D01*
G75*
G02*
X179400000Y-127450000I-75000J0D01*
G01*
G37*
%TD.AperFunction*%
%TO.P,U2,43*%
%TO.N,PB7*%
%TA.AperFunction,SMDPad,CuDef*%
G36*
G01*
X179400000Y-127950000D02*
X178075000Y-127950000D01*
G75*
G02*
X178000000Y-127875000I0J75000D01*
G01*
X178000000Y-127725000D01*
G75*
G02*
X178075000Y-127650000I75000J0D01*
G01*
X179400000Y-127650000D01*
G75*
G02*
X179475000Y-127725000I0J-75000D01*
G01*
X179475000Y-127875000D01*
G75*
G02*
X179400000Y-127950000I-75000J0D01*
G01*
G37*
%TD.AperFunction*%
%TO.P,U2,44*%
%TO.N,/BOOT0*%
%TA.AperFunction,SMDPad,CuDef*%
G36*
G01*
X179400000Y-128450000D02*
X178075000Y-128450000D01*
G75*
G02*
X178000000Y-128375000I0J75000D01*
G01*
X178000000Y-128225000D01*
G75*
G02*
X178075000Y-128150000I75000J0D01*
G01*
X179400000Y-128150000D01*
G75*
G02*
X179475000Y-128225000I0J-75000D01*
G01*
X179475000Y-128375000D01*
G75*
G02*
X179400000Y-128450000I-75000J0D01*
G01*
G37*
%TD.AperFunction*%
%TO.P,U2,45*%
%TO.N,PB8*%
%TA.AperFunction,SMDPad,CuDef*%
G36*
G01*
X179400000Y-128950000D02*
X178075000Y-128950000D01*
G75*
G02*
X178000000Y-128875000I0J75000D01*
G01*
X178000000Y-128725000D01*
G75*
G02*
X178075000Y-128650000I75000J0D01*
G01*
X179400000Y-128650000D01*
G75*
G02*
X179475000Y-128725000I0J-75000D01*
G01*
X179475000Y-128875000D01*
G75*
G02*
X179400000Y-128950000I-75000J0D01*
G01*
G37*
%TD.AperFunction*%
%TO.P,U2,46*%
%TO.N,PB9*%
%TA.AperFunction,SMDPad,CuDef*%
G36*
G01*
X179400000Y-129450000D02*
X178075000Y-129450000D01*
G75*
G02*
X178000000Y-129375000I0J75000D01*
G01*
X178000000Y-129225000D01*
G75*
G02*
X178075000Y-129150000I75000J0D01*
G01*
X179400000Y-129150000D01*
G75*
G02*
X179475000Y-129225000I0J-75000D01*
G01*
X179475000Y-129375000D01*
G75*
G02*
X179400000Y-129450000I-75000J0D01*
G01*
G37*
%TD.AperFunction*%
%TO.P,U2,47*%
%TO.N,GND*%
%TA.AperFunction,SMDPad,CuDef*%
G36*
G01*
X179400000Y-129950000D02*
X178075000Y-129950000D01*
G75*
G02*
X178000000Y-129875000I0J75000D01*
G01*
X178000000Y-129725000D01*
G75*
G02*
X178075000Y-129650000I75000J0D01*
G01*
X179400000Y-129650000D01*
G75*
G02*
X179475000Y-129725000I0J-75000D01*
G01*
X179475000Y-129875000D01*
G75*
G02*
X179400000Y-129950000I-75000J0D01*
G01*
G37*
%TD.AperFunction*%
%TO.P,U2,48*%
%TO.N,+3V3*%
%TA.AperFunction,SMDPad,CuDef*%
G36*
G01*
X179400000Y-130450000D02*
X178075000Y-130450000D01*
G75*
G02*
X178000000Y-130375000I0J75000D01*
G01*
X178000000Y-130225000D01*
G75*
G02*
X178075000Y-130150000I75000J0D01*
G01*
X179400000Y-130150000D01*
G75*
G02*
X179475000Y-130225000I0J-75000D01*
G01*
X179475000Y-130375000D01*
G75*
G02*
X179400000Y-130450000I-75000J0D01*
G01*
G37*
%TD.AperFunction*%
%TD*%
D17*
%TO.P,Y1,1*%
%TO.N,/HSE_OUT*%
X181050000Y-139800000D03*
%TO.P,Y1,2*%
%TO.N,/HSE_IN*%
X184750000Y-139800000D03*
%TD*%
D18*
%TO.N,GND*%
X195700000Y-122500000D03*
X181350000Y-117650000D03*
X183400000Y-133150000D03*
X187650000Y-140400000D03*
X178900000Y-138600000D03*
X178050000Y-134150000D03*
X176800000Y-132300000D03*
X168500000Y-130000000D03*
X196200000Y-113000000D03*
X196000000Y-107000000D03*
X181700000Y-111750000D03*
X173800000Y-131500000D03*
X181700000Y-109500000D03*
%TD*%
D19*
%TO.N,GND*%
X183650000Y-132900000D02*
X183650000Y-131712500D01*
X183400000Y-133150000D02*
X183650000Y-132900000D01*
D20*
X183670000Y-133150000D02*
X184220000Y-133700000D01*
X183400000Y-133150000D02*
X183670000Y-133150000D01*
X184220000Y-135000000D02*
X184220000Y-133700000D01*
X187630000Y-140380000D02*
X187650000Y-140400000D01*
X186900000Y-140380000D02*
X187630000Y-140380000D01*
X178900000Y-139320000D02*
X178900000Y-138600000D01*
X178770000Y-134150000D02*
X178800000Y-134180000D01*
X178050000Y-134150000D02*
X178770000Y-134150000D01*
X176800000Y-132300000D02*
X176800000Y-131580000D01*
X168500000Y-129875000D02*
X169375000Y-129000000D01*
X168500000Y-130000000D02*
X168500000Y-129875000D01*
X196825000Y-113625000D02*
X196200000Y-113000000D01*
X197650000Y-113625000D02*
X196825000Y-113625000D01*
X196200000Y-113000000D02*
X196200000Y-112300000D01*
X195900000Y-112000000D02*
X194900000Y-112000000D01*
X196200000Y-112300000D02*
X195900000Y-112000000D01*
D21*
X194975000Y-107000000D02*
X194925000Y-107050000D01*
X196000000Y-107000000D02*
X194975000Y-107000000D01*
D20*
X196200000Y-113000000D02*
X195500000Y-113700000D01*
X195500000Y-113700000D02*
X193950000Y-113700000D01*
X193375000Y-114275000D02*
X193375000Y-115050000D01*
X193950000Y-113700000D02*
X193375000Y-114275000D01*
X193365000Y-115040000D02*
X193375000Y-115050000D01*
X190740000Y-115040000D02*
X193365000Y-115040000D01*
D19*
X176175000Y-129825000D02*
X176150000Y-129850000D01*
X177875000Y-129825000D02*
X176175000Y-129825000D01*
X177900000Y-129800000D02*
X177875000Y-129825000D01*
X178737500Y-129800000D02*
X177900000Y-129800000D01*
X181350000Y-117650000D02*
X181350000Y-118800000D01*
X180650000Y-122584298D02*
X180650000Y-123387500D01*
X180800000Y-122434298D02*
X180650000Y-122584298D01*
X181350000Y-118800000D02*
X180800000Y-119350000D01*
X180800000Y-120650000D02*
X180800000Y-120250000D01*
X180800000Y-119350000D02*
X180800000Y-120650000D01*
X180800000Y-120650000D02*
X180800000Y-122434298D01*
X180000000Y-119450000D02*
X179480000Y-119450000D01*
X180800000Y-120250000D02*
X180000000Y-119450000D01*
X190650000Y-123330000D02*
X190650000Y-124200000D01*
X189550000Y-125300000D02*
X187062500Y-125300000D01*
X190650000Y-124200000D02*
X189550000Y-125300000D01*
D20*
X194870000Y-123330000D02*
X195700000Y-122500000D01*
X190650000Y-123330000D02*
X194870000Y-123330000D01*
X173800000Y-132375000D02*
X173800000Y-131500000D01*
D19*
X176175000Y-129825000D02*
X174900000Y-131100000D01*
X174199999Y-131100001D02*
X173800000Y-131500000D01*
X174900000Y-131100000D02*
X174199999Y-131100001D01*
D21*
X181700000Y-111685002D02*
X181700000Y-111750000D01*
X181674999Y-111660001D02*
X181700000Y-111685002D01*
X181674999Y-109639999D02*
X181674999Y-111660001D01*
X181700000Y-109614998D02*
X181674999Y-109639999D01*
X181700000Y-109500000D02*
X181700000Y-109614998D01*
%TO.N,VCC*%
X190300000Y-110037500D02*
X190937500Y-110037500D01*
X191950000Y-111050000D02*
X192900000Y-111050000D01*
X190937500Y-110037500D02*
X191950000Y-111050000D01*
X190300000Y-110037500D02*
X190300000Y-108800000D01*
X192050000Y-107050000D02*
X193375000Y-107050000D01*
X190300000Y-108800000D02*
X192050000Y-107050000D01*
%TO.N,+3V3*%
X194900000Y-110100000D02*
X194900000Y-109100000D01*
X195775000Y-108225000D02*
X197650000Y-108225000D01*
X194900000Y-109100000D02*
X195775000Y-108225000D01*
X197650000Y-108225000D02*
X198425000Y-108225000D01*
X199700000Y-109500000D02*
X202250000Y-109500000D01*
X198425000Y-108225000D02*
X199700000Y-109500000D01*
X199700000Y-109500000D02*
X199700000Y-114100000D01*
X198750000Y-115050000D02*
X194925000Y-115050000D01*
X199700000Y-114100000D02*
X198750000Y-115050000D01*
X203600000Y-109500000D02*
X204900000Y-110800000D01*
X202250000Y-109500000D02*
X203600000Y-109500000D01*
X204900000Y-110800000D02*
X204900000Y-117900000D01*
X204900000Y-117900000D02*
X204400000Y-118400000D01*
X204400000Y-118400000D02*
X203600000Y-118400000D01*
X204900000Y-117900000D02*
X204900000Y-139800000D01*
X204900000Y-139800000D02*
X204900000Y-140000000D01*
X204900000Y-140000000D02*
X203700000Y-141200000D01*
D20*
X202805001Y-141294999D02*
X198694999Y-141294999D01*
X202900000Y-141200000D02*
X202805001Y-141294999D01*
X203700000Y-141200000D02*
X202900000Y-141200000D01*
X198694999Y-141294999D02*
X196000000Y-138600000D01*
X196000000Y-138600000D02*
X191200000Y-138600000D01*
X187485000Y-134885000D02*
X186500000Y-134885000D01*
X191200000Y-138600000D02*
X187485000Y-134885000D01*
D21*
X162200000Y-109500000D02*
X163750000Y-109500000D01*
X161200000Y-110500000D02*
X162200000Y-109500000D01*
X163200000Y-147800000D02*
X161200000Y-145800000D01*
X204900000Y-145700000D02*
X202800000Y-147800000D01*
X204900000Y-140000000D02*
X204900000Y-145700000D01*
X178700000Y-147800000D02*
X163200000Y-147800000D01*
X202800000Y-147800000D02*
X178700000Y-147800000D01*
D20*
X176800000Y-130620000D02*
X177280000Y-130620000D01*
X177574990Y-130325010D02*
X178737500Y-130325010D01*
X177280000Y-130620000D02*
X177574990Y-130325010D01*
D21*
X161200000Y-140700000D02*
X161200000Y-140600000D01*
X161200000Y-145800000D02*
X161200000Y-140700000D01*
X161200000Y-140700000D02*
X161200000Y-110500000D01*
X161200000Y-140600000D02*
X162900000Y-138900000D01*
D20*
X170500000Y-109500000D02*
X170600000Y-109400000D01*
X163750000Y-109500000D02*
X170500000Y-109500000D01*
X170600000Y-108200000D02*
X171900000Y-106900000D01*
X170600000Y-109400000D02*
X170600000Y-108200000D01*
X171900000Y-106900000D02*
X175100000Y-106900000D01*
X175100000Y-106900000D02*
X176700000Y-108500000D01*
X176700000Y-108500000D02*
X176700000Y-112400000D01*
X176700000Y-112400000D02*
X178600000Y-114300000D01*
X178800000Y-133220000D02*
X179110000Y-133220000D01*
X178520000Y-119450000D02*
X178520000Y-120270000D01*
X180124990Y-121874990D02*
X180124990Y-123387500D01*
X178520000Y-120270000D02*
X180124990Y-121874990D01*
X178520000Y-116130000D02*
X180350000Y-114300000D01*
X180350000Y-114300000D02*
X181790000Y-114300000D01*
X178520000Y-119450000D02*
X178520000Y-116130000D01*
X178600000Y-114300000D02*
X180350000Y-114300000D01*
X193480000Y-122370000D02*
X190650000Y-122370000D01*
X197415001Y-118434999D02*
X193480000Y-122370000D01*
X202365001Y-118434999D02*
X197415001Y-118434999D01*
X202400000Y-118400000D02*
X202365001Y-118434999D01*
X203600000Y-118400000D02*
X202400000Y-118400000D01*
X190340000Y-122370000D02*
X189500000Y-123210000D01*
X190650000Y-122370000D02*
X190340000Y-122370000D01*
X189500000Y-123210000D02*
X189500000Y-124100000D01*
X188825010Y-124774990D02*
X187062500Y-124774990D01*
X189500000Y-124100000D02*
X188825010Y-124774990D01*
X176800000Y-130620000D02*
X176430000Y-130620000D01*
X176430000Y-130620000D02*
X175400000Y-131650000D01*
X175400000Y-131650000D02*
X175400000Y-133250000D01*
X174725000Y-133925000D02*
X173800000Y-133925000D01*
X175400000Y-133250000D02*
X174725000Y-133925000D01*
X173025000Y-133925000D02*
X173800000Y-133925000D01*
X172050000Y-134900000D02*
X173025000Y-133925000D01*
X168500000Y-134900000D02*
X172050000Y-134900000D01*
X164734999Y-138665001D02*
X168500000Y-134900000D01*
X163251997Y-138665001D02*
X164734999Y-138665001D01*
X163016998Y-138900000D02*
X163251997Y-138665001D01*
X162900000Y-138900000D02*
X163016998Y-138900000D01*
X180124990Y-132205010D02*
X180124990Y-131712500D01*
X179110000Y-133220000D02*
X180124990Y-132205010D01*
X174725000Y-133925000D02*
X176725000Y-133925000D01*
X177430000Y-133220000D02*
X178800000Y-133220000D01*
X176725000Y-133925000D02*
X177430000Y-133220000D01*
%TO.N,+3.3VA*%
X185180000Y-133700000D02*
X185700000Y-133700000D01*
X185915000Y-133915000D02*
X186500000Y-133915000D01*
X185700000Y-133700000D02*
X185915000Y-133915000D01*
X185180000Y-135000000D02*
X185180000Y-133700000D01*
D19*
X185180000Y-133700000D02*
X184900000Y-133700000D01*
X184900000Y-133700000D02*
X184825010Y-133625010D01*
X184825010Y-133625010D02*
X184825010Y-133337384D01*
X184552616Y-133064990D02*
X184414990Y-133064990D01*
X184825010Y-133337384D02*
X184552616Y-133064990D01*
X184150000Y-132800000D02*
X184150000Y-131712500D01*
X184414990Y-133064990D02*
X184150000Y-132800000D01*
%TO.N,/HSE_OUT*%
X178900000Y-140280000D02*
X179320000Y-140280000D01*
X179800000Y-139800000D02*
X181050000Y-139800000D01*
X179320000Y-140280000D02*
X179800000Y-139800000D01*
X182150000Y-131712500D02*
X182150000Y-135050000D01*
X181050000Y-136150000D02*
X181050000Y-139800000D01*
X182150000Y-135050000D02*
X181050000Y-136150000D01*
%TO.N,/HSE_IN*%
X184750000Y-139800000D02*
X185900000Y-139800000D01*
X186280000Y-139420000D02*
X186900000Y-139420000D01*
X185900000Y-139800000D02*
X186280000Y-139420000D01*
X182650000Y-131712500D02*
X182650000Y-135250000D01*
X184750000Y-137350000D02*
X184750000Y-139800000D01*
X182650000Y-135250000D02*
X184750000Y-137350000D01*
%TO.N,Net-(D1-Pad1)*%
X197650000Y-109800000D02*
X197650000Y-111975000D01*
%TO.N,/Bl*%
X187200000Y-117250000D02*
X188150000Y-117250000D01*
X188600000Y-116800000D02*
X189680000Y-116800000D01*
X188150000Y-117250000D02*
X188600000Y-116800000D01*
%TO.N,/Gr*%
X189640000Y-115000000D02*
X189680000Y-115040000D01*
X187800000Y-115000000D02*
X189640000Y-115000000D01*
D21*
%TO.N,+5V*%
X190300000Y-112162500D02*
X190300000Y-113000000D01*
X190300000Y-113000000D02*
X190100000Y-113200000D01*
X190100000Y-113200000D02*
X185400000Y-113200000D01*
X184325001Y-112125001D02*
X184325001Y-110650000D01*
X185400000Y-113200000D02*
X184325001Y-112125001D01*
D22*
%TO.N,USB_D-*%
X182125000Y-123362500D02*
X182125000Y-119693200D01*
X182150000Y-123387500D02*
X182125000Y-123362500D01*
X183650000Y-111625001D02*
X183650000Y-110650000D01*
X182125000Y-119693200D02*
X183550000Y-118268200D01*
X183550000Y-118268200D02*
X183550000Y-111725001D01*
X183550000Y-111725001D02*
X183650000Y-111625001D01*
%TO.N,USB_D+*%
X181675000Y-123362500D02*
X181675000Y-119506800D01*
X181650000Y-123387500D02*
X181675000Y-123362500D01*
X183000000Y-111625001D02*
X183000000Y-110650000D01*
X183100000Y-111725001D02*
X183000000Y-111625001D01*
X181675000Y-119506800D02*
X183100000Y-118081800D01*
D19*
X183000000Y-114300000D02*
X183100000Y-114200000D01*
X182810000Y-114300000D02*
X183000000Y-114300000D01*
D22*
X183100000Y-114200000D02*
X183100000Y-111725001D01*
X183100000Y-118081800D02*
X183100000Y-114200000D01*
D19*
%TO.N,PB1*%
X202230000Y-127300000D02*
X202250000Y-127280000D01*
X187062500Y-127300000D02*
X202230000Y-127300000D01*
%TO.N,PB2*%
X187062500Y-126800000D02*
X192100000Y-126800000D01*
X192100000Y-126800000D02*
X192800000Y-126100000D01*
X200890000Y-126100000D02*
X202250000Y-124740000D01*
X192800000Y-126100000D02*
X200890000Y-126100000D01*
%TO.N,PB10*%
X187062500Y-126300000D02*
X191100000Y-126300000D01*
X191100000Y-126300000D02*
X192500000Y-124900000D01*
X192500000Y-124900000D02*
X197400000Y-124900000D01*
X200100000Y-122200000D02*
X202250000Y-122200000D01*
X197400000Y-124900000D02*
X200100000Y-122200000D01*
%TO.N,PB11*%
X201940000Y-119660000D02*
X202250000Y-119660000D01*
X190200000Y-125800000D02*
X192100000Y-123900000D01*
X187062500Y-125800000D02*
X190200000Y-125800000D01*
X192100000Y-123900000D02*
X195900000Y-123900000D01*
X200140000Y-119660000D02*
X202250000Y-119660000D01*
X195900000Y-123900000D02*
X200140000Y-119660000D01*
%TO.N,PB14*%
X184650000Y-122584298D02*
X186334298Y-120900000D01*
X184650000Y-123387500D02*
X184650000Y-122584298D01*
X186334298Y-120900000D02*
X192600000Y-120900000D01*
X196380000Y-117120000D02*
X202250000Y-117120000D01*
X192600000Y-120900000D02*
X196380000Y-117120000D01*
%TO.N,PB15*%
X184150000Y-123387500D02*
X184150000Y-122350000D01*
X184150000Y-122350000D02*
X186100000Y-120400000D01*
X186100000Y-120400000D02*
X191800000Y-120400000D01*
X191800000Y-120400000D02*
X196100000Y-116100000D01*
X196100000Y-116100000D02*
X198900000Y-116100000D01*
X200420000Y-114580000D02*
X202250000Y-114580000D01*
X198900000Y-116100000D02*
X200420000Y-114580000D01*
%TO.N,SWDIO*%
X169820702Y-114580000D02*
X163750000Y-114580000D01*
X180890692Y-124450010D02*
X179690712Y-124450010D01*
X181150000Y-124190702D02*
X180890692Y-124450010D01*
X179690712Y-124450010D02*
X169820702Y-114580000D01*
X181150000Y-123387500D02*
X181150000Y-124190702D01*
%TO.N,SWCLK*%
X178737500Y-124800000D02*
X173700000Y-124800000D01*
X166020000Y-117120000D02*
X163750000Y-117120000D01*
X173700000Y-124800000D02*
X166020000Y-117120000D01*
%TO.N,PA15*%
X178737500Y-125300000D02*
X171700000Y-125300000D01*
X166060000Y-119660000D02*
X163750000Y-119660000D01*
X171700000Y-125300000D02*
X166060000Y-119660000D01*
%TO.N,SWO*%
X178575010Y-125775010D02*
X169475010Y-125775010D01*
X178600000Y-125800000D02*
X178575010Y-125775010D01*
X178737500Y-125800000D02*
X178600000Y-125800000D01*
X165900000Y-122200000D02*
X163750000Y-122200000D01*
X169475010Y-125775010D02*
X165900000Y-122200000D01*
%TO.N,PB4*%
X178675010Y-126275010D02*
X167875010Y-126275010D01*
X178700000Y-126300000D02*
X178675010Y-126275010D01*
X178737500Y-126300000D02*
X178700000Y-126300000D01*
X166340000Y-124740000D02*
X163750000Y-124740000D01*
X167875010Y-126275010D02*
X166340000Y-124740000D01*
%TO.N,PB5*%
X164230000Y-126800000D02*
X178737500Y-126800000D01*
X163750000Y-127280000D02*
X164230000Y-126800000D01*
%TO.N,PB6*%
X165780000Y-129820000D02*
X163750000Y-129820000D01*
X168300000Y-127300000D02*
X165780000Y-129820000D01*
X178737500Y-127300000D02*
X168300000Y-127300000D01*
%TO.N,PB7*%
X166240000Y-132360000D02*
X163750000Y-132360000D01*
X167300000Y-131300000D02*
X166240000Y-132360000D01*
X167300000Y-129857522D02*
X167300000Y-131300000D01*
X169357522Y-127800000D02*
X167300000Y-129857522D01*
X178737500Y-127800000D02*
X169357522Y-127800000D01*
%TO.N,PB8*%
X178737500Y-128800000D02*
X174400000Y-128800000D01*
X174400000Y-128800000D02*
X173600000Y-129600000D01*
X173600000Y-129600000D02*
X172100000Y-129600000D01*
X172100000Y-129600000D02*
X168700000Y-133000000D01*
X168700000Y-133000000D02*
X168000000Y-133000000D01*
X166100000Y-134900000D02*
X163750000Y-134900000D01*
X168000000Y-133000000D02*
X166100000Y-134900000D01*
%TO.N,PB9*%
X168800000Y-133700000D02*
X165060000Y-137440000D01*
X169100000Y-133700000D02*
X168800000Y-133700000D01*
X172500000Y-130300000D02*
X169100000Y-133700000D01*
X174400000Y-130300000D02*
X172500000Y-130300000D01*
X165060000Y-137440000D02*
X163750000Y-137440000D01*
X175400000Y-129300000D02*
X174400000Y-130300000D01*
X178737500Y-129300000D02*
X175400000Y-129300000D01*
%TO.N,PC13*%
X174167626Y-139980000D02*
X163750000Y-139980000D01*
X180650000Y-133497626D02*
X174167626Y-139980000D01*
X180650000Y-131712500D02*
X180650000Y-133497626D01*
%TO.N,PC14*%
X172630000Y-142520000D02*
X163750000Y-142520000D01*
X181150000Y-134000000D02*
X172630000Y-142520000D01*
X181150000Y-131712500D02*
X181150000Y-134000000D01*
%TO.N,PC15*%
X181650000Y-131712500D02*
X181650000Y-134450000D01*
X171040000Y-145060000D02*
X163750000Y-145060000D01*
X181650000Y-134450000D02*
X171040000Y-145060000D01*
%TO.N,PA0*%
X187464990Y-133064990D02*
X191900000Y-137500000D01*
X191900000Y-137500000D02*
X197200000Y-137500000D01*
X199680000Y-139980000D02*
X202250000Y-139980000D01*
X197200000Y-137500000D02*
X199680000Y-139980000D01*
X185199288Y-133064990D02*
X187464990Y-133064990D01*
X184650000Y-131712500D02*
X184650000Y-132515702D01*
X184650000Y-132515702D02*
X185199288Y-133064990D01*
%TO.N,PA3*%
X193600000Y-134500000D02*
X197100000Y-134500000D01*
X200040000Y-137440000D02*
X202250000Y-137440000D01*
X197100000Y-134500000D02*
X200040000Y-137440000D01*
X189400000Y-130300000D02*
X193600000Y-134500000D01*
X187062500Y-130300000D02*
X189400000Y-130300000D01*
%TO.N,PA4*%
X187062500Y-129800000D02*
X190600000Y-129800000D01*
X190600000Y-129800000D02*
X193500000Y-132700000D01*
X193500000Y-132700000D02*
X197800000Y-132700000D01*
X200000000Y-134900000D02*
X202250000Y-134900000D01*
X197800000Y-132700000D02*
X200000000Y-134900000D01*
%TO.N,PA5*%
X187124990Y-129324990D02*
X191624990Y-129324990D01*
X187100000Y-129300000D02*
X187124990Y-129324990D01*
X187062500Y-129300000D02*
X187100000Y-129300000D01*
X191624990Y-129324990D02*
X193400000Y-131100000D01*
X200990000Y-131100000D02*
X202250000Y-132360000D01*
X193400000Y-131100000D02*
X200990000Y-131100000D01*
%TO.N,PB0*%
X187062500Y-127800000D02*
X192100000Y-127800000D01*
X192100000Y-127800000D02*
X193000000Y-128700000D01*
X201130000Y-128700000D02*
X202250000Y-129820000D01*
X193000000Y-128700000D02*
X201130000Y-128700000D01*
%TO.N,/BOOT0*%
X166489999Y-133535001D02*
X171025000Y-129000000D01*
X163185999Y-133535001D02*
X166489999Y-133535001D01*
X162574999Y-132924001D02*
X163185999Y-133535001D01*
X162574999Y-114015999D02*
X162574999Y-132924001D01*
X163185999Y-113404999D02*
X162574999Y-114015999D01*
X169135001Y-113404999D02*
X163185999Y-113404999D01*
X173140000Y-109400000D02*
X169135001Y-113404999D01*
X177900000Y-128300000D02*
X178737500Y-128300000D01*
X173900000Y-128300000D02*
X177900000Y-128300000D01*
X173200000Y-129000000D02*
X173900000Y-128300000D01*
X171025000Y-129000000D02*
X173200000Y-129000000D01*
%TO.N,PA8*%
X183650000Y-123250000D02*
X183625000Y-123225000D01*
X183650000Y-123387500D02*
X183650000Y-123250000D01*
X183650000Y-123150000D02*
X183625000Y-123125000D01*
X183650000Y-123387500D02*
X183650000Y-123150000D01*
X183625000Y-123125000D02*
X183625000Y-121875000D01*
X183625000Y-121875000D02*
X185700000Y-119800000D01*
X185700000Y-119800000D02*
X188000000Y-119800000D01*
X188400000Y-119400000D02*
X189375000Y-119400000D01*
X188000000Y-119800000D02*
X188400000Y-119400000D01*
%TO.N,PA9*%
X183174990Y-123325010D02*
X183174990Y-121225010D01*
X183150000Y-123350000D02*
X183174990Y-123325010D01*
X183150000Y-123387500D02*
X183150000Y-123350000D01*
X185500000Y-118900000D02*
X187200000Y-118900000D01*
X183174990Y-121225010D02*
X185500000Y-118900000D01*
%TO.N,/Red*%
X191025000Y-119400000D02*
X191025000Y-118225000D01*
X190740000Y-117940000D02*
X190740000Y-116800000D01*
X191025000Y-118225000D02*
X190740000Y-117940000D01*
%TO.N,PA10*%
X182650000Y-123387500D02*
X182650000Y-120750000D01*
X182650000Y-120750000D02*
X184600000Y-118800000D01*
X184600000Y-118800000D02*
X184600000Y-115400000D01*
X185000000Y-115000000D02*
X186150000Y-115000000D01*
X184600000Y-115400000D02*
X185000000Y-115000000D01*
%TD*%
D23*
%TO.N,GND*%
X183763000Y-132529470D02*
X183763003Y-132529667D01*
X183764903Y-132613938D01*
X183764909Y-132614142D01*
X183767709Y-132686687D01*
X183767718Y-132686869D01*
X183771118Y-132751073D01*
X183771125Y-132751193D01*
X183774825Y-132810440D01*
X183774826Y-132810461D01*
X183778526Y-132868136D01*
X183781914Y-132927432D01*
X183784706Y-132991914D01*
X183786601Y-133064973D01*
X183787222Y-133140586D01*
X183287930Y-133291009D01*
X183237198Y-132798526D01*
X183281442Y-132777120D01*
X183281503Y-132777091D01*
X183329833Y-132753391D01*
X183330243Y-132753180D01*
X183374273Y-132729568D01*
X183375084Y-132729094D01*
X183414444Y-132704075D01*
X183415646Y-132703209D01*
X183449966Y-132675288D01*
X183451416Y-132673904D01*
X183480327Y-132641588D01*
X183481726Y-132639697D01*
X183504856Y-132601490D01*
X183505893Y-132599345D01*
X183522873Y-132553752D01*
X183523444Y-132551715D01*
X183533903Y-132497242D01*
X183534112Y-132495545D01*
X183537020Y-132442700D01*
X183762389Y-132442700D01*
X183763000Y-132529470D01*
%TA.AperFunction,Conductor*%
D24*
G36*
X183763000Y-132529470D02*
G01*
X183763003Y-132529667D01*
X183764903Y-132613938D01*
X183764909Y-132614142D01*
X183767709Y-132686687D01*
X183767718Y-132686869D01*
X183771118Y-132751073D01*
X183771125Y-132751193D01*
X183774825Y-132810440D01*
X183774826Y-132810461D01*
X183778526Y-132868136D01*
X183781914Y-132927432D01*
X183784706Y-132991914D01*
X183786601Y-133064973D01*
X183787222Y-133140586D01*
X183287930Y-133291009D01*
X183237198Y-132798526D01*
X183281442Y-132777120D01*
X183281503Y-132777091D01*
X183329833Y-132753391D01*
X183330243Y-132753180D01*
X183374273Y-132729568D01*
X183375084Y-132729094D01*
X183414444Y-132704075D01*
X183415646Y-132703209D01*
X183449966Y-132675288D01*
X183451416Y-132673904D01*
X183480327Y-132641588D01*
X183481726Y-132639697D01*
X183504856Y-132601490D01*
X183505893Y-132599345D01*
X183522873Y-132553752D01*
X183523444Y-132551715D01*
X183533903Y-132497242D01*
X183534112Y-132495545D01*
X183537020Y-132442700D01*
X183762389Y-132442700D01*
X183763000Y-132529470D01*
G37*
%TD.AperFunction*%
%TD*%
D23*
%TO.N,GND*%
X183734576Y-132938199D02*
X183786086Y-132993358D01*
X183831063Y-133043713D01*
X183872166Y-133091348D01*
X183912181Y-133138497D01*
X183912203Y-133138522D01*
X183953655Y-133187107D01*
X183953755Y-133187223D01*
X183999308Y-133239331D01*
X183999460Y-133239502D01*
X184051781Y-133297220D01*
X184051955Y-133297408D01*
X184113708Y-133362824D01*
X184113882Y-133363005D01*
X184178915Y-133429226D01*
X183948989Y-133659152D01*
X183906351Y-133619489D01*
X183905488Y-133618755D01*
X183857312Y-133581365D01*
X183856123Y-133580546D01*
X183810318Y-133552696D01*
X183808793Y-133551905D01*
X183764302Y-133532520D01*
X183762553Y-133531906D01*
X183718318Y-133519910D01*
X183716584Y-133519567D01*
X183671547Y-133513884D01*
X183670077Y-133513785D01*
X183623181Y-133513341D01*
X183622116Y-133513375D01*
X183572303Y-133517092D01*
X183571654Y-133517157D01*
X183517867Y-133523961D01*
X183517579Y-133524001D01*
X183467476Y-133531510D01*
X183226542Y-133096813D01*
X183680090Y-132882505D01*
X183734576Y-132938199D01*
%TA.AperFunction,Conductor*%
D24*
G36*
X183734576Y-132938199D02*
G01*
X183786086Y-132993358D01*
X183831063Y-133043713D01*
X183872166Y-133091348D01*
X183912181Y-133138497D01*
X183912203Y-133138522D01*
X183953655Y-133187107D01*
X183953755Y-133187223D01*
X183999308Y-133239331D01*
X183999460Y-133239502D01*
X184051781Y-133297220D01*
X184051955Y-133297408D01*
X184113708Y-133362824D01*
X184113882Y-133363005D01*
X184178915Y-133429226D01*
X183948989Y-133659152D01*
X183906351Y-133619489D01*
X183905488Y-133618755D01*
X183857312Y-133581365D01*
X183856123Y-133580546D01*
X183810318Y-133552696D01*
X183808793Y-133551905D01*
X183764302Y-133532520D01*
X183762553Y-133531906D01*
X183718318Y-133519910D01*
X183716584Y-133519567D01*
X183671547Y-133513884D01*
X183670077Y-133513785D01*
X183623181Y-133513341D01*
X183622116Y-133513375D01*
X183572303Y-133517092D01*
X183571654Y-133517157D01*
X183517867Y-133523961D01*
X183517579Y-133524001D01*
X183467476Y-133531510D01*
X183226542Y-133096813D01*
X183680090Y-132882505D01*
X183734576Y-132938199D01*
G37*
%TD.AperFunction*%
%TD*%
D23*
%TO.N,GND*%
X187829604Y-140408979D02*
X187417646Y-140710046D01*
X187379160Y-140682864D01*
X187378932Y-140682706D01*
X187335876Y-140653680D01*
X187335418Y-140653386D01*
X187293676Y-140627780D01*
X187292968Y-140627376D01*
X187250975Y-140605187D01*
X187250043Y-140604742D01*
X187206229Y-140585971D01*
X187205157Y-140585568D01*
X187157956Y-140570212D01*
X187156861Y-140569909D01*
X187104706Y-140557968D01*
X187103699Y-140557780D01*
X187045021Y-140549252D01*
X187044164Y-140549157D01*
X186977395Y-140544042D01*
X186976708Y-140544008D01*
X186912700Y-140542580D01*
X186912700Y-140217464D01*
X186980358Y-140216194D01*
X186980940Y-140216170D01*
X187050851Y-140211649D01*
X187051579Y-140211580D01*
X187113029Y-140204032D01*
X187113893Y-140203896D01*
X187168628Y-140193307D01*
X187169573Y-140193086D01*
X187219339Y-140179445D01*
X187220272Y-140179150D01*
X187266816Y-140162444D01*
X187267631Y-140162120D01*
X187312700Y-140142337D01*
X187313315Y-140142047D01*
X187358655Y-140119175D01*
X187359042Y-140118971D01*
X187406401Y-140092997D01*
X187406574Y-140092901D01*
X187449749Y-140068338D01*
X187829604Y-140408979D01*
%TA.AperFunction,Conductor*%
D24*
G36*
X187829604Y-140408979D02*
G01*
X187417646Y-140710046D01*
X187379160Y-140682864D01*
X187378932Y-140682706D01*
X187335876Y-140653680D01*
X187335418Y-140653386D01*
X187293676Y-140627780D01*
X187292968Y-140627376D01*
X187250975Y-140605187D01*
X187250043Y-140604742D01*
X187206229Y-140585971D01*
X187205157Y-140585568D01*
X187157956Y-140570212D01*
X187156861Y-140569909D01*
X187104706Y-140557968D01*
X187103699Y-140557780D01*
X187045021Y-140549252D01*
X187044164Y-140549157D01*
X186977395Y-140544042D01*
X186976708Y-140544008D01*
X186912700Y-140542580D01*
X186912700Y-140217464D01*
X186980358Y-140216194D01*
X186980940Y-140216170D01*
X187050851Y-140211649D01*
X187051579Y-140211580D01*
X187113029Y-140204032D01*
X187113893Y-140203896D01*
X187168628Y-140193307D01*
X187169573Y-140193086D01*
X187219339Y-140179445D01*
X187220272Y-140179150D01*
X187266816Y-140162444D01*
X187267631Y-140162120D01*
X187312700Y-140142337D01*
X187313315Y-140142047D01*
X187358655Y-140119175D01*
X187359042Y-140118971D01*
X187406401Y-140092997D01*
X187406574Y-140092901D01*
X187449749Y-140068338D01*
X187829604Y-140408979D01*
G37*
%TD.AperFunction*%
%TD*%
D23*
%TO.N,GND*%
X179207298Y-138836087D02*
X179185106Y-138867188D01*
X179184856Y-138867552D01*
X179160023Y-138905043D01*
X179159664Y-138905617D01*
X179137597Y-138943136D01*
X179137174Y-138943917D01*
X179117913Y-138982619D01*
X179117491Y-138983561D01*
X179101078Y-139024600D01*
X179100718Y-139025626D01*
X179087196Y-139070158D01*
X179086933Y-139071175D01*
X179076343Y-139120354D01*
X179076178Y-139121284D01*
X179068562Y-139176266D01*
X179068477Y-139177068D01*
X179063877Y-139239007D01*
X179063845Y-139239669D01*
X179062576Y-139297300D01*
X178737423Y-139297300D01*
X178736154Y-139239668D01*
X178736122Y-139239007D01*
X178731522Y-139177068D01*
X178731437Y-139176266D01*
X178723821Y-139121284D01*
X178723656Y-139120354D01*
X178713066Y-139071175D01*
X178712803Y-139070158D01*
X178699281Y-139025626D01*
X178698921Y-139024600D01*
X178682508Y-138983561D01*
X178682086Y-138982619D01*
X178662825Y-138943917D01*
X178662402Y-138943136D01*
X178640335Y-138905617D01*
X178639976Y-138905043D01*
X178615143Y-138867552D01*
X178614893Y-138867188D01*
X178592702Y-138836088D01*
X178900000Y-138421333D01*
X179207298Y-138836087D01*
%TA.AperFunction,Conductor*%
D24*
G36*
X179207298Y-138836087D02*
G01*
X179185106Y-138867188D01*
X179184856Y-138867552D01*
X179160023Y-138905043D01*
X179159664Y-138905617D01*
X179137597Y-138943136D01*
X179137174Y-138943917D01*
X179117913Y-138982619D01*
X179117491Y-138983561D01*
X179101078Y-139024600D01*
X179100718Y-139025626D01*
X179087196Y-139070158D01*
X179086933Y-139071175D01*
X179076343Y-139120354D01*
X179076178Y-139121284D01*
X179068562Y-139176266D01*
X179068477Y-139177068D01*
X179063877Y-139239007D01*
X179063845Y-139239669D01*
X179062576Y-139297300D01*
X178737423Y-139297300D01*
X178736154Y-139239668D01*
X178736122Y-139239007D01*
X178731522Y-139177068D01*
X178731437Y-139176266D01*
X178723821Y-139121284D01*
X178723656Y-139120354D01*
X178713066Y-139071175D01*
X178712803Y-139070158D01*
X178699281Y-139025626D01*
X178698921Y-139024600D01*
X178682508Y-138983561D01*
X178682086Y-138982619D01*
X178662825Y-138943917D01*
X178662402Y-138943136D01*
X178640335Y-138905617D01*
X178639976Y-138905043D01*
X178615143Y-138867552D01*
X178614893Y-138867188D01*
X178592702Y-138836088D01*
X178900000Y-138421333D01*
X179207298Y-138836087D01*
G37*
%TD.AperFunction*%
%TD*%
D23*
%TO.N,GND*%
X178659758Y-133957726D02*
X178726670Y-133967503D01*
X178793148Y-133987096D01*
X178856614Y-134018867D01*
X178904724Y-134057316D01*
X178674979Y-134287061D01*
X178652136Y-134270318D01*
X178649993Y-134269050D01*
X178648660Y-134268518D01*
X178614084Y-134256941D01*
X178610773Y-134256304D01*
X178574685Y-134254252D01*
X178572090Y-134254371D01*
X178535924Y-134259766D01*
X178534047Y-134260194D01*
X178499236Y-134270955D01*
X178497884Y-134271458D01*
X178465863Y-134285507D01*
X178464855Y-134286004D01*
X178437057Y-134301261D01*
X178436248Y-134301745D01*
X178414108Y-134316131D01*
X178413344Y-134316669D01*
X178398296Y-134328105D01*
X178397080Y-134329156D01*
X178396219Y-134330002D01*
X177888037Y-134150000D01*
X178400297Y-133968554D01*
X178409107Y-133970461D01*
X178411580Y-133970746D01*
X178412902Y-133970700D01*
X178441321Y-133968210D01*
X178441750Y-133968165D01*
X178483440Y-133963083D01*
X178535425Y-133957983D01*
X178595105Y-133955368D01*
X178659758Y-133957726D01*
%TA.AperFunction,Conductor*%
D24*
G36*
X178659758Y-133957726D02*
G01*
X178726670Y-133967503D01*
X178793148Y-133987096D01*
X178856614Y-134018867D01*
X178904724Y-134057316D01*
X178674979Y-134287061D01*
X178652136Y-134270318D01*
X178649993Y-134269050D01*
X178648660Y-134268518D01*
X178614084Y-134256941D01*
X178610773Y-134256304D01*
X178574685Y-134254252D01*
X178572090Y-134254371D01*
X178535924Y-134259766D01*
X178534047Y-134260194D01*
X178499236Y-134270955D01*
X178497884Y-134271458D01*
X178465863Y-134285507D01*
X178464855Y-134286004D01*
X178437057Y-134301261D01*
X178436248Y-134301745D01*
X178414108Y-134316131D01*
X178413344Y-134316669D01*
X178398296Y-134328105D01*
X178397080Y-134329156D01*
X178396219Y-134330002D01*
X177888037Y-134150000D01*
X178400297Y-133968554D01*
X178409107Y-133970461D01*
X178411580Y-133970746D01*
X178412902Y-133970700D01*
X178441321Y-133968210D01*
X178441750Y-133968165D01*
X178483440Y-133963083D01*
X178535425Y-133957983D01*
X178595105Y-133955368D01*
X178659758Y-133957726D01*
G37*
%TD.AperFunction*%
%TD*%
D23*
%TO.N,GND*%
X176963845Y-131660330D02*
X176963877Y-131660992D01*
X176968477Y-131722931D01*
X176968562Y-131723733D01*
X176976178Y-131778715D01*
X176976343Y-131779645D01*
X176986933Y-131828824D01*
X176987196Y-131829841D01*
X177000718Y-131874373D01*
X177001078Y-131875399D01*
X177017491Y-131916438D01*
X177017913Y-131917380D01*
X177037174Y-131956082D01*
X177037597Y-131956863D01*
X177059664Y-131994382D01*
X177060023Y-131994956D01*
X177084856Y-132032447D01*
X177085106Y-132032811D01*
X177107298Y-132063913D01*
X176800000Y-132478667D01*
X176492702Y-132063912D01*
X176514893Y-132032810D01*
X176515143Y-132032447D01*
X176539976Y-131994956D01*
X176540335Y-131994382D01*
X176562402Y-131956863D01*
X176562825Y-131956082D01*
X176582086Y-131917380D01*
X176582508Y-131916438D01*
X176598921Y-131875399D01*
X176599281Y-131874373D01*
X176612803Y-131829841D01*
X176613066Y-131828824D01*
X176623656Y-131779645D01*
X176623821Y-131778715D01*
X176631437Y-131723733D01*
X176631522Y-131722931D01*
X176636122Y-131660992D01*
X176636154Y-131660331D01*
X176637423Y-131602700D01*
X176962576Y-131602700D01*
X176963845Y-131660330D01*
%TA.AperFunction,Conductor*%
D24*
G36*
X176963845Y-131660330D02*
G01*
X176963877Y-131660992D01*
X176968477Y-131722931D01*
X176968562Y-131723733D01*
X176976178Y-131778715D01*
X176976343Y-131779645D01*
X176986933Y-131828824D01*
X176987196Y-131829841D01*
X177000718Y-131874373D01*
X177001078Y-131875399D01*
X177017491Y-131916438D01*
X177017913Y-131917380D01*
X177037174Y-131956082D01*
X177037597Y-131956863D01*
X177059664Y-131994382D01*
X177060023Y-131994956D01*
X177084856Y-132032447D01*
X177085106Y-132032811D01*
X177107298Y-132063913D01*
X176800000Y-132478667D01*
X176492702Y-132063912D01*
X176514893Y-132032810D01*
X176515143Y-132032447D01*
X176539976Y-131994956D01*
X176540335Y-131994382D01*
X176562402Y-131956863D01*
X176562825Y-131956082D01*
X176582086Y-131917380D01*
X176582508Y-131916438D01*
X176598921Y-131875399D01*
X176599281Y-131874373D01*
X176612803Y-131829841D01*
X176613066Y-131828824D01*
X176623656Y-131779645D01*
X176623821Y-131778715D01*
X176631437Y-131723733D01*
X176631522Y-131722931D01*
X176636122Y-131660992D01*
X176636154Y-131660331D01*
X176637423Y-131602700D01*
X176962576Y-131602700D01*
X176963845Y-131660330D01*
G37*
%TD.AperFunction*%
%TD*%
D23*
%TO.N,GND*%
X169108071Y-129496940D02*
X169059797Y-129547930D01*
X169059221Y-129548581D01*
X169014140Y-129603253D01*
X169013465Y-129604149D01*
X168978515Y-129655097D01*
X168977816Y-129656242D01*
X168951441Y-129705034D01*
X168950828Y-129706341D01*
X168931473Y-129754543D01*
X168931036Y-129755823D01*
X168917144Y-129805004D01*
X168916896Y-129806049D01*
X168906911Y-129857775D01*
X168906798Y-129858462D01*
X168899165Y-129914302D01*
X168899126Y-129914619D01*
X168892287Y-129976140D01*
X168892286Y-129976148D01*
X168885664Y-130036069D01*
X168402410Y-130153241D01*
X168304228Y-129665845D01*
X168367000Y-129628275D01*
X168429392Y-129592877D01*
X168485957Y-129561704D01*
X168486005Y-129561677D01*
X168538649Y-129532369D01*
X168538914Y-129532218D01*
X168589614Y-129502373D01*
X168590063Y-129502095D01*
X168640841Y-129469287D01*
X168641386Y-129468915D01*
X168694266Y-129430716D01*
X168694806Y-129430303D01*
X168751809Y-129384287D01*
X168752280Y-129383887D01*
X168815430Y-129327625D01*
X168815808Y-129327275D01*
X168878151Y-129267020D01*
X169108071Y-129496940D01*
%TA.AperFunction,Conductor*%
D24*
G36*
X169108071Y-129496940D02*
G01*
X169059797Y-129547930D01*
X169059221Y-129548581D01*
X169014140Y-129603253D01*
X169013465Y-129604149D01*
X168978515Y-129655097D01*
X168977816Y-129656242D01*
X168951441Y-129705034D01*
X168950828Y-129706341D01*
X168931473Y-129754543D01*
X168931036Y-129755823D01*
X168917144Y-129805004D01*
X168916896Y-129806049D01*
X168906911Y-129857775D01*
X168906798Y-129858462D01*
X168899165Y-129914302D01*
X168899126Y-129914619D01*
X168892287Y-129976140D01*
X168892286Y-129976148D01*
X168885664Y-130036069D01*
X168402410Y-130153241D01*
X168304228Y-129665845D01*
X168367000Y-129628275D01*
X168429392Y-129592877D01*
X168485957Y-129561704D01*
X168486005Y-129561677D01*
X168538649Y-129532369D01*
X168538914Y-129532218D01*
X168589614Y-129502373D01*
X168590063Y-129502095D01*
X168640841Y-129469287D01*
X168641386Y-129468915D01*
X168694266Y-129430716D01*
X168694806Y-129430303D01*
X168751809Y-129384287D01*
X168752280Y-129383887D01*
X168815430Y-129327625D01*
X168815808Y-129327275D01*
X168878151Y-129267020D01*
X169108071Y-129496940D01*
G37*
%TD.AperFunction*%
%TD*%
D23*
%TO.N,GND*%
X196568634Y-112881253D02*
X196589231Y-112943029D01*
X196608886Y-113005465D01*
X196608894Y-113005490D01*
X196626806Y-113061990D01*
X196626914Y-113062316D01*
X196645047Y-113114564D01*
X196645289Y-113115205D01*
X196665639Y-113164991D01*
X196666037Y-113165868D01*
X196690605Y-113214983D01*
X196691134Y-113215936D01*
X196721915Y-113266171D01*
X196722505Y-113267049D01*
X196761500Y-113320195D01*
X196762065Y-113320910D01*
X196811269Y-113378757D01*
X196811756Y-113379298D01*
X196864603Y-113434664D01*
X196634664Y-113664603D01*
X196579298Y-113611756D01*
X196578757Y-113611269D01*
X196520910Y-113562065D01*
X196520195Y-113561500D01*
X196467049Y-113522505D01*
X196466171Y-113521915D01*
X196415936Y-113491134D01*
X196414983Y-113490605D01*
X196365868Y-113466037D01*
X196364991Y-113465639D01*
X196315205Y-113445289D01*
X196314564Y-113445047D01*
X196262316Y-113426914D01*
X196261990Y-113426806D01*
X196205490Y-113408894D01*
X196205465Y-113408886D01*
X196143029Y-113389231D01*
X196081253Y-113368634D01*
X196071535Y-112871535D01*
X196568634Y-112881253D01*
%TA.AperFunction,Conductor*%
D24*
G36*
X196568634Y-112881253D02*
G01*
X196589231Y-112943029D01*
X196608886Y-113005465D01*
X196608894Y-113005490D01*
X196626806Y-113061990D01*
X196626914Y-113062316D01*
X196645047Y-113114564D01*
X196645289Y-113115205D01*
X196665639Y-113164991D01*
X196666037Y-113165868D01*
X196690605Y-113214983D01*
X196691134Y-113215936D01*
X196721915Y-113266171D01*
X196722505Y-113267049D01*
X196761500Y-113320195D01*
X196762065Y-113320910D01*
X196811269Y-113378757D01*
X196811756Y-113379298D01*
X196864603Y-113434664D01*
X196634664Y-113664603D01*
X196579298Y-113611756D01*
X196578757Y-113611269D01*
X196520910Y-113562065D01*
X196520195Y-113561500D01*
X196467049Y-113522505D01*
X196466171Y-113521915D01*
X196415936Y-113491134D01*
X196414983Y-113490605D01*
X196365868Y-113466037D01*
X196364991Y-113465639D01*
X196315205Y-113445289D01*
X196314564Y-113445047D01*
X196262316Y-113426914D01*
X196261990Y-113426806D01*
X196205490Y-113408894D01*
X196205465Y-113408886D01*
X196143029Y-113389231D01*
X196081253Y-113368634D01*
X196071535Y-112871535D01*
X196568634Y-112881253D01*
G37*
%TD.AperFunction*%
%TD*%
D23*
%TO.N,GND*%
X196299983Y-112180937D02*
X196335730Y-112244771D01*
X196356278Y-112306688D01*
X196366391Y-112367426D01*
X196370660Y-112427527D01*
X196373743Y-112487004D01*
X196373808Y-112487785D01*
X196380484Y-112546386D01*
X196380813Y-112548152D01*
X196395895Y-112605996D01*
X196396797Y-112608415D01*
X196425103Y-112665739D01*
X196426634Y-112668125D01*
X196467434Y-112718335D01*
X196197523Y-113179103D01*
X195855807Y-112823760D01*
X195881819Y-112779204D01*
X195918580Y-112730295D01*
X195958421Y-112683595D01*
X195997608Y-112638570D01*
X195997989Y-112638111D01*
X196032778Y-112594129D01*
X196033647Y-112592883D01*
X196060432Y-112549148D01*
X196061614Y-112546639D01*
X196076838Y-112502300D01*
X196077411Y-112499878D01*
X196077526Y-112498205D01*
X196077630Y-112452412D01*
X196077392Y-112449934D01*
X196076777Y-112447808D01*
X196058203Y-112399711D01*
X196057083Y-112397487D01*
X196056291Y-112396375D01*
X196022545Y-112353994D01*
X196252236Y-112124303D01*
X196299983Y-112180937D01*
%TA.AperFunction,Conductor*%
D24*
G36*
X196299983Y-112180937D02*
G01*
X196335730Y-112244771D01*
X196356278Y-112306688D01*
X196366391Y-112367426D01*
X196370660Y-112427527D01*
X196373743Y-112487004D01*
X196373808Y-112487785D01*
X196380484Y-112546386D01*
X196380813Y-112548152D01*
X196395895Y-112605996D01*
X196396797Y-112608415D01*
X196425103Y-112665739D01*
X196426634Y-112668125D01*
X196467434Y-112718335D01*
X196197523Y-113179103D01*
X195855807Y-112823760D01*
X195881819Y-112779204D01*
X195918580Y-112730295D01*
X195958421Y-112683595D01*
X195997608Y-112638570D01*
X195997989Y-112638111D01*
X196032778Y-112594129D01*
X196033647Y-112592883D01*
X196060432Y-112549148D01*
X196061614Y-112546639D01*
X196076838Y-112502300D01*
X196077411Y-112499878D01*
X196077526Y-112498205D01*
X196077630Y-112452412D01*
X196077392Y-112449934D01*
X196076777Y-112447808D01*
X196058203Y-112399711D01*
X196057083Y-112397487D01*
X196056291Y-112396375D01*
X196022545Y-112353994D01*
X196252236Y-112124303D01*
X196299983Y-112180937D01*
G37*
%TD.AperFunction*%
%TD*%
D23*
%TO.N,GND*%
X196181678Y-107000000D02*
X195823108Y-107344820D01*
X195772047Y-107321112D01*
X195771551Y-107320894D01*
X195717238Y-107298440D01*
X195716570Y-107298186D01*
X195664935Y-107280169D01*
X195664132Y-107279918D01*
X195613219Y-107265857D01*
X195612364Y-107265653D01*
X195560217Y-107255071D01*
X195559415Y-107254935D01*
X195504078Y-107247351D01*
X195503414Y-107247277D01*
X195442933Y-107242212D01*
X195442441Y-107242181D01*
X195374858Y-107239157D01*
X195374532Y-107239146D01*
X195297893Y-107237683D01*
X195297706Y-107237681D01*
X195222700Y-107237355D01*
X195222700Y-106762645D01*
X195297706Y-106762318D01*
X195297893Y-106762316D01*
X195374532Y-106760853D01*
X195374858Y-106760842D01*
X195442441Y-106757818D01*
X195442933Y-106757787D01*
X195503414Y-106752722D01*
X195504078Y-106752648D01*
X195559415Y-106745064D01*
X195560217Y-106744928D01*
X195612364Y-106734346D01*
X195613219Y-106734142D01*
X195664132Y-106720081D01*
X195664935Y-106719830D01*
X195716570Y-106701813D01*
X195717238Y-106701559D01*
X195771551Y-106679105D01*
X195772047Y-106678887D01*
X195823108Y-106655180D01*
X196181678Y-107000000D01*
%TA.AperFunction,Conductor*%
D24*
G36*
X196181678Y-107000000D02*
G01*
X195823108Y-107344820D01*
X195772047Y-107321112D01*
X195771551Y-107320894D01*
X195717238Y-107298440D01*
X195716570Y-107298186D01*
X195664935Y-107280169D01*
X195664132Y-107279918D01*
X195613219Y-107265857D01*
X195612364Y-107265653D01*
X195560217Y-107255071D01*
X195559415Y-107254935D01*
X195504078Y-107247351D01*
X195503414Y-107247277D01*
X195442933Y-107242212D01*
X195442441Y-107242181D01*
X195374858Y-107239157D01*
X195374532Y-107239146D01*
X195297893Y-107237683D01*
X195297706Y-107237681D01*
X195222700Y-107237355D01*
X195222700Y-106762645D01*
X195297706Y-106762318D01*
X195297893Y-106762316D01*
X195374532Y-106760853D01*
X195374858Y-106760842D01*
X195442441Y-106757818D01*
X195442933Y-106757787D01*
X195503414Y-106752722D01*
X195504078Y-106752648D01*
X195559415Y-106745064D01*
X195560217Y-106744928D01*
X195612364Y-106734346D01*
X195613219Y-106734142D01*
X195664132Y-106720081D01*
X195664935Y-106719830D01*
X195716570Y-106701813D01*
X195717238Y-106701559D01*
X195771551Y-106679105D01*
X195772047Y-106678887D01*
X195823108Y-106655180D01*
X196181678Y-107000000D01*
G37*
%TD.AperFunction*%
%TD*%
D23*
%TO.N,GND*%
X196318747Y-113368634D02*
X196256970Y-113389231D01*
X196194534Y-113408886D01*
X196194509Y-113408894D01*
X196138009Y-113426806D01*
X196137683Y-113426914D01*
X196085435Y-113445047D01*
X196084794Y-113445289D01*
X196035008Y-113465639D01*
X196034131Y-113466037D01*
X195985016Y-113490605D01*
X195984063Y-113491134D01*
X195933828Y-113521915D01*
X195932950Y-113522505D01*
X195879804Y-113561500D01*
X195879089Y-113562065D01*
X195821242Y-113611269D01*
X195820701Y-113611756D01*
X195765336Y-113664603D01*
X195535397Y-113434664D01*
X195588243Y-113379298D01*
X195588730Y-113378757D01*
X195637934Y-113320910D01*
X195638499Y-113320195D01*
X195677494Y-113267049D01*
X195678084Y-113266171D01*
X195708865Y-113215936D01*
X195709394Y-113214983D01*
X195733962Y-113165868D01*
X195734360Y-113164991D01*
X195754710Y-113115205D01*
X195754952Y-113114564D01*
X195773085Y-113062316D01*
X195773193Y-113061990D01*
X195791105Y-113005490D01*
X195791113Y-113005465D01*
X195810768Y-112943029D01*
X195831366Y-112881253D01*
X196328465Y-112871535D01*
X196318747Y-113368634D01*
%TA.AperFunction,Conductor*%
D24*
G36*
X196318747Y-113368634D02*
G01*
X196256970Y-113389231D01*
X196194534Y-113408886D01*
X196194509Y-113408894D01*
X196138009Y-113426806D01*
X196137683Y-113426914D01*
X196085435Y-113445047D01*
X196084794Y-113445289D01*
X196035008Y-113465639D01*
X196034131Y-113466037D01*
X195985016Y-113490605D01*
X195984063Y-113491134D01*
X195933828Y-113521915D01*
X195932950Y-113522505D01*
X195879804Y-113561500D01*
X195879089Y-113562065D01*
X195821242Y-113611269D01*
X195820701Y-113611756D01*
X195765336Y-113664603D01*
X195535397Y-113434664D01*
X195588243Y-113379298D01*
X195588730Y-113378757D01*
X195637934Y-113320910D01*
X195638499Y-113320195D01*
X195677494Y-113267049D01*
X195678084Y-113266171D01*
X195708865Y-113215936D01*
X195709394Y-113214983D01*
X195733962Y-113165868D01*
X195734360Y-113164991D01*
X195754710Y-113115205D01*
X195754952Y-113114564D01*
X195773085Y-113062316D01*
X195773193Y-113061990D01*
X195791105Y-113005490D01*
X195791113Y-113005465D01*
X195810768Y-112943029D01*
X195831366Y-112881253D01*
X196328465Y-112871535D01*
X196318747Y-113368634D01*
G37*
%TD.AperFunction*%
%TD*%
D23*
%TO.N,GND*%
X181694522Y-117826582D02*
X181662482Y-117888118D01*
X181627580Y-117947458D01*
X181594380Y-118000028D01*
X181563525Y-118048856D01*
X181563269Y-118049278D01*
X181535484Y-118097285D01*
X181535023Y-118098158D01*
X181510921Y-118148446D01*
X181510409Y-118149678D01*
X181490599Y-118205353D01*
X181490193Y-118206736D01*
X181475287Y-118270903D01*
X181475054Y-118272215D01*
X181465662Y-118347976D01*
X181465574Y-118349080D01*
X181462750Y-118427300D01*
X181237250Y-118427300D01*
X181234425Y-118349080D01*
X181234337Y-118347976D01*
X181224945Y-118272215D01*
X181224712Y-118270903D01*
X181209806Y-118206736D01*
X181209400Y-118205353D01*
X181189590Y-118149678D01*
X181189078Y-118148446D01*
X181164976Y-118098158D01*
X181164515Y-118097285D01*
X181136730Y-118049278D01*
X181136474Y-118048856D01*
X181105619Y-118000028D01*
X181072419Y-117947458D01*
X181037517Y-117888119D01*
X181005478Y-117826582D01*
X181350000Y-117468322D01*
X181694522Y-117826582D01*
%TA.AperFunction,Conductor*%
D24*
G36*
X181694522Y-117826582D02*
G01*
X181662482Y-117888118D01*
X181627580Y-117947458D01*
X181594380Y-118000028D01*
X181563525Y-118048856D01*
X181563269Y-118049278D01*
X181535484Y-118097285D01*
X181535023Y-118098158D01*
X181510921Y-118148446D01*
X181510409Y-118149678D01*
X181490599Y-118205353D01*
X181490193Y-118206736D01*
X181475287Y-118270903D01*
X181475054Y-118272215D01*
X181465662Y-118347976D01*
X181465574Y-118349080D01*
X181462750Y-118427300D01*
X181237250Y-118427300D01*
X181234425Y-118349080D01*
X181234337Y-118347976D01*
X181224945Y-118272215D01*
X181224712Y-118270903D01*
X181209806Y-118206736D01*
X181209400Y-118205353D01*
X181189590Y-118149678D01*
X181189078Y-118148446D01*
X181164976Y-118098158D01*
X181164515Y-118097285D01*
X181136730Y-118049278D01*
X181136474Y-118048856D01*
X181105619Y-118000028D01*
X181072419Y-117947458D01*
X181037517Y-117888119D01*
X181005478Y-117826582D01*
X181350000Y-117468322D01*
X181694522Y-117826582D01*
G37*
%TD.AperFunction*%
%TD*%
D23*
%TO.N,GND*%
X195818747Y-122868634D02*
X195756970Y-122889231D01*
X195694534Y-122908886D01*
X195694509Y-122908894D01*
X195638009Y-122926806D01*
X195637683Y-122926914D01*
X195585435Y-122945047D01*
X195584794Y-122945289D01*
X195535008Y-122965639D01*
X195534131Y-122966037D01*
X195485016Y-122990605D01*
X195484063Y-122991134D01*
X195433828Y-123021915D01*
X195432950Y-123022505D01*
X195379804Y-123061500D01*
X195379089Y-123062065D01*
X195321242Y-123111269D01*
X195320701Y-123111756D01*
X195265336Y-123164603D01*
X195035397Y-122934664D01*
X195088243Y-122879298D01*
X195088730Y-122878757D01*
X195137934Y-122820910D01*
X195138499Y-122820195D01*
X195177494Y-122767049D01*
X195178084Y-122766171D01*
X195208865Y-122715936D01*
X195209394Y-122714983D01*
X195233962Y-122665868D01*
X195234360Y-122664991D01*
X195254710Y-122615205D01*
X195254952Y-122614564D01*
X195273085Y-122562316D01*
X195273193Y-122561990D01*
X195291105Y-122505490D01*
X195291113Y-122505465D01*
X195310768Y-122443029D01*
X195331366Y-122381253D01*
X195828465Y-122371535D01*
X195818747Y-122868634D01*
%TA.AperFunction,Conductor*%
D24*
G36*
X195818747Y-122868634D02*
G01*
X195756970Y-122889231D01*
X195694534Y-122908886D01*
X195694509Y-122908894D01*
X195638009Y-122926806D01*
X195637683Y-122926914D01*
X195585435Y-122945047D01*
X195584794Y-122945289D01*
X195535008Y-122965639D01*
X195534131Y-122966037D01*
X195485016Y-122990605D01*
X195484063Y-122991134D01*
X195433828Y-123021915D01*
X195432950Y-123022505D01*
X195379804Y-123061500D01*
X195379089Y-123062065D01*
X195321242Y-123111269D01*
X195320701Y-123111756D01*
X195265336Y-123164603D01*
X195035397Y-122934664D01*
X195088243Y-122879298D01*
X195088730Y-122878757D01*
X195137934Y-122820910D01*
X195138499Y-122820195D01*
X195177494Y-122767049D01*
X195178084Y-122766171D01*
X195208865Y-122715936D01*
X195209394Y-122714983D01*
X195233962Y-122665868D01*
X195234360Y-122664991D01*
X195254710Y-122615205D01*
X195254952Y-122614564D01*
X195273085Y-122562316D01*
X195273193Y-122561990D01*
X195291105Y-122505490D01*
X195291113Y-122505465D01*
X195310768Y-122443029D01*
X195331366Y-122381253D01*
X195828465Y-122371535D01*
X195818747Y-122868634D01*
G37*
%TD.AperFunction*%
%TD*%
D23*
%TO.N,GND*%
X174144631Y-131676695D02*
X174115491Y-131734985D01*
X174085262Y-131792991D01*
X174085250Y-131793014D01*
X174057964Y-131845632D01*
X174057810Y-131845938D01*
X174033687Y-131895704D01*
X174033404Y-131896329D01*
X174012590Y-131945924D01*
X174012252Y-131946825D01*
X173994894Y-131998926D01*
X173994594Y-131999975D01*
X173980838Y-132057263D01*
X173980634Y-132058300D01*
X173970628Y-132123453D01*
X173970522Y-132124359D01*
X173964410Y-132200056D01*
X173964372Y-132200783D01*
X173962592Y-132277300D01*
X173637408Y-132277300D01*
X173635627Y-132200782D01*
X173635589Y-132200056D01*
X173629477Y-132124359D01*
X173629371Y-132123453D01*
X173619365Y-132058300D01*
X173619161Y-132057263D01*
X173605405Y-131999975D01*
X173605105Y-131998926D01*
X173587747Y-131946825D01*
X173587409Y-131945924D01*
X173566595Y-131896329D01*
X173566312Y-131895704D01*
X173542189Y-131845938D01*
X173542035Y-131845632D01*
X173514749Y-131793014D01*
X173514737Y-131792991D01*
X173484508Y-131734985D01*
X173455369Y-131676695D01*
X173800000Y-131318322D01*
X174144631Y-131676695D01*
%TA.AperFunction,Conductor*%
D24*
G36*
X174144631Y-131676695D02*
G01*
X174115491Y-131734985D01*
X174085262Y-131792991D01*
X174085250Y-131793014D01*
X174057964Y-131845632D01*
X174057810Y-131845938D01*
X174033687Y-131895704D01*
X174033404Y-131896329D01*
X174012590Y-131945924D01*
X174012252Y-131946825D01*
X173994894Y-131998926D01*
X173994594Y-131999975D01*
X173980838Y-132057263D01*
X173980634Y-132058300D01*
X173970628Y-132123453D01*
X173970522Y-132124359D01*
X173964410Y-132200056D01*
X173964372Y-132200783D01*
X173962592Y-132277300D01*
X173637408Y-132277300D01*
X173635627Y-132200782D01*
X173635589Y-132200056D01*
X173629477Y-132124359D01*
X173629371Y-132123453D01*
X173619365Y-132058300D01*
X173619161Y-132057263D01*
X173605405Y-131999975D01*
X173605105Y-131998926D01*
X173587747Y-131946825D01*
X173587409Y-131945924D01*
X173566595Y-131896329D01*
X173566312Y-131895704D01*
X173542189Y-131845938D01*
X173542035Y-131845632D01*
X173514749Y-131793014D01*
X173514737Y-131792991D01*
X173484508Y-131734985D01*
X173455369Y-131676695D01*
X173800000Y-131318322D01*
X174144631Y-131676695D01*
G37*
%TD.AperFunction*%
%TD*%
D23*
%TO.N,GND*%
X174421615Y-131213465D02*
X174369360Y-131218498D01*
X174366285Y-131219187D01*
X174317570Y-131236684D01*
X174315321Y-131237751D01*
X174314180Y-131238524D01*
X174278028Y-131265992D01*
X174276203Y-131267685D01*
X174275416Y-131268667D01*
X174249368Y-131304723D01*
X174247977Y-131307188D01*
X174229573Y-131350445D01*
X174228996Y-131352114D01*
X174215778Y-131401189D01*
X174215578Y-131402048D01*
X174205087Y-131455555D01*
X174205053Y-131455740D01*
X174194869Y-131512075D01*
X174182588Y-131569667D01*
X174168267Y-131618754D01*
X173675108Y-131628395D01*
X173809925Y-131112259D01*
X173876741Y-131109188D01*
X173877999Y-131109067D01*
X173942851Y-131099567D01*
X173944053Y-131099331D01*
X174000779Y-131085331D01*
X174001698Y-131085067D01*
X174053476Y-131068067D01*
X174053920Y-131067912D01*
X174103880Y-131049430D01*
X174154926Y-131031065D01*
X174210167Y-131014298D01*
X174272899Y-131000528D01*
X174346520Y-130991169D01*
X174421614Y-130988211D01*
X174421615Y-131213465D01*
%TA.AperFunction,Conductor*%
D24*
G36*
X174421615Y-131213465D02*
G01*
X174369360Y-131218498D01*
X174366285Y-131219187D01*
X174317570Y-131236684D01*
X174315321Y-131237751D01*
X174314180Y-131238524D01*
X174278028Y-131265992D01*
X174276203Y-131267685D01*
X174275416Y-131268667D01*
X174249368Y-131304723D01*
X174247977Y-131307188D01*
X174229573Y-131350445D01*
X174228996Y-131352114D01*
X174215778Y-131401189D01*
X174215578Y-131402048D01*
X174205087Y-131455555D01*
X174205053Y-131455740D01*
X174194869Y-131512075D01*
X174182588Y-131569667D01*
X174168267Y-131618754D01*
X173675108Y-131628395D01*
X173809925Y-131112259D01*
X173876741Y-131109188D01*
X173877999Y-131109067D01*
X173942851Y-131099567D01*
X173944053Y-131099331D01*
X174000779Y-131085331D01*
X174001698Y-131085067D01*
X174053476Y-131068067D01*
X174053920Y-131067912D01*
X174103880Y-131049430D01*
X174154926Y-131031065D01*
X174210167Y-131014298D01*
X174272899Y-131000528D01*
X174346520Y-130991169D01*
X174421614Y-130988211D01*
X174421615Y-131213465D01*
G37*
%TD.AperFunction*%
%TD*%
D23*
%TO.N,GND*%
X181911271Y-111300000D02*
X181915378Y-111341696D01*
X181927540Y-111381791D01*
X181947291Y-111418741D01*
X181973871Y-111451129D01*
X181987152Y-111462028D01*
X182006547Y-111502610D01*
X182006828Y-111503163D01*
X182033128Y-111551925D01*
X181711333Y-111931324D01*
X181344822Y-111594967D01*
X181366442Y-111539719D01*
X181366617Y-111539243D01*
X181386689Y-111481215D01*
X181386887Y-111480590D01*
X181402736Y-111425764D01*
X181402925Y-111425032D01*
X181415049Y-111371288D01*
X181415196Y-111370529D01*
X181424092Y-111315745D01*
X181424185Y-111315052D01*
X181430349Y-111257110D01*
X181430396Y-111256555D01*
X181434326Y-111193333D01*
X181434344Y-111192939D01*
X181436535Y-111122317D01*
X181436540Y-111122074D01*
X181437491Y-111041933D01*
X181437492Y-111041811D01*
X181437670Y-110962701D01*
X181911271Y-110962701D01*
X181911271Y-111300000D01*
%TA.AperFunction,Conductor*%
D24*
G36*
X181911271Y-111300000D02*
G01*
X181915378Y-111341696D01*
X181927540Y-111381791D01*
X181947291Y-111418741D01*
X181973871Y-111451129D01*
X181987152Y-111462028D01*
X182006547Y-111502610D01*
X182006828Y-111503163D01*
X182033128Y-111551925D01*
X181711333Y-111931324D01*
X181344822Y-111594967D01*
X181366442Y-111539719D01*
X181366617Y-111539243D01*
X181386689Y-111481215D01*
X181386887Y-111480590D01*
X181402736Y-111425764D01*
X181402925Y-111425032D01*
X181415049Y-111371288D01*
X181415196Y-111370529D01*
X181424092Y-111315745D01*
X181424185Y-111315052D01*
X181430349Y-111257110D01*
X181430396Y-111256555D01*
X181434326Y-111193333D01*
X181434344Y-111192939D01*
X181436535Y-111122317D01*
X181436540Y-111122074D01*
X181437491Y-111041933D01*
X181437492Y-111041811D01*
X181437670Y-110962701D01*
X181911271Y-110962701D01*
X181911271Y-111300000D01*
G37*
%TD.AperFunction*%
%TD*%
D23*
%TO.N,GND*%
X182033128Y-109698075D02*
X182006828Y-109746836D01*
X182006547Y-109747389D01*
X181981524Y-109799746D01*
X181981198Y-109800489D01*
X181961050Y-109850653D01*
X181960728Y-109851549D01*
X181953843Y-109873276D01*
X181947291Y-109881259D01*
X181927540Y-109918209D01*
X181915378Y-109958304D01*
X181911271Y-110000000D01*
X181911271Y-110287299D01*
X181437670Y-110287299D01*
X181437492Y-110208188D01*
X181437491Y-110208066D01*
X181436540Y-110127925D01*
X181436535Y-110127682D01*
X181434344Y-110057060D01*
X181434326Y-110056666D01*
X181430396Y-109993444D01*
X181430349Y-109992889D01*
X181424185Y-109934947D01*
X181424092Y-109934254D01*
X181415196Y-109879470D01*
X181415049Y-109878711D01*
X181402925Y-109824967D01*
X181402736Y-109824235D01*
X181386887Y-109769409D01*
X181386689Y-109768784D01*
X181366617Y-109710756D01*
X181366442Y-109710280D01*
X181344822Y-109655033D01*
X181711333Y-109318676D01*
X182033128Y-109698075D01*
%TA.AperFunction,Conductor*%
D24*
G36*
X182033128Y-109698075D02*
G01*
X182006828Y-109746836D01*
X182006547Y-109747389D01*
X181981524Y-109799746D01*
X181981198Y-109800489D01*
X181961050Y-109850653D01*
X181960728Y-109851549D01*
X181953843Y-109873276D01*
X181947291Y-109881259D01*
X181927540Y-109918209D01*
X181915378Y-109958304D01*
X181911271Y-110000000D01*
X181911271Y-110287299D01*
X181437670Y-110287299D01*
X181437492Y-110208188D01*
X181437491Y-110208066D01*
X181436540Y-110127925D01*
X181436535Y-110127682D01*
X181434344Y-110057060D01*
X181434326Y-110056666D01*
X181430396Y-109993444D01*
X181430349Y-109992889D01*
X181424185Y-109934947D01*
X181424092Y-109934254D01*
X181415196Y-109879470D01*
X181415049Y-109878711D01*
X181402925Y-109824967D01*
X181402736Y-109824235D01*
X181386887Y-109769409D01*
X181386689Y-109768784D01*
X181366617Y-109710756D01*
X181366442Y-109710280D01*
X181344822Y-109655033D01*
X181711333Y-109318676D01*
X182033128Y-109698075D01*
G37*
%TD.AperFunction*%
%TD*%
D23*
%TO.N,+3V3*%
X202656678Y-109500000D02*
X201877278Y-110249512D01*
X201734928Y-110175103D01*
X201606855Y-110098890D01*
X201493939Y-110026227D01*
X201389558Y-109958594D01*
X201389157Y-109958344D01*
X201286671Y-109897227D01*
X201285804Y-109896755D01*
X201178485Y-109843588D01*
X201177237Y-109843051D01*
X201058323Y-109799243D01*
X201056905Y-109798813D01*
X200919633Y-109765775D01*
X200918279Y-109765525D01*
X200755889Y-109744668D01*
X200754746Y-109744574D01*
X200572700Y-109737766D01*
X200572700Y-109262234D01*
X200754746Y-109255425D01*
X200755889Y-109255331D01*
X200918279Y-109234474D01*
X200919633Y-109234224D01*
X201056905Y-109201186D01*
X201058323Y-109200756D01*
X201177237Y-109156948D01*
X201178485Y-109156411D01*
X201285804Y-109103244D01*
X201286671Y-109102772D01*
X201389157Y-109041655D01*
X201389558Y-109041405D01*
X201493939Y-108973772D01*
X201606855Y-108901109D01*
X201734928Y-108824896D01*
X201877278Y-108750488D01*
X202656678Y-109500000D01*
%TA.AperFunction,Conductor*%
D24*
G36*
X202656678Y-109500000D02*
G01*
X201877278Y-110249512D01*
X201734928Y-110175103D01*
X201606855Y-110098890D01*
X201493939Y-110026227D01*
X201389558Y-109958594D01*
X201389157Y-109958344D01*
X201286671Y-109897227D01*
X201285804Y-109896755D01*
X201178485Y-109843588D01*
X201177237Y-109843051D01*
X201058323Y-109799243D01*
X201056905Y-109798813D01*
X200919633Y-109765775D01*
X200918279Y-109765525D01*
X200755889Y-109744668D01*
X200754746Y-109744574D01*
X200572700Y-109737766D01*
X200572700Y-109262234D01*
X200754746Y-109255425D01*
X200755889Y-109255331D01*
X200918279Y-109234474D01*
X200919633Y-109234224D01*
X201056905Y-109201186D01*
X201058323Y-109200756D01*
X201177237Y-109156948D01*
X201178485Y-109156411D01*
X201285804Y-109103244D01*
X201286671Y-109102772D01*
X201389157Y-109041655D01*
X201389558Y-109041405D01*
X201493939Y-108973772D01*
X201606855Y-108901109D01*
X201734928Y-108824896D01*
X201877278Y-108750488D01*
X202656678Y-109500000D01*
G37*
%TD.AperFunction*%
%TD*%
D23*
%TO.N,+3V3*%
X202962274Y-109014079D02*
X202963640Y-109015128D01*
X203077672Y-109091048D01*
X203079113Y-109091877D01*
X203189447Y-109146046D01*
X203190619Y-109146550D01*
X203299166Y-109186896D01*
X203299753Y-109187098D01*
X203408329Y-109221519D01*
X203518583Y-109257853D01*
X203632213Y-109303884D01*
X203751422Y-109367525D01*
X203878422Y-109456785D01*
X204005810Y-109571204D01*
X203669798Y-109907216D01*
X203565932Y-109823484D01*
X203562795Y-109821627D01*
X203457365Y-109778231D01*
X203454981Y-109777514D01*
X203452949Y-109777282D01*
X203352736Y-109773985D01*
X203350251Y-109774147D01*
X203348637Y-109774523D01*
X203251542Y-109803929D01*
X203248939Y-109805048D01*
X203152861Y-109859758D01*
X203151542Y-109860621D01*
X203054381Y-109933238D01*
X203053882Y-109933631D01*
X202953608Y-110016700D01*
X202848257Y-110102712D01*
X202736095Y-110184049D01*
X202622446Y-110249246D01*
X201845897Y-109502477D01*
X202849527Y-108914564D01*
X202962274Y-109014079D01*
%TA.AperFunction,Conductor*%
D24*
G36*
X202962274Y-109014079D02*
G01*
X202963640Y-109015128D01*
X203077672Y-109091048D01*
X203079113Y-109091877D01*
X203189447Y-109146046D01*
X203190619Y-109146550D01*
X203299166Y-109186896D01*
X203299753Y-109187098D01*
X203408329Y-109221519D01*
X203518583Y-109257853D01*
X203632213Y-109303884D01*
X203751422Y-109367525D01*
X203878422Y-109456785D01*
X204005810Y-109571204D01*
X203669798Y-109907216D01*
X203565932Y-109823484D01*
X203562795Y-109821627D01*
X203457365Y-109778231D01*
X203454981Y-109777514D01*
X203452949Y-109777282D01*
X203352736Y-109773985D01*
X203350251Y-109774147D01*
X203348637Y-109774523D01*
X203251542Y-109803929D01*
X203248939Y-109805048D01*
X203152861Y-109859758D01*
X203151542Y-109860621D01*
X203054381Y-109933238D01*
X203053882Y-109933631D01*
X202953608Y-110016700D01*
X202848257Y-110102712D01*
X202736095Y-110184049D01*
X202622446Y-110249246D01*
X201845897Y-109502477D01*
X202849527Y-108914564D01*
X202962274Y-109014079D01*
G37*
%TD.AperFunction*%
%TD*%
D23*
%TO.N,+3V3*%
X164154103Y-109502477D02*
X163377704Y-110249102D01*
X163253825Y-110174578D01*
X163134302Y-110077437D01*
X163023759Y-109971273D01*
X162919615Y-109865545D01*
X162919333Y-109865267D01*
X162819043Y-109769609D01*
X162818008Y-109768723D01*
X162718903Y-109692676D01*
X162716545Y-109691245D01*
X162615832Y-109644216D01*
X162613484Y-109643389D01*
X162611495Y-109643065D01*
X162506377Y-109634464D01*
X162503887Y-109634505D01*
X162501153Y-109635133D01*
X162388835Y-109674370D01*
X162386576Y-109675417D01*
X162385158Y-109676388D01*
X162271708Y-109765880D01*
X161935828Y-109430000D01*
X162063323Y-109320556D01*
X162193833Y-109242601D01*
X162319090Y-109194745D01*
X162440603Y-109167505D01*
X162559861Y-109151533D01*
X162677607Y-109137506D01*
X162678404Y-109137385D01*
X162795325Y-109115865D01*
X162796994Y-109115439D01*
X162914058Y-109076940D01*
X162916204Y-109076007D01*
X163034488Y-109011034D01*
X163036526Y-109009641D01*
X163150256Y-108914437D01*
X164154103Y-109502477D01*
%TA.AperFunction,Conductor*%
D24*
G36*
X164154103Y-109502477D02*
G01*
X163377704Y-110249102D01*
X163253825Y-110174578D01*
X163134302Y-110077437D01*
X163023759Y-109971273D01*
X162919615Y-109865545D01*
X162919333Y-109865267D01*
X162819043Y-109769609D01*
X162818008Y-109768723D01*
X162718903Y-109692676D01*
X162716545Y-109691245D01*
X162615832Y-109644216D01*
X162613484Y-109643389D01*
X162611495Y-109643065D01*
X162506377Y-109634464D01*
X162503887Y-109634505D01*
X162501153Y-109635133D01*
X162388835Y-109674370D01*
X162386576Y-109675417D01*
X162385158Y-109676388D01*
X162271708Y-109765880D01*
X161935828Y-109430000D01*
X162063323Y-109320556D01*
X162193833Y-109242601D01*
X162319090Y-109194745D01*
X162440603Y-109167505D01*
X162559861Y-109151533D01*
X162677607Y-109137506D01*
X162678404Y-109137385D01*
X162795325Y-109115865D01*
X162796994Y-109115439D01*
X162914058Y-109076940D01*
X162916204Y-109076007D01*
X163034488Y-109011034D01*
X163036526Y-109009641D01*
X163150256Y-108914437D01*
X164154103Y-109502477D01*
G37*
%TD.AperFunction*%
%TD*%
D23*
%TO.N,+3V3*%
X164269657Y-108829390D02*
X164399506Y-108912588D01*
X164512095Y-108994081D01*
X164614770Y-109071758D01*
X164615037Y-109071955D01*
X164715042Y-109143580D01*
X164715858Y-109144118D01*
X164820488Y-109207483D01*
X164821816Y-109208183D01*
X164938479Y-109261163D01*
X164940110Y-109261773D01*
X165076215Y-109302246D01*
X165077846Y-109302616D01*
X165240799Y-109328457D01*
X165242204Y-109328601D01*
X165427300Y-109337129D01*
X165427300Y-109662871D01*
X165242204Y-109671398D01*
X165240799Y-109671542D01*
X165077846Y-109697383D01*
X165076215Y-109697753D01*
X164940110Y-109738226D01*
X164938479Y-109738836D01*
X164821816Y-109791816D01*
X164820488Y-109792516D01*
X164715858Y-109855881D01*
X164715042Y-109856419D01*
X164615037Y-109928044D01*
X164614770Y-109928241D01*
X164512095Y-110005918D01*
X164399506Y-110087411D01*
X164269657Y-110170609D01*
X164122648Y-110249441D01*
X163343322Y-109500000D01*
X164122648Y-108750559D01*
X164269657Y-108829390D01*
%TA.AperFunction,Conductor*%
D24*
G36*
X164269657Y-108829390D02*
G01*
X164399506Y-108912588D01*
X164512095Y-108994081D01*
X164614770Y-109071758D01*
X164615037Y-109071955D01*
X164715042Y-109143580D01*
X164715858Y-109144118D01*
X164820488Y-109207483D01*
X164821816Y-109208183D01*
X164938479Y-109261163D01*
X164940110Y-109261773D01*
X165076215Y-109302246D01*
X165077846Y-109302616D01*
X165240799Y-109328457D01*
X165242204Y-109328601D01*
X165427300Y-109337129D01*
X165427300Y-109662871D01*
X165242204Y-109671398D01*
X165240799Y-109671542D01*
X165077846Y-109697383D01*
X165076215Y-109697753D01*
X164940110Y-109738226D01*
X164938479Y-109738836D01*
X164821816Y-109791816D01*
X164820488Y-109792516D01*
X164715858Y-109855881D01*
X164715042Y-109856419D01*
X164615037Y-109928044D01*
X164614770Y-109928241D01*
X164512095Y-110005918D01*
X164399506Y-110087411D01*
X164269657Y-110170609D01*
X164122648Y-110249441D01*
X163343322Y-109500000D01*
X164122648Y-108750559D01*
X164269657Y-108829390D01*
G37*
%TD.AperFunction*%
%TD*%
D23*
%TO.N,+3V3*%
X171003892Y-109352484D02*
X170317471Y-110187845D01*
X170155078Y-110123858D01*
X170011922Y-110053512D01*
X169888102Y-109982310D01*
X169775653Y-109912555D01*
X169775532Y-109912481D01*
X169666810Y-109846710D01*
X169666147Y-109846335D01*
X169553462Y-109787080D01*
X169552309Y-109786546D01*
X169427803Y-109736233D01*
X169426356Y-109735747D01*
X169282169Y-109696805D01*
X169280698Y-109696500D01*
X169108969Y-109671355D01*
X169107675Y-109671233D01*
X168912700Y-109662835D01*
X168912700Y-109337110D01*
X169091400Y-109328603D01*
X169092869Y-109328447D01*
X169250354Y-109302386D01*
X169252093Y-109301970D01*
X169383216Y-109260709D01*
X169384988Y-109260002D01*
X169496694Y-109205318D01*
X169498167Y-109204470D01*
X169597404Y-109138142D01*
X169598359Y-109137437D01*
X169692074Y-109061244D01*
X169692483Y-109060896D01*
X169787567Y-108976667D01*
X169890874Y-108886259D01*
X170009148Y-108791586D01*
X170142316Y-108699217D01*
X171003892Y-109352484D01*
%TA.AperFunction,Conductor*%
D24*
G36*
X171003892Y-109352484D02*
G01*
X170317471Y-110187845D01*
X170155078Y-110123858D01*
X170011922Y-110053512D01*
X169888102Y-109982310D01*
X169775653Y-109912555D01*
X169775532Y-109912481D01*
X169666810Y-109846710D01*
X169666147Y-109846335D01*
X169553462Y-109787080D01*
X169552309Y-109786546D01*
X169427803Y-109736233D01*
X169426356Y-109735747D01*
X169282169Y-109696805D01*
X169280698Y-109696500D01*
X169108969Y-109671355D01*
X169107675Y-109671233D01*
X168912700Y-109662835D01*
X168912700Y-109337110D01*
X169091400Y-109328603D01*
X169092869Y-109328447D01*
X169250354Y-109302386D01*
X169252093Y-109301970D01*
X169383216Y-109260709D01*
X169384988Y-109260002D01*
X169496694Y-109205318D01*
X169498167Y-109204470D01*
X169597404Y-109138142D01*
X169598359Y-109137437D01*
X169692074Y-109061244D01*
X169692483Y-109060896D01*
X169787567Y-108976667D01*
X169890874Y-108886259D01*
X170009148Y-108791586D01*
X170142316Y-108699217D01*
X171003892Y-109352484D01*
G37*
%TD.AperFunction*%
%TD*%
D23*
%TO.N,+3V3*%
X171060189Y-107971043D02*
X170975572Y-108074456D01*
X170973813Y-108077302D01*
X170926530Y-108182738D01*
X170925739Y-108185099D01*
X170925472Y-108186760D01*
X170916126Y-108287370D01*
X170916140Y-108289860D01*
X170916379Y-108291322D01*
X170938298Y-108389151D01*
X170939237Y-108391861D01*
X170985746Y-108488954D01*
X170986575Y-108490423D01*
X171050999Y-108588827D01*
X171051433Y-108589449D01*
X171127100Y-108691207D01*
X171127125Y-108691241D01*
X171207183Y-108798166D01*
X171284847Y-108912092D01*
X171349323Y-109027474D01*
X170602477Y-109804103D01*
X170014726Y-108800748D01*
X170120589Y-108688411D01*
X170121132Y-108687795D01*
X170210353Y-108579924D01*
X170210851Y-108579281D01*
X170283150Y-108479496D01*
X170283521Y-108478956D01*
X170345145Y-108383957D01*
X170345324Y-108383672D01*
X170402483Y-108290215D01*
X170461382Y-108195064D01*
X170528139Y-108095089D01*
X170609088Y-107986798D01*
X170710537Y-107866787D01*
X170830046Y-107740900D01*
X171060189Y-107971043D01*
%TA.AperFunction,Conductor*%
D24*
G36*
X171060189Y-107971043D02*
G01*
X170975572Y-108074456D01*
X170973813Y-108077302D01*
X170926530Y-108182738D01*
X170925739Y-108185099D01*
X170925472Y-108186760D01*
X170916126Y-108287370D01*
X170916140Y-108289860D01*
X170916379Y-108291322D01*
X170938298Y-108389151D01*
X170939237Y-108391861D01*
X170985746Y-108488954D01*
X170986575Y-108490423D01*
X171050999Y-108588827D01*
X171051433Y-108589449D01*
X171127100Y-108691207D01*
X171127125Y-108691241D01*
X171207183Y-108798166D01*
X171284847Y-108912092D01*
X171349323Y-109027474D01*
X170602477Y-109804103D01*
X170014726Y-108800748D01*
X170120589Y-108688411D01*
X170121132Y-108687795D01*
X170210353Y-108579924D01*
X170210851Y-108579281D01*
X170283150Y-108479496D01*
X170283521Y-108478956D01*
X170345145Y-108383957D01*
X170345324Y-108383672D01*
X170402483Y-108290215D01*
X170461382Y-108195064D01*
X170528139Y-108095089D01*
X170609088Y-107986798D01*
X170710537Y-107866787D01*
X170830046Y-107740900D01*
X171060189Y-107971043D01*
G37*
%TD.AperFunction*%
%TD*%
D23*
%TO.N,PB1*%
X202656565Y-127270434D02*
X201895128Y-128037955D01*
X201741130Y-127958756D01*
X201606676Y-127873180D01*
X201491386Y-127787678D01*
X201387261Y-127704784D01*
X201387096Y-127704655D01*
X201286377Y-127627147D01*
X201285626Y-127626611D01*
X201180521Y-127557266D01*
X201179192Y-127556501D01*
X201061738Y-127497962D01*
X201060023Y-127497258D01*
X200922258Y-127452172D01*
X200920492Y-127451731D01*
X200754455Y-127422740D01*
X200752914Y-127422567D01*
X200562700Y-127412927D01*
X200562700Y-127187062D01*
X200749768Y-127177426D01*
X200751344Y-127177246D01*
X200914592Y-127148142D01*
X200916411Y-127147677D01*
X201051578Y-127102223D01*
X201053356Y-127101470D01*
X201168230Y-127042161D01*
X201169619Y-127041328D01*
X201271988Y-126970663D01*
X201272793Y-126970059D01*
X201370443Y-126890534D01*
X201370663Y-126890350D01*
X201471244Y-126804581D01*
X201582349Y-126715208D01*
X201711768Y-126624649D01*
X201859867Y-126539571D01*
X202656565Y-127270434D01*
%TA.AperFunction,Conductor*%
D24*
G36*
X202656565Y-127270434D02*
G01*
X201895128Y-128037955D01*
X201741130Y-127958756D01*
X201606676Y-127873180D01*
X201491386Y-127787678D01*
X201387261Y-127704784D01*
X201387096Y-127704655D01*
X201286377Y-127627147D01*
X201285626Y-127626611D01*
X201180521Y-127557266D01*
X201179192Y-127556501D01*
X201061738Y-127497962D01*
X201060023Y-127497258D01*
X200922258Y-127452172D01*
X200920492Y-127451731D01*
X200754455Y-127422740D01*
X200752914Y-127422567D01*
X200562700Y-127412927D01*
X200562700Y-127187062D01*
X200749768Y-127177426D01*
X200751344Y-127177246D01*
X200914592Y-127148142D01*
X200916411Y-127147677D01*
X201051578Y-127102223D01*
X201053356Y-127101470D01*
X201168230Y-127042161D01*
X201169619Y-127041328D01*
X201271988Y-126970663D01*
X201272793Y-126970059D01*
X201370443Y-126890534D01*
X201370663Y-126890350D01*
X201471244Y-126804581D01*
X201582349Y-126715208D01*
X201711768Y-126624649D01*
X201859867Y-126539571D01*
X202656565Y-127270434D01*
G37*
%TD.AperFunction*%
%TD*%
D23*
%TO.N,PB2*%
X202516433Y-125533372D02*
X202352544Y-125581650D01*
X202197816Y-125612142D01*
X202056664Y-125629760D01*
X201925248Y-125641845D01*
X201925009Y-125641870D01*
X201799906Y-125655764D01*
X201798954Y-125655906D01*
X201676639Y-125678981D01*
X201675104Y-125679371D01*
X201551865Y-125719019D01*
X201550098Y-125719738D01*
X201422224Y-125783350D01*
X201420617Y-125784303D01*
X201284396Y-125879268D01*
X201283154Y-125880254D01*
X201143830Y-126005889D01*
X200984110Y-125846169D01*
X201109745Y-125706845D01*
X201110731Y-125705603D01*
X201205696Y-125569382D01*
X201206649Y-125567775D01*
X201270261Y-125439901D01*
X201270980Y-125438134D01*
X201310628Y-125314895D01*
X201311018Y-125313360D01*
X201334093Y-125191045D01*
X201334235Y-125190093D01*
X201348129Y-125064990D01*
X201348154Y-125064751D01*
X201360239Y-124933335D01*
X201377857Y-124792183D01*
X201408349Y-124637455D01*
X201456628Y-124473567D01*
X202537564Y-124452436D01*
X202516433Y-125533372D01*
%TA.AperFunction,Conductor*%
D24*
G36*
X202516433Y-125533372D02*
G01*
X202352544Y-125581650D01*
X202197816Y-125612142D01*
X202056664Y-125629760D01*
X201925248Y-125641845D01*
X201925009Y-125641870D01*
X201799906Y-125655764D01*
X201798954Y-125655906D01*
X201676639Y-125678981D01*
X201675104Y-125679371D01*
X201551865Y-125719019D01*
X201550098Y-125719738D01*
X201422224Y-125783350D01*
X201420617Y-125784303D01*
X201284396Y-125879268D01*
X201283154Y-125880254D01*
X201143830Y-126005889D01*
X200984110Y-125846169D01*
X201109745Y-125706845D01*
X201110731Y-125705603D01*
X201205696Y-125569382D01*
X201206649Y-125567775D01*
X201270261Y-125439901D01*
X201270980Y-125438134D01*
X201310628Y-125314895D01*
X201311018Y-125313360D01*
X201334093Y-125191045D01*
X201334235Y-125190093D01*
X201348129Y-125064990D01*
X201348154Y-125064751D01*
X201360239Y-124933335D01*
X201377857Y-124792183D01*
X201408349Y-124637455D01*
X201456628Y-124473567D01*
X202537564Y-124452436D01*
X202516433Y-125533372D01*
G37*
%TD.AperFunction*%
%TD*%
D23*
%TO.N,PB10*%
X202656678Y-122200000D02*
X201877399Y-122949395D01*
X201727366Y-122867642D01*
X201596404Y-122779799D01*
X201484125Y-122692440D01*
X201382664Y-122608067D01*
X201382478Y-122607915D01*
X201284192Y-122529278D01*
X201283418Y-122528706D01*
X201180611Y-122458532D01*
X201179249Y-122457722D01*
X201064071Y-122398615D01*
X201062314Y-122397874D01*
X200926913Y-122352433D01*
X200925103Y-122351970D01*
X200761629Y-122322799D01*
X200760053Y-122322619D01*
X200572700Y-122312939D01*
X200572700Y-122087061D01*
X200760053Y-122077380D01*
X200761629Y-122077200D01*
X200925103Y-122048029D01*
X200926913Y-122047566D01*
X201062314Y-122002125D01*
X201064071Y-122001384D01*
X201179249Y-121942277D01*
X201180611Y-121941467D01*
X201283418Y-121871293D01*
X201284192Y-121870721D01*
X201382478Y-121792084D01*
X201382664Y-121791932D01*
X201484125Y-121707559D01*
X201596404Y-121620200D01*
X201727366Y-121532357D01*
X201877399Y-121450605D01*
X202656678Y-122200000D01*
%TA.AperFunction,Conductor*%
D24*
G36*
X202656678Y-122200000D02*
G01*
X201877399Y-122949395D01*
X201727366Y-122867642D01*
X201596404Y-122779799D01*
X201484125Y-122692440D01*
X201382664Y-122608067D01*
X201382478Y-122607915D01*
X201284192Y-122529278D01*
X201283418Y-122528706D01*
X201180611Y-122458532D01*
X201179249Y-122457722D01*
X201064071Y-122398615D01*
X201062314Y-122397874D01*
X200926913Y-122352433D01*
X200925103Y-122351970D01*
X200761629Y-122322799D01*
X200760053Y-122322619D01*
X200572700Y-122312939D01*
X200572700Y-122087061D01*
X200760053Y-122077380D01*
X200761629Y-122077200D01*
X200925103Y-122048029D01*
X200926913Y-122047566D01*
X201062314Y-122002125D01*
X201064071Y-122001384D01*
X201179249Y-121942277D01*
X201180611Y-121941467D01*
X201283418Y-121871293D01*
X201284192Y-121870721D01*
X201382478Y-121792084D01*
X201382664Y-121791932D01*
X201484125Y-121707559D01*
X201596404Y-121620200D01*
X201727366Y-121532357D01*
X201877399Y-121450605D01*
X202656678Y-122200000D01*
G37*
%TD.AperFunction*%
%TD*%
D23*
%TO.N,PB11*%
X202656678Y-119660000D02*
X201877399Y-120409395D01*
X201727366Y-120327642D01*
X201596404Y-120239799D01*
X201484125Y-120152440D01*
X201382664Y-120068067D01*
X201382478Y-120067915D01*
X201284192Y-119989278D01*
X201283418Y-119988706D01*
X201180611Y-119918532D01*
X201179249Y-119917722D01*
X201064071Y-119858615D01*
X201062314Y-119857874D01*
X200926913Y-119812433D01*
X200925103Y-119811970D01*
X200761629Y-119782799D01*
X200760053Y-119782619D01*
X200572700Y-119772939D01*
X200572700Y-119547061D01*
X200760053Y-119537380D01*
X200761629Y-119537200D01*
X200925103Y-119508029D01*
X200926913Y-119507566D01*
X201062314Y-119462125D01*
X201064071Y-119461384D01*
X201179249Y-119402277D01*
X201180611Y-119401467D01*
X201283418Y-119331293D01*
X201284192Y-119330721D01*
X201382478Y-119252084D01*
X201382664Y-119251932D01*
X201484125Y-119167559D01*
X201596404Y-119080200D01*
X201727366Y-118992357D01*
X201877399Y-118910605D01*
X202656678Y-119660000D01*
%TA.AperFunction,Conductor*%
D24*
G36*
X202656678Y-119660000D02*
G01*
X201877399Y-120409395D01*
X201727366Y-120327642D01*
X201596404Y-120239799D01*
X201484125Y-120152440D01*
X201382664Y-120068067D01*
X201382478Y-120067915D01*
X201284192Y-119989278D01*
X201283418Y-119988706D01*
X201180611Y-119918532D01*
X201179249Y-119917722D01*
X201064071Y-119858615D01*
X201062314Y-119857874D01*
X200926913Y-119812433D01*
X200925103Y-119811970D01*
X200761629Y-119782799D01*
X200760053Y-119782619D01*
X200572700Y-119772939D01*
X200572700Y-119547061D01*
X200760053Y-119537380D01*
X200761629Y-119537200D01*
X200925103Y-119508029D01*
X200926913Y-119507566D01*
X201062314Y-119462125D01*
X201064071Y-119461384D01*
X201179249Y-119402277D01*
X201180611Y-119401467D01*
X201283418Y-119331293D01*
X201284192Y-119330721D01*
X201382478Y-119252084D01*
X201382664Y-119251932D01*
X201484125Y-119167559D01*
X201596404Y-119080200D01*
X201727366Y-118992357D01*
X201877399Y-118910605D01*
X202656678Y-119660000D01*
G37*
%TD.AperFunction*%
%TD*%
D23*
%TO.N,PB14*%
X202656678Y-117120000D02*
X201877399Y-117869395D01*
X201727366Y-117787642D01*
X201596404Y-117699799D01*
X201484125Y-117612440D01*
X201382664Y-117528067D01*
X201382478Y-117527915D01*
X201284192Y-117449278D01*
X201283418Y-117448706D01*
X201180611Y-117378532D01*
X201179249Y-117377722D01*
X201064071Y-117318615D01*
X201062314Y-117317874D01*
X200926913Y-117272433D01*
X200925103Y-117271970D01*
X200761629Y-117242799D01*
X200760053Y-117242619D01*
X200572700Y-117232939D01*
X200572700Y-117007061D01*
X200760053Y-116997380D01*
X200761629Y-116997200D01*
X200925103Y-116968029D01*
X200926913Y-116967566D01*
X201062314Y-116922125D01*
X201064071Y-116921384D01*
X201179249Y-116862277D01*
X201180611Y-116861467D01*
X201283418Y-116791293D01*
X201284192Y-116790721D01*
X201382478Y-116712084D01*
X201382664Y-116711932D01*
X201484125Y-116627559D01*
X201596404Y-116540200D01*
X201727366Y-116452357D01*
X201877399Y-116370605D01*
X202656678Y-117120000D01*
%TA.AperFunction,Conductor*%
D24*
G36*
X202656678Y-117120000D02*
G01*
X201877399Y-117869395D01*
X201727366Y-117787642D01*
X201596404Y-117699799D01*
X201484125Y-117612440D01*
X201382664Y-117528067D01*
X201382478Y-117527915D01*
X201284192Y-117449278D01*
X201283418Y-117448706D01*
X201180611Y-117378532D01*
X201179249Y-117377722D01*
X201064071Y-117318615D01*
X201062314Y-117317874D01*
X200926913Y-117272433D01*
X200925103Y-117271970D01*
X200761629Y-117242799D01*
X200760053Y-117242619D01*
X200572700Y-117232939D01*
X200572700Y-117007061D01*
X200760053Y-116997380D01*
X200761629Y-116997200D01*
X200925103Y-116968029D01*
X200926913Y-116967566D01*
X201062314Y-116922125D01*
X201064071Y-116921384D01*
X201179249Y-116862277D01*
X201180611Y-116861467D01*
X201283418Y-116791293D01*
X201284192Y-116790721D01*
X201382478Y-116712084D01*
X201382664Y-116711932D01*
X201484125Y-116627559D01*
X201596404Y-116540200D01*
X201727366Y-116452357D01*
X201877399Y-116370605D01*
X202656678Y-117120000D01*
G37*
%TD.AperFunction*%
%TD*%
D23*
%TO.N,PB15*%
X202656678Y-114580000D02*
X201877399Y-115329395D01*
X201727366Y-115247642D01*
X201596404Y-115159799D01*
X201484125Y-115072440D01*
X201382664Y-114988067D01*
X201382478Y-114987915D01*
X201284192Y-114909278D01*
X201283418Y-114908706D01*
X201180611Y-114838532D01*
X201179249Y-114837722D01*
X201064071Y-114778615D01*
X201062314Y-114777874D01*
X200926913Y-114732433D01*
X200925103Y-114731970D01*
X200761629Y-114702799D01*
X200760053Y-114702619D01*
X200572700Y-114692939D01*
X200572700Y-114467061D01*
X200760053Y-114457380D01*
X200761629Y-114457200D01*
X200925103Y-114428029D01*
X200926913Y-114427566D01*
X201062314Y-114382125D01*
X201064071Y-114381384D01*
X201179249Y-114322277D01*
X201180611Y-114321467D01*
X201283418Y-114251293D01*
X201284192Y-114250721D01*
X201382478Y-114172084D01*
X201382664Y-114171932D01*
X201484125Y-114087559D01*
X201596404Y-114000200D01*
X201727366Y-113912357D01*
X201877399Y-113830605D01*
X202656678Y-114580000D01*
%TA.AperFunction,Conductor*%
D24*
G36*
X202656678Y-114580000D02*
G01*
X201877399Y-115329395D01*
X201727366Y-115247642D01*
X201596404Y-115159799D01*
X201484125Y-115072440D01*
X201382664Y-114988067D01*
X201382478Y-114987915D01*
X201284192Y-114909278D01*
X201283418Y-114908706D01*
X201180611Y-114838532D01*
X201179249Y-114837722D01*
X201064071Y-114778615D01*
X201062314Y-114777874D01*
X200926913Y-114732433D01*
X200925103Y-114731970D01*
X200761629Y-114702799D01*
X200760053Y-114702619D01*
X200572700Y-114692939D01*
X200572700Y-114467061D01*
X200760053Y-114457380D01*
X200761629Y-114457200D01*
X200925103Y-114428029D01*
X200926913Y-114427566D01*
X201062314Y-114382125D01*
X201064071Y-114381384D01*
X201179249Y-114322277D01*
X201180611Y-114321467D01*
X201283418Y-114251293D01*
X201284192Y-114250721D01*
X201382478Y-114172084D01*
X201382664Y-114171932D01*
X201484125Y-114087559D01*
X201596404Y-114000200D01*
X201727366Y-113912357D01*
X201877399Y-113830605D01*
X202656678Y-114580000D01*
G37*
%TD.AperFunction*%
%TD*%
D23*
%TO.N,SWDIO*%
X164272633Y-113912357D02*
X164403595Y-114000200D01*
X164515874Y-114087559D01*
X164617335Y-114171932D01*
X164617521Y-114172084D01*
X164715807Y-114250721D01*
X164716581Y-114251293D01*
X164819388Y-114321467D01*
X164820750Y-114322277D01*
X164935928Y-114381384D01*
X164937685Y-114382125D01*
X165073086Y-114427566D01*
X165074896Y-114428029D01*
X165238370Y-114457200D01*
X165239946Y-114457380D01*
X165427300Y-114467061D01*
X165427300Y-114692939D01*
X165239946Y-114702619D01*
X165238370Y-114702799D01*
X165074896Y-114731970D01*
X165073086Y-114732433D01*
X164937685Y-114777874D01*
X164935928Y-114778615D01*
X164820750Y-114837722D01*
X164819388Y-114838532D01*
X164716581Y-114908706D01*
X164715807Y-114909278D01*
X164617521Y-114987915D01*
X164617335Y-114988067D01*
X164515874Y-115072440D01*
X164403595Y-115159799D01*
X164272633Y-115247642D01*
X164122601Y-115329395D01*
X163343322Y-114580000D01*
X164122601Y-113830605D01*
X164272633Y-113912357D01*
%TA.AperFunction,Conductor*%
D24*
G36*
X164272633Y-113912357D02*
G01*
X164403595Y-114000200D01*
X164515874Y-114087559D01*
X164617335Y-114171932D01*
X164617521Y-114172084D01*
X164715807Y-114250721D01*
X164716581Y-114251293D01*
X164819388Y-114321467D01*
X164820750Y-114322277D01*
X164935928Y-114381384D01*
X164937685Y-114382125D01*
X165073086Y-114427566D01*
X165074896Y-114428029D01*
X165238370Y-114457200D01*
X165239946Y-114457380D01*
X165427300Y-114467061D01*
X165427300Y-114692939D01*
X165239946Y-114702619D01*
X165238370Y-114702799D01*
X165074896Y-114731970D01*
X165073086Y-114732433D01*
X164937685Y-114777874D01*
X164935928Y-114778615D01*
X164820750Y-114837722D01*
X164819388Y-114838532D01*
X164716581Y-114908706D01*
X164715807Y-114909278D01*
X164617521Y-114987915D01*
X164617335Y-114988067D01*
X164515874Y-115072440D01*
X164403595Y-115159799D01*
X164272633Y-115247642D01*
X164122601Y-115329395D01*
X163343322Y-114580000D01*
X164122601Y-113830605D01*
X164272633Y-113912357D01*
G37*
%TD.AperFunction*%
%TD*%
D23*
%TO.N,SWCLK*%
X164272633Y-116452357D02*
X164403595Y-116540200D01*
X164515874Y-116627559D01*
X164617335Y-116711932D01*
X164617521Y-116712084D01*
X164715807Y-116790721D01*
X164716581Y-116791293D01*
X164819388Y-116861467D01*
X164820750Y-116862277D01*
X164935928Y-116921384D01*
X164937685Y-116922125D01*
X165073086Y-116967566D01*
X165074896Y-116968029D01*
X165238370Y-116997200D01*
X165239946Y-116997380D01*
X165427300Y-117007061D01*
X165427300Y-117232939D01*
X165239946Y-117242619D01*
X165238370Y-117242799D01*
X165074896Y-117271970D01*
X165073086Y-117272433D01*
X164937685Y-117317874D01*
X164935928Y-117318615D01*
X164820750Y-117377722D01*
X164819388Y-117378532D01*
X164716581Y-117448706D01*
X164715807Y-117449278D01*
X164617521Y-117527915D01*
X164617335Y-117528067D01*
X164515874Y-117612440D01*
X164403595Y-117699799D01*
X164272633Y-117787642D01*
X164122601Y-117869395D01*
X163343322Y-117120000D01*
X164122601Y-116370605D01*
X164272633Y-116452357D01*
%TA.AperFunction,Conductor*%
D24*
G36*
X164272633Y-116452357D02*
G01*
X164403595Y-116540200D01*
X164515874Y-116627559D01*
X164617335Y-116711932D01*
X164617521Y-116712084D01*
X164715807Y-116790721D01*
X164716581Y-116791293D01*
X164819388Y-116861467D01*
X164820750Y-116862277D01*
X164935928Y-116921384D01*
X164937685Y-116922125D01*
X165073086Y-116967566D01*
X165074896Y-116968029D01*
X165238370Y-116997200D01*
X165239946Y-116997380D01*
X165427300Y-117007061D01*
X165427300Y-117232939D01*
X165239946Y-117242619D01*
X165238370Y-117242799D01*
X165074896Y-117271970D01*
X165073086Y-117272433D01*
X164937685Y-117317874D01*
X164935928Y-117318615D01*
X164820750Y-117377722D01*
X164819388Y-117378532D01*
X164716581Y-117448706D01*
X164715807Y-117449278D01*
X164617521Y-117527915D01*
X164617335Y-117528067D01*
X164515874Y-117612440D01*
X164403595Y-117699799D01*
X164272633Y-117787642D01*
X164122601Y-117869395D01*
X163343322Y-117120000D01*
X164122601Y-116370605D01*
X164272633Y-116452357D01*
G37*
%TD.AperFunction*%
%TD*%
D23*
%TO.N,PA15*%
X164272633Y-118992357D02*
X164403595Y-119080200D01*
X164515874Y-119167559D01*
X164617335Y-119251932D01*
X164617521Y-119252084D01*
X164715807Y-119330721D01*
X164716581Y-119331293D01*
X164819388Y-119401467D01*
X164820750Y-119402277D01*
X164935928Y-119461384D01*
X164937685Y-119462125D01*
X165073086Y-119507566D01*
X165074896Y-119508029D01*
X165238370Y-119537200D01*
X165239946Y-119537380D01*
X165427300Y-119547061D01*
X165427300Y-119772939D01*
X165239946Y-119782619D01*
X165238370Y-119782799D01*
X165074896Y-119811970D01*
X165073086Y-119812433D01*
X164937685Y-119857874D01*
X164935928Y-119858615D01*
X164820750Y-119917722D01*
X164819388Y-119918532D01*
X164716581Y-119988706D01*
X164715807Y-119989278D01*
X164617521Y-120067915D01*
X164617335Y-120068067D01*
X164515874Y-120152440D01*
X164403595Y-120239799D01*
X164272633Y-120327642D01*
X164122601Y-120409395D01*
X163343322Y-119660000D01*
X164122601Y-118910605D01*
X164272633Y-118992357D01*
%TA.AperFunction,Conductor*%
D24*
G36*
X164272633Y-118992357D02*
G01*
X164403595Y-119080200D01*
X164515874Y-119167559D01*
X164617335Y-119251932D01*
X164617521Y-119252084D01*
X164715807Y-119330721D01*
X164716581Y-119331293D01*
X164819388Y-119401467D01*
X164820750Y-119402277D01*
X164935928Y-119461384D01*
X164937685Y-119462125D01*
X165073086Y-119507566D01*
X165074896Y-119508029D01*
X165238370Y-119537200D01*
X165239946Y-119537380D01*
X165427300Y-119547061D01*
X165427300Y-119772939D01*
X165239946Y-119782619D01*
X165238370Y-119782799D01*
X165074896Y-119811970D01*
X165073086Y-119812433D01*
X164937685Y-119857874D01*
X164935928Y-119858615D01*
X164820750Y-119917722D01*
X164819388Y-119918532D01*
X164716581Y-119988706D01*
X164715807Y-119989278D01*
X164617521Y-120067915D01*
X164617335Y-120068067D01*
X164515874Y-120152440D01*
X164403595Y-120239799D01*
X164272633Y-120327642D01*
X164122601Y-120409395D01*
X163343322Y-119660000D01*
X164122601Y-118910605D01*
X164272633Y-118992357D01*
G37*
%TD.AperFunction*%
%TD*%
D23*
%TO.N,SWO*%
X164272633Y-121532357D02*
X164403595Y-121620200D01*
X164515874Y-121707559D01*
X164617335Y-121791932D01*
X164617521Y-121792084D01*
X164715807Y-121870721D01*
X164716581Y-121871293D01*
X164819388Y-121941467D01*
X164820750Y-121942277D01*
X164935928Y-122001384D01*
X164937685Y-122002125D01*
X165073086Y-122047566D01*
X165074896Y-122048029D01*
X165238370Y-122077200D01*
X165239946Y-122077380D01*
X165427300Y-122087061D01*
X165427300Y-122312939D01*
X165239946Y-122322619D01*
X165238370Y-122322799D01*
X165074896Y-122351970D01*
X165073086Y-122352433D01*
X164937685Y-122397874D01*
X164935928Y-122398615D01*
X164820750Y-122457722D01*
X164819388Y-122458532D01*
X164716581Y-122528706D01*
X164715807Y-122529278D01*
X164617521Y-122607915D01*
X164617335Y-122608067D01*
X164515874Y-122692440D01*
X164403595Y-122779799D01*
X164272633Y-122867642D01*
X164122601Y-122949395D01*
X163343322Y-122200000D01*
X164122601Y-121450605D01*
X164272633Y-121532357D01*
%TA.AperFunction,Conductor*%
D24*
G36*
X164272633Y-121532357D02*
G01*
X164403595Y-121620200D01*
X164515874Y-121707559D01*
X164617335Y-121791932D01*
X164617521Y-121792084D01*
X164715807Y-121870721D01*
X164716581Y-121871293D01*
X164819388Y-121941467D01*
X164820750Y-121942277D01*
X164935928Y-122001384D01*
X164937685Y-122002125D01*
X165073086Y-122047566D01*
X165074896Y-122048029D01*
X165238370Y-122077200D01*
X165239946Y-122077380D01*
X165427300Y-122087061D01*
X165427300Y-122312939D01*
X165239946Y-122322619D01*
X165238370Y-122322799D01*
X165074896Y-122351970D01*
X165073086Y-122352433D01*
X164937685Y-122397874D01*
X164935928Y-122398615D01*
X164820750Y-122457722D01*
X164819388Y-122458532D01*
X164716581Y-122528706D01*
X164715807Y-122529278D01*
X164617521Y-122607915D01*
X164617335Y-122608067D01*
X164515874Y-122692440D01*
X164403595Y-122779799D01*
X164272633Y-122867642D01*
X164122601Y-122949395D01*
X163343322Y-122200000D01*
X164122601Y-121450605D01*
X164272633Y-121532357D01*
G37*
%TD.AperFunction*%
%TD*%
D23*
%TO.N,PB4*%
X164272633Y-124072357D02*
X164403595Y-124160200D01*
X164515874Y-124247559D01*
X164617335Y-124331932D01*
X164617521Y-124332084D01*
X164715807Y-124410721D01*
X164716581Y-124411293D01*
X164819388Y-124481467D01*
X164820750Y-124482277D01*
X164935928Y-124541384D01*
X164937685Y-124542125D01*
X165073086Y-124587566D01*
X165074896Y-124588029D01*
X165238370Y-124617200D01*
X165239946Y-124617380D01*
X165427300Y-124627061D01*
X165427300Y-124852939D01*
X165239946Y-124862619D01*
X165238370Y-124862799D01*
X165074896Y-124891970D01*
X165073086Y-124892433D01*
X164937685Y-124937874D01*
X164935928Y-124938615D01*
X164820750Y-124997722D01*
X164819388Y-124998532D01*
X164716581Y-125068706D01*
X164715807Y-125069278D01*
X164617521Y-125147915D01*
X164617335Y-125148067D01*
X164515874Y-125232440D01*
X164403595Y-125319799D01*
X164272633Y-125407642D01*
X164122601Y-125489395D01*
X163343322Y-124740000D01*
X164122601Y-123990605D01*
X164272633Y-124072357D01*
%TA.AperFunction,Conductor*%
D24*
G36*
X164272633Y-124072357D02*
G01*
X164403595Y-124160200D01*
X164515874Y-124247559D01*
X164617335Y-124331932D01*
X164617521Y-124332084D01*
X164715807Y-124410721D01*
X164716581Y-124411293D01*
X164819388Y-124481467D01*
X164820750Y-124482277D01*
X164935928Y-124541384D01*
X164937685Y-124542125D01*
X165073086Y-124587566D01*
X165074896Y-124588029D01*
X165238370Y-124617200D01*
X165239946Y-124617380D01*
X165427300Y-124627061D01*
X165427300Y-124852939D01*
X165239946Y-124862619D01*
X165238370Y-124862799D01*
X165074896Y-124891970D01*
X165073086Y-124892433D01*
X164937685Y-124937874D01*
X164935928Y-124938615D01*
X164820750Y-124997722D01*
X164819388Y-124998532D01*
X164716581Y-125068706D01*
X164715807Y-125069278D01*
X164617521Y-125147915D01*
X164617335Y-125148067D01*
X164515874Y-125232440D01*
X164403595Y-125319799D01*
X164272633Y-125407642D01*
X164122601Y-125489395D01*
X163343322Y-124740000D01*
X164122601Y-123990605D01*
X164272633Y-124072357D01*
G37*
%TD.AperFunction*%
%TD*%
D23*
%TO.N,PB5*%
X163940783Y-126449534D02*
X164102145Y-126468040D01*
X164242280Y-126495308D01*
X164369437Y-126528481D01*
X164491680Y-126564677D01*
X164491754Y-126564699D01*
X164616991Y-126600959D01*
X164617502Y-126601095D01*
X164753554Y-126634414D01*
X164754360Y-126634584D01*
X164909264Y-126662025D01*
X164910185Y-126662154D01*
X165091981Y-126680774D01*
X165092873Y-126680834D01*
X165297300Y-126687305D01*
X165297300Y-126913108D01*
X165154850Y-126922490D01*
X165152782Y-126922799D01*
X165027378Y-126952243D01*
X165024923Y-126953093D01*
X164923576Y-127000252D01*
X164921182Y-127001707D01*
X164839039Y-127065012D01*
X164837212Y-127066733D01*
X164769418Y-127144620D01*
X164768307Y-127146102D01*
X164710010Y-127237001D01*
X164709452Y-127237960D01*
X164655797Y-127340306D01*
X164655596Y-127340707D01*
X164601735Y-127452922D01*
X164542961Y-127573136D01*
X164478571Y-127692176D01*
X163414502Y-127508013D01*
X163759130Y-126443035D01*
X163940783Y-126449534D01*
%TA.AperFunction,Conductor*%
D24*
G36*
X163940783Y-126449534D02*
G01*
X164102145Y-126468040D01*
X164242280Y-126495308D01*
X164369437Y-126528481D01*
X164491680Y-126564677D01*
X164491754Y-126564699D01*
X164616991Y-126600959D01*
X164617502Y-126601095D01*
X164753554Y-126634414D01*
X164754360Y-126634584D01*
X164909264Y-126662025D01*
X164910185Y-126662154D01*
X165091981Y-126680774D01*
X165092873Y-126680834D01*
X165297300Y-126687305D01*
X165297300Y-126913108D01*
X165154850Y-126922490D01*
X165152782Y-126922799D01*
X165027378Y-126952243D01*
X165024923Y-126953093D01*
X164923576Y-127000252D01*
X164921182Y-127001707D01*
X164839039Y-127065012D01*
X164837212Y-127066733D01*
X164769418Y-127144620D01*
X164768307Y-127146102D01*
X164710010Y-127237001D01*
X164709452Y-127237960D01*
X164655797Y-127340306D01*
X164655596Y-127340707D01*
X164601735Y-127452922D01*
X164542961Y-127573136D01*
X164478571Y-127692176D01*
X163414502Y-127508013D01*
X163759130Y-126443035D01*
X163940783Y-126449534D01*
G37*
%TD.AperFunction*%
%TD*%
D23*
%TO.N,PB6*%
X164272633Y-129152357D02*
X164403595Y-129240200D01*
X164515874Y-129327559D01*
X164617335Y-129411932D01*
X164617521Y-129412084D01*
X164715807Y-129490721D01*
X164716581Y-129491293D01*
X164819388Y-129561467D01*
X164820750Y-129562277D01*
X164935928Y-129621384D01*
X164937685Y-129622125D01*
X165073086Y-129667566D01*
X165074896Y-129668029D01*
X165238370Y-129697200D01*
X165239946Y-129697380D01*
X165427300Y-129707061D01*
X165427300Y-129932939D01*
X165239946Y-129942619D01*
X165238370Y-129942799D01*
X165074896Y-129971970D01*
X165073086Y-129972433D01*
X164937685Y-130017874D01*
X164935928Y-130018615D01*
X164820750Y-130077722D01*
X164819388Y-130078532D01*
X164716581Y-130148706D01*
X164715807Y-130149278D01*
X164617521Y-130227915D01*
X164617335Y-130228067D01*
X164515874Y-130312440D01*
X164403595Y-130399799D01*
X164272633Y-130487642D01*
X164122601Y-130569395D01*
X163343322Y-129820000D01*
X164122601Y-129070605D01*
X164272633Y-129152357D01*
%TA.AperFunction,Conductor*%
D24*
G36*
X164272633Y-129152357D02*
G01*
X164403595Y-129240200D01*
X164515874Y-129327559D01*
X164617335Y-129411932D01*
X164617521Y-129412084D01*
X164715807Y-129490721D01*
X164716581Y-129491293D01*
X164819388Y-129561467D01*
X164820750Y-129562277D01*
X164935928Y-129621384D01*
X164937685Y-129622125D01*
X165073086Y-129667566D01*
X165074896Y-129668029D01*
X165238370Y-129697200D01*
X165239946Y-129697380D01*
X165427300Y-129707061D01*
X165427300Y-129932939D01*
X165239946Y-129942619D01*
X165238370Y-129942799D01*
X165074896Y-129971970D01*
X165073086Y-129972433D01*
X164937685Y-130017874D01*
X164935928Y-130018615D01*
X164820750Y-130077722D01*
X164819388Y-130078532D01*
X164716581Y-130148706D01*
X164715807Y-130149278D01*
X164617521Y-130227915D01*
X164617335Y-130228067D01*
X164515874Y-130312440D01*
X164403595Y-130399799D01*
X164272633Y-130487642D01*
X164122601Y-130569395D01*
X163343322Y-129820000D01*
X164122601Y-129070605D01*
X164272633Y-129152357D01*
G37*
%TD.AperFunction*%
%TD*%
D23*
%TO.N,PB7*%
X164272633Y-131692357D02*
X164403595Y-131780200D01*
X164515874Y-131867559D01*
X164617335Y-131951932D01*
X164617521Y-131952084D01*
X164715807Y-132030721D01*
X164716581Y-132031293D01*
X164819388Y-132101467D01*
X164820750Y-132102277D01*
X164935928Y-132161384D01*
X164937685Y-132162125D01*
X165073086Y-132207566D01*
X165074896Y-132208029D01*
X165238370Y-132237200D01*
X165239946Y-132237380D01*
X165427300Y-132247061D01*
X165427300Y-132472939D01*
X165239946Y-132482619D01*
X165238370Y-132482799D01*
X165074896Y-132511970D01*
X165073086Y-132512433D01*
X164937685Y-132557874D01*
X164935928Y-132558615D01*
X164820750Y-132617722D01*
X164819388Y-132618532D01*
X164716581Y-132688706D01*
X164715807Y-132689278D01*
X164617521Y-132767915D01*
X164617335Y-132768067D01*
X164515874Y-132852440D01*
X164403595Y-132939799D01*
X164272633Y-133027642D01*
X164122601Y-133109395D01*
X163343322Y-132360000D01*
X164122601Y-131610605D01*
X164272633Y-131692357D01*
%TA.AperFunction,Conductor*%
D24*
G36*
X164272633Y-131692357D02*
G01*
X164403595Y-131780200D01*
X164515874Y-131867559D01*
X164617335Y-131951932D01*
X164617521Y-131952084D01*
X164715807Y-132030721D01*
X164716581Y-132031293D01*
X164819388Y-132101467D01*
X164820750Y-132102277D01*
X164935928Y-132161384D01*
X164937685Y-132162125D01*
X165073086Y-132207566D01*
X165074896Y-132208029D01*
X165238370Y-132237200D01*
X165239946Y-132237380D01*
X165427300Y-132247061D01*
X165427300Y-132472939D01*
X165239946Y-132482619D01*
X165238370Y-132482799D01*
X165074896Y-132511970D01*
X165073086Y-132512433D01*
X164937685Y-132557874D01*
X164935928Y-132558615D01*
X164820750Y-132617722D01*
X164819388Y-132618532D01*
X164716581Y-132688706D01*
X164715807Y-132689278D01*
X164617521Y-132767915D01*
X164617335Y-132768067D01*
X164515874Y-132852440D01*
X164403595Y-132939799D01*
X164272633Y-133027642D01*
X164122601Y-133109395D01*
X163343322Y-132360000D01*
X164122601Y-131610605D01*
X164272633Y-131692357D01*
G37*
%TD.AperFunction*%
%TD*%
D23*
%TO.N,PB8*%
X164272633Y-134232357D02*
X164403595Y-134320200D01*
X164515874Y-134407559D01*
X164617335Y-134491932D01*
X164617521Y-134492084D01*
X164715807Y-134570721D01*
X164716581Y-134571293D01*
X164819388Y-134641467D01*
X164820750Y-134642277D01*
X164935928Y-134701384D01*
X164937685Y-134702125D01*
X165073086Y-134747566D01*
X165074896Y-134748029D01*
X165238370Y-134777200D01*
X165239946Y-134777380D01*
X165427300Y-134787061D01*
X165427300Y-135012939D01*
X165239946Y-135022619D01*
X165238370Y-135022799D01*
X165074896Y-135051970D01*
X165073086Y-135052433D01*
X164937685Y-135097874D01*
X164935928Y-135098615D01*
X164820750Y-135157722D01*
X164819388Y-135158532D01*
X164716581Y-135228706D01*
X164715807Y-135229278D01*
X164617521Y-135307915D01*
X164617335Y-135308067D01*
X164515874Y-135392440D01*
X164403595Y-135479799D01*
X164272633Y-135567642D01*
X164122601Y-135649395D01*
X163343322Y-134900000D01*
X164122601Y-134150605D01*
X164272633Y-134232357D01*
%TA.AperFunction,Conductor*%
D24*
G36*
X164272633Y-134232357D02*
G01*
X164403595Y-134320200D01*
X164515874Y-134407559D01*
X164617335Y-134491932D01*
X164617521Y-134492084D01*
X164715807Y-134570721D01*
X164716581Y-134571293D01*
X164819388Y-134641467D01*
X164820750Y-134642277D01*
X164935928Y-134701384D01*
X164937685Y-134702125D01*
X165073086Y-134747566D01*
X165074896Y-134748029D01*
X165238370Y-134777200D01*
X165239946Y-134777380D01*
X165427300Y-134787061D01*
X165427300Y-135012939D01*
X165239946Y-135022619D01*
X165238370Y-135022799D01*
X165074896Y-135051970D01*
X165073086Y-135052433D01*
X164937685Y-135097874D01*
X164935928Y-135098615D01*
X164820750Y-135157722D01*
X164819388Y-135158532D01*
X164716581Y-135228706D01*
X164715807Y-135229278D01*
X164617521Y-135307915D01*
X164617335Y-135308067D01*
X164515874Y-135392440D01*
X164403595Y-135479799D01*
X164272633Y-135567642D01*
X164122601Y-135649395D01*
X163343322Y-134900000D01*
X164122601Y-134150605D01*
X164272633Y-134232357D01*
G37*
%TD.AperFunction*%
%TD*%
D23*
%TO.N,PB9*%
X164249095Y-136764179D02*
X164371621Y-136855573D01*
X164485201Y-136952580D01*
X164592240Y-137046821D01*
X164592659Y-137047174D01*
X164695566Y-137130171D01*
X164696803Y-137131052D01*
X164798142Y-137194460D01*
X164800714Y-137195692D01*
X164903127Y-137231232D01*
X164905548Y-137231814D01*
X164907364Y-137231934D01*
X165013491Y-137231324D01*
X165015967Y-137231066D01*
X165018139Y-137230414D01*
X165130623Y-137185376D01*
X165132832Y-137184229D01*
X165133863Y-137183481D01*
X165246463Y-137092881D01*
X165405918Y-137252336D01*
X165282541Y-137368329D01*
X165163978Y-137465383D01*
X165056299Y-137541380D01*
X164956289Y-137602884D01*
X164860758Y-137656411D01*
X164766585Y-137708449D01*
X164766233Y-137708651D01*
X164670638Y-137765527D01*
X164669980Y-137765946D01*
X164569885Y-137834155D01*
X164569109Y-137834728D01*
X164461438Y-137920763D01*
X164460704Y-137921397D01*
X164349296Y-138025300D01*
X163345897Y-137437523D01*
X164122415Y-136690784D01*
X164249095Y-136764179D01*
%TA.AperFunction,Conductor*%
D24*
G36*
X164249095Y-136764179D02*
G01*
X164371621Y-136855573D01*
X164485201Y-136952580D01*
X164592240Y-137046821D01*
X164592659Y-137047174D01*
X164695566Y-137130171D01*
X164696803Y-137131052D01*
X164798142Y-137194460D01*
X164800714Y-137195692D01*
X164903127Y-137231232D01*
X164905548Y-137231814D01*
X164907364Y-137231934D01*
X165013491Y-137231324D01*
X165015967Y-137231066D01*
X165018139Y-137230414D01*
X165130623Y-137185376D01*
X165132832Y-137184229D01*
X165133863Y-137183481D01*
X165246463Y-137092881D01*
X165405918Y-137252336D01*
X165282541Y-137368329D01*
X165163978Y-137465383D01*
X165056299Y-137541380D01*
X164956289Y-137602884D01*
X164860758Y-137656411D01*
X164766585Y-137708449D01*
X164766233Y-137708651D01*
X164670638Y-137765527D01*
X164669980Y-137765946D01*
X164569885Y-137834155D01*
X164569109Y-137834728D01*
X164461438Y-137920763D01*
X164460704Y-137921397D01*
X164349296Y-138025300D01*
X163345897Y-137437523D01*
X164122415Y-136690784D01*
X164249095Y-136764179D01*
G37*
%TD.AperFunction*%
%TD*%
D23*
%TO.N,PC13*%
X164272633Y-139312357D02*
X164403595Y-139400200D01*
X164515874Y-139487559D01*
X164617335Y-139571932D01*
X164617521Y-139572084D01*
X164715807Y-139650721D01*
X164716581Y-139651293D01*
X164819388Y-139721467D01*
X164820750Y-139722277D01*
X164935928Y-139781384D01*
X164937685Y-139782125D01*
X165073086Y-139827566D01*
X165074896Y-139828029D01*
X165238370Y-139857200D01*
X165239946Y-139857380D01*
X165427300Y-139867061D01*
X165427300Y-140092939D01*
X165239946Y-140102619D01*
X165238370Y-140102799D01*
X165074896Y-140131970D01*
X165073086Y-140132433D01*
X164937685Y-140177874D01*
X164935928Y-140178615D01*
X164820750Y-140237722D01*
X164819388Y-140238532D01*
X164716581Y-140308706D01*
X164715807Y-140309278D01*
X164617521Y-140387915D01*
X164617335Y-140388067D01*
X164515874Y-140472440D01*
X164403595Y-140559799D01*
X164272633Y-140647642D01*
X164122601Y-140729395D01*
X163343322Y-139980000D01*
X164122601Y-139230605D01*
X164272633Y-139312357D01*
%TA.AperFunction,Conductor*%
D24*
G36*
X164272633Y-139312357D02*
G01*
X164403595Y-139400200D01*
X164515874Y-139487559D01*
X164617335Y-139571932D01*
X164617521Y-139572084D01*
X164715807Y-139650721D01*
X164716581Y-139651293D01*
X164819388Y-139721467D01*
X164820750Y-139722277D01*
X164935928Y-139781384D01*
X164937685Y-139782125D01*
X165073086Y-139827566D01*
X165074896Y-139828029D01*
X165238370Y-139857200D01*
X165239946Y-139857380D01*
X165427300Y-139867061D01*
X165427300Y-140092939D01*
X165239946Y-140102619D01*
X165238370Y-140102799D01*
X165074896Y-140131970D01*
X165073086Y-140132433D01*
X164937685Y-140177874D01*
X164935928Y-140178615D01*
X164820750Y-140237722D01*
X164819388Y-140238532D01*
X164716581Y-140308706D01*
X164715807Y-140309278D01*
X164617521Y-140387915D01*
X164617335Y-140388067D01*
X164515874Y-140472440D01*
X164403595Y-140559799D01*
X164272633Y-140647642D01*
X164122601Y-140729395D01*
X163343322Y-139980000D01*
X164122601Y-139230605D01*
X164272633Y-139312357D01*
G37*
%TD.AperFunction*%
%TD*%
D23*
%TO.N,PC14*%
X164272633Y-141852357D02*
X164403595Y-141940200D01*
X164515874Y-142027559D01*
X164617335Y-142111932D01*
X164617521Y-142112084D01*
X164715807Y-142190721D01*
X164716581Y-142191293D01*
X164819388Y-142261467D01*
X164820750Y-142262277D01*
X164935928Y-142321384D01*
X164937685Y-142322125D01*
X165073086Y-142367566D01*
X165074896Y-142368029D01*
X165238370Y-142397200D01*
X165239946Y-142397380D01*
X165427300Y-142407061D01*
X165427300Y-142632939D01*
X165239946Y-142642619D01*
X165238370Y-142642799D01*
X165074896Y-142671970D01*
X165073086Y-142672433D01*
X164937685Y-142717874D01*
X164935928Y-142718615D01*
X164820750Y-142777722D01*
X164819388Y-142778532D01*
X164716581Y-142848706D01*
X164715807Y-142849278D01*
X164617521Y-142927915D01*
X164617335Y-142928067D01*
X164515874Y-143012440D01*
X164403595Y-143099799D01*
X164272633Y-143187642D01*
X164122601Y-143269395D01*
X163343322Y-142520000D01*
X164122601Y-141770605D01*
X164272633Y-141852357D01*
%TA.AperFunction,Conductor*%
D24*
G36*
X164272633Y-141852357D02*
G01*
X164403595Y-141940200D01*
X164515874Y-142027559D01*
X164617335Y-142111932D01*
X164617521Y-142112084D01*
X164715807Y-142190721D01*
X164716581Y-142191293D01*
X164819388Y-142261467D01*
X164820750Y-142262277D01*
X164935928Y-142321384D01*
X164937685Y-142322125D01*
X165073086Y-142367566D01*
X165074896Y-142368029D01*
X165238370Y-142397200D01*
X165239946Y-142397380D01*
X165427300Y-142407061D01*
X165427300Y-142632939D01*
X165239946Y-142642619D01*
X165238370Y-142642799D01*
X165074896Y-142671970D01*
X165073086Y-142672433D01*
X164937685Y-142717874D01*
X164935928Y-142718615D01*
X164820750Y-142777722D01*
X164819388Y-142778532D01*
X164716581Y-142848706D01*
X164715807Y-142849278D01*
X164617521Y-142927915D01*
X164617335Y-142928067D01*
X164515874Y-143012440D01*
X164403595Y-143099799D01*
X164272633Y-143187642D01*
X164122601Y-143269395D01*
X163343322Y-142520000D01*
X164122601Y-141770605D01*
X164272633Y-141852357D01*
G37*
%TD.AperFunction*%
%TD*%
D23*
%TO.N,PC15*%
X164272633Y-144392357D02*
X164403595Y-144480200D01*
X164515874Y-144567559D01*
X164617335Y-144651932D01*
X164617521Y-144652084D01*
X164715807Y-144730721D01*
X164716581Y-144731293D01*
X164819388Y-144801467D01*
X164820750Y-144802277D01*
X164935928Y-144861384D01*
X164937685Y-144862125D01*
X165073086Y-144907566D01*
X165074896Y-144908029D01*
X165238370Y-144937200D01*
X165239946Y-144937380D01*
X165427300Y-144947061D01*
X165427300Y-145172939D01*
X165239946Y-145182619D01*
X165238370Y-145182799D01*
X165074896Y-145211970D01*
X165073086Y-145212433D01*
X164937685Y-145257874D01*
X164935928Y-145258615D01*
X164820750Y-145317722D01*
X164819388Y-145318532D01*
X164716581Y-145388706D01*
X164715807Y-145389278D01*
X164617521Y-145467915D01*
X164617335Y-145468067D01*
X164515874Y-145552440D01*
X164403595Y-145639799D01*
X164272633Y-145727642D01*
X164122601Y-145809395D01*
X163343322Y-145060000D01*
X164122601Y-144310605D01*
X164272633Y-144392357D01*
%TA.AperFunction,Conductor*%
D24*
G36*
X164272633Y-144392357D02*
G01*
X164403595Y-144480200D01*
X164515874Y-144567559D01*
X164617335Y-144651932D01*
X164617521Y-144652084D01*
X164715807Y-144730721D01*
X164716581Y-144731293D01*
X164819388Y-144801467D01*
X164820750Y-144802277D01*
X164935928Y-144861384D01*
X164937685Y-144862125D01*
X165073086Y-144907566D01*
X165074896Y-144908029D01*
X165238370Y-144937200D01*
X165239946Y-144937380D01*
X165427300Y-144947061D01*
X165427300Y-145172939D01*
X165239946Y-145182619D01*
X165238370Y-145182799D01*
X165074896Y-145211970D01*
X165073086Y-145212433D01*
X164937685Y-145257874D01*
X164935928Y-145258615D01*
X164820750Y-145317722D01*
X164819388Y-145318532D01*
X164716581Y-145388706D01*
X164715807Y-145389278D01*
X164617521Y-145467915D01*
X164617335Y-145468067D01*
X164515874Y-145552440D01*
X164403595Y-145639799D01*
X164272633Y-145727642D01*
X164122601Y-145809395D01*
X163343322Y-145060000D01*
X164122601Y-144310605D01*
X164272633Y-144392357D01*
G37*
%TD.AperFunction*%
%TD*%
D23*
%TO.N,PA0*%
X202656678Y-139980000D02*
X201877399Y-140729395D01*
X201727366Y-140647642D01*
X201596404Y-140559799D01*
X201484125Y-140472440D01*
X201382664Y-140388067D01*
X201382478Y-140387915D01*
X201284192Y-140309278D01*
X201283418Y-140308706D01*
X201180611Y-140238532D01*
X201179249Y-140237722D01*
X201064071Y-140178615D01*
X201062314Y-140177874D01*
X200926913Y-140132433D01*
X200925103Y-140131970D01*
X200761629Y-140102799D01*
X200760053Y-140102619D01*
X200572700Y-140092939D01*
X200572700Y-139867061D01*
X200760053Y-139857380D01*
X200761629Y-139857200D01*
X200925103Y-139828029D01*
X200926913Y-139827566D01*
X201062314Y-139782125D01*
X201064071Y-139781384D01*
X201179249Y-139722277D01*
X201180611Y-139721467D01*
X201283418Y-139651293D01*
X201284192Y-139650721D01*
X201382478Y-139572084D01*
X201382664Y-139571932D01*
X201484125Y-139487559D01*
X201596404Y-139400200D01*
X201727366Y-139312357D01*
X201877399Y-139230605D01*
X202656678Y-139980000D01*
%TA.AperFunction,Conductor*%
D24*
G36*
X202656678Y-139980000D02*
G01*
X201877399Y-140729395D01*
X201727366Y-140647642D01*
X201596404Y-140559799D01*
X201484125Y-140472440D01*
X201382664Y-140388067D01*
X201382478Y-140387915D01*
X201284192Y-140309278D01*
X201283418Y-140308706D01*
X201180611Y-140238532D01*
X201179249Y-140237722D01*
X201064071Y-140178615D01*
X201062314Y-140177874D01*
X200926913Y-140132433D01*
X200925103Y-140131970D01*
X200761629Y-140102799D01*
X200760053Y-140102619D01*
X200572700Y-140092939D01*
X200572700Y-139867061D01*
X200760053Y-139857380D01*
X200761629Y-139857200D01*
X200925103Y-139828029D01*
X200926913Y-139827566D01*
X201062314Y-139782125D01*
X201064071Y-139781384D01*
X201179249Y-139722277D01*
X201180611Y-139721467D01*
X201283418Y-139651293D01*
X201284192Y-139650721D01*
X201382478Y-139572084D01*
X201382664Y-139571932D01*
X201484125Y-139487559D01*
X201596404Y-139400200D01*
X201727366Y-139312357D01*
X201877399Y-139230605D01*
X202656678Y-139980000D01*
G37*
%TD.AperFunction*%
%TD*%
D23*
%TO.N,PA3*%
X202656678Y-137440000D02*
X201877399Y-138189395D01*
X201727366Y-138107642D01*
X201596404Y-138019799D01*
X201484125Y-137932440D01*
X201382664Y-137848067D01*
X201382478Y-137847915D01*
X201284192Y-137769278D01*
X201283418Y-137768706D01*
X201180611Y-137698532D01*
X201179249Y-137697722D01*
X201064071Y-137638615D01*
X201062314Y-137637874D01*
X200926913Y-137592433D01*
X200925103Y-137591970D01*
X200761629Y-137562799D01*
X200760053Y-137562619D01*
X200572700Y-137552939D01*
X200572700Y-137327061D01*
X200760053Y-137317380D01*
X200761629Y-137317200D01*
X200925103Y-137288029D01*
X200926913Y-137287566D01*
X201062314Y-137242125D01*
X201064071Y-137241384D01*
X201179249Y-137182277D01*
X201180611Y-137181467D01*
X201283418Y-137111293D01*
X201284192Y-137110721D01*
X201382478Y-137032084D01*
X201382664Y-137031932D01*
X201484125Y-136947559D01*
X201596404Y-136860200D01*
X201727366Y-136772357D01*
X201877399Y-136690605D01*
X202656678Y-137440000D01*
%TA.AperFunction,Conductor*%
D24*
G36*
X202656678Y-137440000D02*
G01*
X201877399Y-138189395D01*
X201727366Y-138107642D01*
X201596404Y-138019799D01*
X201484125Y-137932440D01*
X201382664Y-137848067D01*
X201382478Y-137847915D01*
X201284192Y-137769278D01*
X201283418Y-137768706D01*
X201180611Y-137698532D01*
X201179249Y-137697722D01*
X201064071Y-137638615D01*
X201062314Y-137637874D01*
X200926913Y-137592433D01*
X200925103Y-137591970D01*
X200761629Y-137562799D01*
X200760053Y-137562619D01*
X200572700Y-137552939D01*
X200572700Y-137327061D01*
X200760053Y-137317380D01*
X200761629Y-137317200D01*
X200925103Y-137288029D01*
X200926913Y-137287566D01*
X201062314Y-137242125D01*
X201064071Y-137241384D01*
X201179249Y-137182277D01*
X201180611Y-137181467D01*
X201283418Y-137111293D01*
X201284192Y-137110721D01*
X201382478Y-137032084D01*
X201382664Y-137031932D01*
X201484125Y-136947559D01*
X201596404Y-136860200D01*
X201727366Y-136772357D01*
X201877399Y-136690605D01*
X202656678Y-137440000D01*
G37*
%TD.AperFunction*%
%TD*%
D23*
%TO.N,PA4*%
X202656678Y-134900000D02*
X201877399Y-135649395D01*
X201727366Y-135567642D01*
X201596404Y-135479799D01*
X201484125Y-135392440D01*
X201382664Y-135308067D01*
X201382478Y-135307915D01*
X201284192Y-135229278D01*
X201283418Y-135228706D01*
X201180611Y-135158532D01*
X201179249Y-135157722D01*
X201064071Y-135098615D01*
X201062314Y-135097874D01*
X200926913Y-135052433D01*
X200925103Y-135051970D01*
X200761629Y-135022799D01*
X200760053Y-135022619D01*
X200572700Y-135012939D01*
X200572700Y-134787061D01*
X200760053Y-134777380D01*
X200761629Y-134777200D01*
X200925103Y-134748029D01*
X200926913Y-134747566D01*
X201062314Y-134702125D01*
X201064071Y-134701384D01*
X201179249Y-134642277D01*
X201180611Y-134641467D01*
X201283418Y-134571293D01*
X201284192Y-134570721D01*
X201382478Y-134492084D01*
X201382664Y-134491932D01*
X201484125Y-134407559D01*
X201596404Y-134320200D01*
X201727366Y-134232357D01*
X201877399Y-134150605D01*
X202656678Y-134900000D01*
%TA.AperFunction,Conductor*%
D24*
G36*
X202656678Y-134900000D02*
G01*
X201877399Y-135649395D01*
X201727366Y-135567642D01*
X201596404Y-135479799D01*
X201484125Y-135392440D01*
X201382664Y-135308067D01*
X201382478Y-135307915D01*
X201284192Y-135229278D01*
X201283418Y-135228706D01*
X201180611Y-135158532D01*
X201179249Y-135157722D01*
X201064071Y-135098615D01*
X201062314Y-135097874D01*
X200926913Y-135052433D01*
X200925103Y-135051970D01*
X200761629Y-135022799D01*
X200760053Y-135022619D01*
X200572700Y-135012939D01*
X200572700Y-134787061D01*
X200760053Y-134777380D01*
X200761629Y-134777200D01*
X200925103Y-134748029D01*
X200926913Y-134747566D01*
X201062314Y-134702125D01*
X201064071Y-134701384D01*
X201179249Y-134642277D01*
X201180611Y-134641467D01*
X201283418Y-134571293D01*
X201284192Y-134570721D01*
X201382478Y-134492084D01*
X201382664Y-134491932D01*
X201484125Y-134407559D01*
X201596404Y-134320200D01*
X201727366Y-134232357D01*
X201877399Y-134150605D01*
X202656678Y-134900000D01*
G37*
%TD.AperFunction*%
%TD*%
D23*
%TO.N,PA5*%
X201283154Y-131219745D02*
X201284396Y-131220731D01*
X201420617Y-131315696D01*
X201422224Y-131316649D01*
X201550098Y-131380261D01*
X201551865Y-131380980D01*
X201675104Y-131420628D01*
X201676639Y-131421018D01*
X201798954Y-131444093D01*
X201799906Y-131444235D01*
X201925009Y-131458129D01*
X201925248Y-131458154D01*
X202056664Y-131470239D01*
X202197816Y-131487857D01*
X202352544Y-131518349D01*
X202516433Y-131566628D01*
X202537564Y-132647564D01*
X201456628Y-132626433D01*
X201408349Y-132462544D01*
X201377857Y-132307816D01*
X201360239Y-132166664D01*
X201348154Y-132035248D01*
X201348129Y-132035009D01*
X201334235Y-131909906D01*
X201334093Y-131908954D01*
X201311018Y-131786639D01*
X201310628Y-131785104D01*
X201270980Y-131661865D01*
X201270261Y-131660098D01*
X201206649Y-131532224D01*
X201205696Y-131530617D01*
X201110731Y-131394396D01*
X201109745Y-131393154D01*
X200984110Y-131253831D01*
X201143831Y-131094110D01*
X201283154Y-131219745D01*
%TA.AperFunction,Conductor*%
D24*
G36*
X201283154Y-131219745D02*
G01*
X201284396Y-131220731D01*
X201420617Y-131315696D01*
X201422224Y-131316649D01*
X201550098Y-131380261D01*
X201551865Y-131380980D01*
X201675104Y-131420628D01*
X201676639Y-131421018D01*
X201798954Y-131444093D01*
X201799906Y-131444235D01*
X201925009Y-131458129D01*
X201925248Y-131458154D01*
X202056664Y-131470239D01*
X202197816Y-131487857D01*
X202352544Y-131518349D01*
X202516433Y-131566628D01*
X202537564Y-132647564D01*
X201456628Y-132626433D01*
X201408349Y-132462544D01*
X201377857Y-132307816D01*
X201360239Y-132166664D01*
X201348154Y-132035248D01*
X201348129Y-132035009D01*
X201334235Y-131909906D01*
X201334093Y-131908954D01*
X201311018Y-131786639D01*
X201310628Y-131785104D01*
X201270980Y-131661865D01*
X201270261Y-131660098D01*
X201206649Y-131532224D01*
X201205696Y-131530617D01*
X201110731Y-131394396D01*
X201109745Y-131393154D01*
X200984110Y-131253831D01*
X201143831Y-131094110D01*
X201283154Y-131219745D01*
G37*
%TD.AperFunction*%
%TD*%
D23*
%TO.N,PB0*%
X201189049Y-128598679D02*
X201333175Y-128628333D01*
X201453730Y-128671993D01*
X201558173Y-128725142D01*
X201653802Y-128783299D01*
X201747615Y-128841740D01*
X201748260Y-128842115D01*
X201846978Y-128895834D01*
X201848337Y-128896473D01*
X201959084Y-128940714D01*
X201960936Y-128941294D01*
X202090868Y-128971314D01*
X202092830Y-128971608D01*
X202240014Y-128982025D01*
X202533991Y-130107494D01*
X201457133Y-130086443D01*
X201418331Y-129924949D01*
X201404479Y-129750630D01*
X201407411Y-129576836D01*
X201416848Y-129408872D01*
X201416860Y-129408609D01*
X201422395Y-129252042D01*
X201422378Y-129250795D01*
X201413576Y-129111059D01*
X201413114Y-129108375D01*
X201379556Y-128990658D01*
X201378642Y-128988342D01*
X201377457Y-128986459D01*
X201308721Y-128895952D01*
X201307028Y-128894126D01*
X201304361Y-128892311D01*
X201190027Y-128834201D01*
X201187708Y-128833296D01*
X201185792Y-128832914D01*
X201026620Y-128813738D01*
X201026620Y-128588519D01*
X201189049Y-128598679D01*
%TA.AperFunction,Conductor*%
D24*
G36*
X201189049Y-128598679D02*
G01*
X201333175Y-128628333D01*
X201453730Y-128671993D01*
X201558173Y-128725142D01*
X201653802Y-128783299D01*
X201747615Y-128841740D01*
X201748260Y-128842115D01*
X201846978Y-128895834D01*
X201848337Y-128896473D01*
X201959084Y-128940714D01*
X201960936Y-128941294D01*
X202090868Y-128971314D01*
X202092830Y-128971608D01*
X202240014Y-128982025D01*
X202533991Y-130107494D01*
X201457133Y-130086443D01*
X201418331Y-129924949D01*
X201404479Y-129750630D01*
X201407411Y-129576836D01*
X201416848Y-129408872D01*
X201416860Y-129408609D01*
X201422395Y-129252042D01*
X201422378Y-129250795D01*
X201413576Y-129111059D01*
X201413114Y-129108375D01*
X201379556Y-128990658D01*
X201378642Y-128988342D01*
X201377457Y-128986459D01*
X201308721Y-128895952D01*
X201307028Y-128894126D01*
X201304361Y-128892311D01*
X201190027Y-128834201D01*
X201187708Y-128833296D01*
X201185792Y-128832914D01*
X201026620Y-128813738D01*
X201026620Y-128588519D01*
X201189049Y-128598679D01*
G37*
%TD.AperFunction*%
%TD*%
D23*
%TO.N,/BOOT0*%
X173406433Y-110193372D02*
X173242544Y-110241650D01*
X173087816Y-110272142D01*
X172946664Y-110289760D01*
X172815248Y-110301845D01*
X172815009Y-110301870D01*
X172689906Y-110315764D01*
X172688954Y-110315906D01*
X172566639Y-110338981D01*
X172565104Y-110339371D01*
X172441865Y-110379019D01*
X172440098Y-110379738D01*
X172312224Y-110443350D01*
X172310617Y-110444303D01*
X172174396Y-110539268D01*
X172173154Y-110540254D01*
X172033830Y-110665889D01*
X171874110Y-110506169D01*
X171999745Y-110366845D01*
X172000731Y-110365603D01*
X172095696Y-110229382D01*
X172096649Y-110227775D01*
X172160261Y-110099901D01*
X172160980Y-110098134D01*
X172200628Y-109974895D01*
X172201018Y-109973360D01*
X172224093Y-109851045D01*
X172224235Y-109850093D01*
X172238129Y-109724990D01*
X172238154Y-109724751D01*
X172250239Y-109593335D01*
X172267857Y-109452183D01*
X172298349Y-109297455D01*
X172346628Y-109133567D01*
X173427564Y-109112436D01*
X173406433Y-110193372D01*
%TA.AperFunction,Conductor*%
D24*
G36*
X173406433Y-110193372D02*
G01*
X173242544Y-110241650D01*
X173087816Y-110272142D01*
X172946664Y-110289760D01*
X172815248Y-110301845D01*
X172815009Y-110301870D01*
X172689906Y-110315764D01*
X172688954Y-110315906D01*
X172566639Y-110338981D01*
X172565104Y-110339371D01*
X172441865Y-110379019D01*
X172440098Y-110379738D01*
X172312224Y-110443350D01*
X172310617Y-110444303D01*
X172174396Y-110539268D01*
X172173154Y-110540254D01*
X172033830Y-110665889D01*
X171874110Y-110506169D01*
X171999745Y-110366845D01*
X172000731Y-110365603D01*
X172095696Y-110229382D01*
X172096649Y-110227775D01*
X172160261Y-110099901D01*
X172160980Y-110098134D01*
X172200628Y-109974895D01*
X172201018Y-109973360D01*
X172224093Y-109851045D01*
X172224235Y-109850093D01*
X172238129Y-109724990D01*
X172238154Y-109724751D01*
X172250239Y-109593335D01*
X172267857Y-109452183D01*
X172298349Y-109297455D01*
X172346628Y-109133567D01*
X173427564Y-109112436D01*
X173406433Y-110193372D01*
G37*
%TD.AperFunction*%
%TD*%
M02*
